<?xml version="1.0" encoding="utf-8"?>
<!-- Generator: Adobe Illustrator 24.0.2, SVG Export Plug-In . SVG Version: 6.00 Build 0)  -->
<svg version="1.1" id="Calque_1" xmlns="http://www.w3.org/2000/svg" xmlns:xlink="http://www.w3.org/1999/xlink" x="0px" y="0px"
	 viewBox="0 0 1024 768" style="enable-background:new 0 0 1024 768;" xml:space="preserve">
<style type="text/css">
	.st0{fill:#F29400;}
	.st1{fill:#FFFFFF;}
	.st2{opacity:0.2;fill:#FFFFFF;}
</style>
<g>
	<g>
		<path class="st0" d="M888.38,405.47l-336,343.4c-14.29,14.61-37.72,14.86-52.32,0.57l-343.4-336
			c-14.61-14.29-14.86-37.72-0.57-52.32l336-343.4c14.29-14.61,37.72-14.86,52.32-0.57l343.4,336
			C902.42,367.44,902.67,390.86,888.38,405.47z"/>
	</g>
	<g>
		<path class="st0" d="M525.52,738.77c-8.41,0-16.36-3.24-22.38-9.13L175.88,409.43c-6.11-5.98-9.53-13.98-9.62-22.52
			c-0.09-8.55,3.15-16.62,9.13-22.73L495.6,36.91c6.07-6.2,14.19-9.62,22.87-9.62c8.42,0,16.36,3.24,22.38,9.13l327.26,320.21
			c12.61,12.34,12.83,32.64,0.49,45.25L548.39,729.15C542.32,735.35,534.2,738.77,525.52,738.77z"/>
		<path d="M518.47,32.29c7.1,0,13.8,2.74,18.88,7.7l327.26,320.21c10.64,10.41,10.83,27.54,0.42,38.18L544.82,725.65
			c-5.12,5.23-11.98,8.12-19.3,8.12c-7.1,0-13.8-2.74-18.88-7.7L179.37,405.85c-5.15-5.04-8.04-11.79-8.12-19
			c-0.08-7.21,2.66-14.02,7.7-19.18L499.17,40.41C504.29,35.18,511.15,32.29,518.47,32.29L518.47,32.29 M518.47,22.29
			c-9.6,0-19.2,3.72-26.45,11.12L171.81,360.68c-14.29,14.61-14.04,38.03,0.57,52.32l327.26,320.21
			c7.2,7.04,16.54,10.55,25.87,10.55c9.6,0,19.2-3.72,26.45-11.12l320.21-327.26c14.29-14.61,14.04-38.03-0.57-52.32L544.34,32.85
			C537.14,25.8,527.81,22.29,518.47,22.29L518.47,22.29z"/>
	</g>
</g>
<path class="st1" d="M907,69"/>
<path class="st2" d="M519.45,6.61c0,0,13.65,1.11,21.1,7.25S888,353,888,353s24,26,0,52S766.66,529.87,766.66,529.87
	S911.91,328.22,519.45,6.61z"/>
</svg>
