<svg id="icons" enable-background="new 0 0 64 64" height="512" viewBox="0 0 64 64" width="512" xmlns="http://www.w3.org/2000/svg"><path d="m47.006 26.99h-30.012c-6.068 0-11-4.92-11-10.99v32c0 6.07 4.932 11 11 11h30.012c6.068 0 11-4.93 11-11v-32c0 6.07-4.932 10.99-11 10.99z" fill="#ed5565"/><path d="m47.006 4h-30.012c-4.408 0-8 3.58-8 8 0 4.41 3.592 7.99 8 7.99h30.012c4.42 0 8-3.58 8-7.99 0-4.42-3.58-8-8-8z" fill="#aab2bd"/><path d="m5.994 48c0 6.07 4.932 11 11 11h30.012c6.068 0 11-4.93 11-11v4c0 6.08-4.932 11-11 11h-30.012c-6.068 0-11-4.92-11-11z" fill="#e6e9ed"/><path d="m21.805 8c-2.119.1-3.799 1.85-3.799 3.99 0 2.21 1.789 4 4 4h-5-.012c-2.199 0-3.988-1.79-3.988-3.99 0-2.21 1.789-4 3.988-4z" fill="#ccd1d9"/><path d="m5.994 12c0 6.07 4.932 10.99 11 10.99h30.012c6.068 0 11-4.92 11-10.99v4c0 6.07-4.932 10.99-11 10.99h-30.012c-6.068 0-11-4.92-11-10.99z" fill="#e6e9ed"/><path d="m5.994 12c0-6.08 4.932-11 11-11h30.012c6.068 0 11 4.92 11 11 0 6.07-4.932 10.99-11 10.99h-30.012c-6.068 0-11-4.92-11-10.99zm41.012-8h-30.012c-4.408 0-8 3.58-8 8 0 4.41 3.592 7.99 8 7.99h30.012c4.42 0 8-3.58 8-7.99 0-4.42-3.58-8-8-8z" fill="#ccd1d9"/><path d="m43.006 33.01 3 5-2 3h-5v-1-3h3z" fill="#ffd2a6"/><path d="m24.006 40.01v1h-5l-2-3 3-5 1 4h3z" fill="#ffd2a6"/><path d="m38.125 49.11-3.119 3.9h-7l-3.121-3.9.121-.1 4-2h5l4 2z" fill="#ffd2a6"/><path d="m39.006 41.01v7l-.881 1.1-.119-.1-4-2h-5l-4 2-.121.1-.879-1.1v-7-1-3l7.5-3 7.5 3v3z" fill="#965353"/><g fill="#ccd1d9"><path d="m16.998 16.994c-2.757 0-4.999-2.241-4.999-4.996 0-2.757 2.242-5 4.999-5 .553 0 1 .447 1 1s-.447 1-1 1c-1.653 0-2.999 1.346-2.999 3 0 1.652 1.346 2.996 2.999 2.996.553 0 1 .447 1 1s-.447 1-1 1z"/><path d="m23 16.996c-.553 0-1-.447-1-1s.447-1 1-1c1.654 0 3-1.346 3-3 0-1.653-1.346-2.998-3-2.998-.553 0-1-.447-1-1s.447-1 1-1c2.757 0 5 2.242 5 4.998 0 2.757-2.243 5-5 5z"/><path d="m22 16.994c-2.757 0-5-2.242-5-4.998 0-2.757 2.243-5 5-5 .553 0 1 .447 1 1s-.447 1-1 1c-1.654 0-3 1.346-3 3 0 1.653 1.346 2.998 3 2.998.553 0 1 .447 1 1s-.447 1-1 1z"/><path d="m23 9h-6.002c-.553 0-1-.447-1-1s.447-1 1-1h6.002c.553 0 1 .447 1 1s-.447 1-1 1z"/><path d="m23 16.993h-6c-.553 0-1-.447-1-1s.447-1 1-1h6c.553 0 1 .447 1 1s-.447 1-1 1z"/></g><path d="m30.03 51.012c-.553 0-1.005-.447-1.005-1s.442-1 .994-1h.011c.552 0 1 .447 1 1s-.448 1-1 1z" fill="#f7c292"/><path d="m33.03 51.012c-.553 0-1.005-.447-1.005-1s.442-1 .994-1h.011c.552 0 1 .447 1 1s-.448 1-1 1z" fill="#f7c292"/><path d="m29 42.011h-1c-.553 0-1-.447-1-1s.447-1 1-1h1c.553 0 1 .447 1 1s-.447 1-1 1z" fill="#844747"/><path d="m35 42.011h-1c-.553 0-1-.447-1-1s.447-1 1-1h1c.553 0 1 .447 1 1s-.447 1-1 1z" fill="#844747"/></svg>