<?xml version="1.0" encoding="iso-8859-1"?>
<!-- Generator: Adobe Illustrator 19.0.0, SVG Export Plug-In . SVG Version: 6.00 Build 0)  -->
<svg version="1.1" id="Capa_1" xmlns="http://www.w3.org/2000/svg" xmlns:xlink="http://www.w3.org/1999/xlink" x="0px" y="0px"
	 viewBox="0 0 512.001 512.001" style="enable-background:new 0 0 512.001 512.001;" xml:space="preserve">
<path style="fill:#B6D84D;" d="M401.898,42.561c-43.801-35.187-94.917-21.209-94.917-21.209
	c-60.025,10.845-46.712,61.378-46.712,61.378s7.514,51.715,66.999,38.214c0,0,52.511-7.131,79.057-56.649
	C410.281,56.917,408.424,47.802,401.898,42.561z"/>
<path style="fill:#ACC63E;" d="M406.329,64.296c-26.549,49.52-79.056,56.642-79.056,56.642
	c-59.488,13.502-67.006-38.212-67.006-38.212s-0.406-1.544-0.762-4.165c7.965,13.502,24.964,28.509,60.31,20.492
	c0,0,52.517-7.132,79.056-56.652c0.284-0.528,0.538-1.067,0.751-1.616c0.762,0.579,1.524,1.169,2.276,1.778
	C408.422,47.805,410.281,56.92,406.329,64.296z"/>
<path style="fill:#845230;" d="M256.009,179.312c-0.233,0-0.468-0.011-0.705-0.033c-4.19-0.384-7.276-4.093-6.892-8.285
	c0.11-1.194,10.726-119.893-8.945-160.018c-1.852-3.779-0.291-8.344,3.488-10.197c3.778-1.852,8.344-0.291,10.197,3.488
	c21.545,43.946,10.9,163.07,10.437,168.119C263.226,176.342,259.903,179.312,256.009,179.312z"/>
<path style="fill:#EF4836;" d="M443.052,236.781c-5.314-14.404-11.956-28.44-20.697-41.098c-23.86-34.55-61.996-49.324-103.1-45.6
	c-20.712,1.876-46.248,9.386-63.254,21.608c-17.007-12.223-42.543-19.732-63.254-21.608c-41.105-3.723-79.24,11.05-103.1,45.6
	c-8.742,12.658-15.383,26.694-20.697,41.098c-11.043,29.934-14.747,62.221-14.402,93.98c-0.345,31.759,3.36,64.046,14.402,93.98
	c5.314,14.404,11.956,28.44,20.697,41.098c23.86,34.55,61.996,49.324,103.1,45.6c20.712-1.876,46.248-9.386,63.254-21.608
	c17.007,12.223,42.543,19.732,63.254,21.608c41.105,3.723,79.24-11.05,103.1-45.6c8.742-12.658,15.384-26.694,20.697-41.098
	c11.043-29.934,14.747-62.221,14.402-93.98C457.8,299.002,454.095,266.714,443.052,236.781z"/>
<path style="fill:#DB3D31;" d="M457.454,330.765c0.345,31.751-3.363,64.039-14.407,93.981
	c-5.314,14.397-11.949,28.438-20.696,41.088c-23.856,34.554-61.997,49.327-103.094,45.608c-3.079-0.274-6.258-0.68-9.51-1.209
	c27.859-4.806,52.538-19.447,69.77-44.4c8.748-12.649,15.383-26.691,20.696-41.088c11.044-29.942,14.752-62.23,14.407-93.981
	c0.345-31.761-3.363-64.049-14.407-93.981c-5.314-14.407-11.949-28.438-20.696-41.098c-17.222-24.953-41.9-39.584-69.76-44.39
	c3.241-0.528,6.422-0.935,9.499-1.209c41.098-3.729,79.239,11.044,103.094,45.598c8.748,12.66,15.383,26.691,20.696,41.098
	C454.091,266.715,457.8,299.004,457.454,330.765z"/>
<g>
</g>
<g>
</g>
<g>
</g>
<g>
</g>
<g>
</g>
<g>
</g>
<g>
</g>
<g>
</g>
<g>
</g>
<g>
</g>
<g>
</g>
<g>
</g>
<g>
</g>
<g>
</g>
<g>
</g>
</svg>
