<?xml version="1.0"?>
<svg xmlns="http://www.w3.org/2000/svg" id="Layer_1" data-name="Layer 1" viewBox="0 0 512 512" width="512" height="512"><title>Fuel</title><path d="M390.244,41H276.469a32.539,32.539,0,0,0-29.462,17.967l-22.245,44.248A6.925,6.925,0,0,1,218.5,107H161.87l-21.489,25.874L119,158.62V425.145A45.962,45.962,0,0,0,165.248,471H376.931A45.81,45.81,0,0,0,423,425.145V73.542A32.483,32.483,0,0,0,390.244,41ZM359.929,394.889a7,7,0,0,1-9.9,9.9l-79.605-79.606-79.607,79.606a7,7,0,0,1-9.9-9.9l79.606-79.606-81.015-81.014a7,7,0,0,1,9.9-9.9l81.016,81.015,81.014-81.015a7,7,0,1,1,9.9,9.9l-81.015,81.014ZM387,109.488c0,3.866-2.416,6.512-6.282,6.512H267.062a6.736,6.736,0,0,1-5.871-2.885,6.42,6.42,0,0,1-.524-6.357l16-35.836a6.794,6.794,0,0,1,6.4-3.922h97.656c3.866,0,6.282,2.67,6.282,6.536Z"/><polygon points="148.75 101.044 126.187 82.09 88.553 127.252 111.116 146.205 136.411 115.851 148.75 101.044"/></svg>
