<?xml version="1.0" encoding="iso-8859-1"?>
<!-- Generator: Adobe Illustrator 19.0.0, SVG Export Plug-In . SVG Version: 6.00 Build 0)  -->
<svg version="1.1" id="Layer_1" xmlns="http://www.w3.org/2000/svg" xmlns:xlink="http://www.w3.org/1999/xlink" x="0px" y="0px"
	 viewBox="0 0 512.002 512.002" style="enable-background:new 0 0 512.002 512.002;" xml:space="preserve">
<g>
	<g>
		<g>
			<path d="M395.824,426.356c0.004-0.032,0.007-0.063,0.01-0.095c0.216-1.675-0.087-3.298-0.771-4.725
				c-0.018-0.04-0.037-0.08-0.055-0.119c-0.024-0.049-0.049-0.098-0.075-0.147c-1.029-2.084-2.867-3.774-5.389-4.427
				c-0.918-0.263-1.891-0.376-2.896-0.303c-28.297-0.176-46.648-13.893-57.722-38.584c-1.566-3.491-5.234-5.545-9.029-5.056
				c-0.92,0.126-0.92,0.126-1.046,0.143c-0.634,0.088-0.914,0.115-1.081,0.115c-9.583,0-17.356-7.775-17.356-17.356
				c0-4.765,1.951-9.206,5.375-12.492c6.657-6.388,0.068-17.375-8.702-14.511c-2.001,0.653-3.722,0.969-5.351,0.969
				c-9.583,0-17.356-7.775-17.356-17.356c0-9.092,7.075-16.578,16.179-17.203c7.256-0.498,10.718-9.166,5.8-14.525
				c-2.972-3.239-4.624-7.323-4.624-11.662c0-9.587,7.769-17.356,17.356-17.356c0.881,0,1.856,0.103,3.103,0.325
				c4.777,0.851,9.323-2.38,10.091-7.17c3.243-20.236,7.923-37.479,13.236-51.273c0.485-0.397,0.971-0.777,1.455-1.193
				c1.458-1.253,2.888-2.58,4.289-3.981c0.278-0.197,1.911-1.49,4.242-3.188c3.936-2.868,8.322-5.741,13.021-8.417
				c5.022-2.859,10.101-5.314,15.145-7.246c22.882-8.769,34.358-34.704,25.616-57.639c-12.127-31.795-41.265-51.138-90.194-51.138
				h-25.001c-1.469,0-2.937,0.013-4.402,0.034c-4.508-16.486-13.358-30.314-25.426-41.566c-10.726-10-21.466-15.949-28.979-18.689
				c-4.503-1.642-9.484,0.677-11.126,5.18c-1.642,4.503,0.677,9.484,5.18,11.126c1.223,0.446,3.662,1.533,6.904,3.329
				c5.513,3.054,11.041,6.952,16.185,11.749c8.827,8.23,15.472,18.061,19.359,29.695c-36.251,2.789-70.942,12.406-101.951,28.715
				c-27.756,14.603-45.483,30.687-49.51,49.458c-1.133,5.261-0.496,10.74,1.71,15.732c12.24,27.612,34.017,49.406,67.57,52.397
				c9.941,19.735,16.67,50.844,16.67,95.826c0.071,1.194,0.135,2.143,0.202,3.538c0.794,16.637-0.552,36.327-5.716,54.881
				c-9.57,34.389-29.396,54.183-63.388,54.385c-0.989-0.068-1.948,0.043-2.853,0.301c-2.665,0.685-4.571,2.524-5.565,4.767
				c-0.647,1.38-0.937,2.94-0.749,4.551c0.13,1.41,0.598,2.79,1.43,4c1.503,2.839,4.024,7.048,7.615,12.219
				c6.7,9.647,14.885,19.278,24.632,28.274c27.954,25.803,62.938,41.352,105.14,41.352s77.187-15.549,105.14-41.352
				c9.746-8.997,17.932-18.627,24.632-28.274c3.602-5.187,6.127-9.405,7.628-12.244c0.766-1.122,1.221-2.39,1.384-3.692
				C395.816,426.412,395.82,426.384,395.824,426.356z M127.912,148.488c-0.753-1.705-0.957-3.461-0.613-5.061
				c2.629-12.254,17.064-25.351,40.622-37.745c29.487-15.508,62.666-24.527,97.418-26.912c0.236,2.6,0.367,5.266,0.367,8.013
				c0,4.793,3.885,8.678,8.678,8.678c4.793,0,8.678-3.885,8.678-8.678c0-2.952-0.124-5.836-0.354-8.659
				c0.464-0.002,0.924-0.019,1.388-0.019h25.001c41.845,0,64.46,15.012,73.977,39.965c5.342,14.015-1.694,29.917-15.607,35.249
				c-5.914,2.265-11.775,5.098-17.522,8.37c-5.299,3.017-10.221,6.242-14.655,9.472c-2.691,1.961-4.653,3.514-5.767,4.458
				c-1.621,1.579-2.731,2.609-3.858,3.578c-0.677,0.582-1.36,1.126-2.044,1.661c-0.188,0.124-0.376,0.251-0.561,0.392
				c-6.141,4.676-12.522,7.527-18.896,8.929c-3.88,0.854-7.254,1.076-9.889,0.936c-0.245-0.014-0.495-0.026-0.727-0.046
				c-0.299-0.026-1.805-0.151-1.805-0.151c-4.911,0-9.386-0.974-13.422-2.698c-4.033-1.726-7.631-4.202-10.795-7.208
				c-0.009-0.008-0.018-0.015-0.027-0.023c-0.438-0.415-0.893-0.806-1.356-1.186c-0.128-0.105-0.257-0.207-0.387-0.31
				c-0.459-0.361-0.926-0.709-1.406-1.035c-0.02-0.014-0.04-0.029-0.06-0.043c-0.543-0.367-1.103-0.706-1.671-1.029
				c-0.053-0.03-0.106-0.059-0.159-0.088c-4.706-2.626-10.197-3.734-15.698-3.13c-4.386,0.481-9.039,1.241-13.929,2.254
				c-7.516,1.557-15.435,3.675-23.557,6.215c-6.233,1.949-12.234,4.035-17.792,6.122c-2.185,0.82-3.988,1.522-5.371,2.074
				c-0.316-0.021-0.569-0.034-0.858-0.045c-0.374-0.014-0.738,0.003-1.097,0.033C156.384,189.461,138.198,171.691,127.912,148.488z
				 M207.487,366.807c5.743-20.636,7.206-42.037,6.331-60.361c-0.077-1.623-0.157-2.793-0.214-3.457
				c0.028-43.454-6.252-75.659-16.146-97.927c5.41-2.029,11.115-4.011,17.025-5.858c7.595-2.373,14.958-4.343,21.85-5.774
				c0.696-0.145,1.386-0.283,2.07-0.416c0.008-0.001,0.015-0.003,0.023-0.005l13.152-1.436c0.758,0.154,1.47,0.401,2.125,0.726
				c0.038,0.019,0.076,0.038,0.114,0.058c0.266,0.137,0.517,0.292,0.761,0.455c0.064,0.043,0.13,0.082,0.193,0.127
				c0.273,0.195,0.533,0.405,0.774,0.633c0.006,0.005,0.013,0.01,0.018,0.016c4.586,4.365,9.862,7.999,15.805,10.56
				c5.94,2.562,12.543,4.051,19.794,4.126c0.256,0.029,0.546,0.058,0.869,0.085c0.197,0.017,0.401,0.022,0.6,0.036
				c6.338,0.476,13.288-0.199,20.475-2.452c-2.506,8.693-4.752,18.201-6.637,28.466c-17.945,1.342-32.086,16.325-32.086,34.614
				c0,4.25,0.784,8.378,2.259,12.231c-11.643,5.606-19.614,17.469-19.614,31.159c0,16.641,11.717,30.553,27.352,33.93
				c-0.865,3.034-1.318,6.211-1.318,9.46c0,18.466,14.428,33.571,32.627,34.65c8.914,17.284,21.565,30.028,38.142,37.098
				c-2.657,0.783-5.376,1.557-8.164,2.315c-29.227,7.948-59.353,12.713-88.636,12.713c-29.283,0-59.41-4.765-88.636-12.713
				c-2.752-0.748-5.436-1.512-8.061-2.284C183.955,417.555,199.335,396.102,207.487,366.807z M350.396,457.897
				c-24.928,23.01-55.841,36.75-93.368,36.75s-68.44-13.739-93.368-36.75c-5.455-5.036-10.372-10.299-14.757-15.643
				c4.756,1.488,9.739,2.951,14.933,4.363c30.605,8.323,62.207,13.321,93.191,13.321c30.988,0,62.59-4.998,93.194-13.321
				c5.195-1.413,10.177-2.875,14.934-4.364C360.768,447.598,355.851,452.861,350.396,457.897z"/>
			<path d="M306.69,118.81c3.312-3.464,3.189-8.957-0.275-12.269c-3.464-3.312-8.957-3.189-12.269,0.275
				c-8.147,8.52-30.539,8.162-39.946-0.422c-3.54-3.231-9.029-2.979-12.26,0.561c-3.231,3.54-2.979,9.029,0.561,12.26
				C258.604,133.908,291.747,134.437,306.69,118.81z"/>
		</g>
	</g>
</g>
<g>
</g>
<g>
</g>
<g>
</g>
<g>
</g>
<g>
</g>
<g>
</g>
<g>
</g>
<g>
</g>
<g>
</g>
<g>
</g>
<g>
</g>
<g>
</g>
<g>
</g>
<g>
</g>
<g>
</g>
</svg>
