<?xml version="1.0" encoding="utf-8"?>
<!-- Generator: Adobe Illustrator 24.0.2, SVG Export Plug-In . SVG Version: 6.00 Build 0)  -->
<svg version="1.1" id="Calque_1" xmlns="http://www.w3.org/2000/svg" xmlns:xlink="http://www.w3.org/1999/xlink" x="0px" y="0px"
	 viewBox="0 0 1024 768" style="enable-background:new 0 0 1024 768;" xml:space="preserve">
<style type="text/css">
	.st0{fill:#F29400;}
	.st1{fill:#FFFFFF;}
	.st2{opacity:0.2;fill:#FFFFFF;}
</style>
<g>
	<g>
		<g>
			<path class="st0" d="M888.38,405.47l-336,343.4c-14.29,14.61-37.72,14.86-52.32,0.57l-343.4-336
				c-14.61-14.29-14.86-37.72-0.57-52.32l336-343.4c14.29-14.61,37.72-14.86,52.32-0.57l343.4,336
				C902.42,367.44,902.67,390.86,888.38,405.47z"/>
		</g>
		<g>
			<path class="st0" d="M525.52,738.77c-8.41,0-16.36-3.24-22.38-9.13L175.88,409.43c-6.11-5.98-9.53-13.98-9.62-22.52
				c-0.09-8.55,3.15-16.62,9.13-22.73L495.6,36.91c6.07-6.2,14.19-9.62,22.87-9.62c8.42,0,16.36,3.24,22.38,9.13l327.26,320.21
				c12.61,12.34,12.83,32.64,0.49,45.25L548.39,729.15C542.32,735.35,534.2,738.77,525.52,738.77z"/>
			<path d="M518.47,32.29c7.1,0,13.8,2.74,18.88,7.7l327.26,320.21c10.64,10.41,10.83,27.54,0.42,38.18L544.82,725.65
				c-5.12,5.23-11.98,8.12-19.3,8.12c-7.1,0-13.8-2.74-18.88-7.7L179.37,405.85c-5.15-5.04-8.04-11.79-8.12-19
				c-0.08-7.21,2.66-14.02,7.7-19.18L499.17,40.41C504.29,35.18,511.15,32.29,518.47,32.29L518.47,32.29 M518.47,22.29
				c-9.6,0-19.2,3.72-26.45,11.12L171.81,360.68c-14.29,14.61-14.04,38.03,0.57,52.32l327.26,320.21
				c7.2,7.04,16.54,10.55,25.87,10.55c9.6,0,19.2-3.72,26.45-11.12l320.21-327.26c14.29-14.61,14.04-38.03-0.57-52.32L544.34,32.85
				C537.14,25.8,527.81,22.29,518.47,22.29L518.47,22.29z"/>
		</g>
	</g>
	<g>
		<g>
			<g>
				<path d="M722.06,410.64l-12.95-41.7l-7.81-1.16l4.5-9.5l-2.66-8.58h-5.4l2.79-8.42l-6.69-21.48c4.18-6.61,5.51-14.74,1.39-22.08
					l-13.76-24.49l-7.5,2.86l0.61-15.12l-8.02-2.88l-25.51,12.57l26.22-22.72l-2.9-5.17c-5.75-10.23-18.5-12.05-28.03-9.4
					l-0.08,0.03c0,0-3.32,1.05-6.02,2.49c-2.82,1.5-5.01,3.76-5.01,3.76c-0.54,0.51-1.07,1.05-1.58,1.62
					c-0.19-0.37-0.35-0.75-0.55-1.11c-4.25-7.56-11.43-12.42-19.32-14l-1.52,5.8l-9.61-5.82c-1.82,0.36-3.62,0.9-5.37,1.63
					l2.46,15.28l-15.83-3.91c-5.94,9.64-5.94,22.47,1.7,32.47c7.48,9.78,20.92,13.61,32.46,9.32c5.21-1.94,9.4-5.15,12.51-9.08
					l1.54,2.76c-2.11,5.21-4.36,9.91-6.28,12.34c-2.54,3.21-8.98,8.17-15.63,12.74c9.38,3.91,18.61,7.53,15.98,7.14
					c-2.76-0.41-14.67-1.67-22.95-2.53c-0.78,0.49-1.55,0.97-2.28,1.43l2.97,1.13l1.4,8.7l-10.63,6.83
					c-0.41,3.15,5.76,5.42,9.54,5.42c1.92,0,3.87-0.5,5.65-1.56c4.15-2.47,25.29-15.32,33.36-25.56c0.66-0.84,1.31-1.79,1.95-2.77
					L645.37,316c-14.8,10.69-25.69,19.25-32.61,25.64l6.88,2.97l-15.17,6.43c-1.37,2.42-4.28,9.01-8.09,35.6l5.88,1.5l-6.72,4.72
					c-0.25,1.83-0.49,3.73-0.74,5.72l15.56,4.29l-16.92,7.26c-0.12,1.07-0.24,2.13-0.36,3.24c-0.9,8.3,5.08,15.76,13.38,16.67
					c0.56,0.06,1.12,0.09,1.67,0.09c7.61,0,14.16-5.73,15.01-13.47c2.16-19.83,5.7-44.03,7.77-50.66
					c4.5-4.74,22.05-18.28,36.69-28.73l25.59,82.36c2.01,6.48,7.98,10.63,14.43,10.63c1.49,0,3-0.22,4.49-0.69
					C720.08,427.08,724.53,418.6,722.06,410.64z"/>
				<path d="M553.29,265.3c-6.06,0.89-10.24,6.53-9.35,12.59c0.81,5.51,5.55,9.47,10.96,9.47c0.54,0,1.08-0.04,1.63-0.12
					c6.42-0.95,14.37-2.51,21.06-4.61c-5.08-4.81-9.28-12.13-10.93-20.25C562.1,263.67,557.62,264.67,553.29,265.3z"/>
				<circle cx="435.73" cy="207.93" r="29.1"/>
				<path d="M543.79,205.94l11.81,21.1l18.53-20.41l-17.17-15.59c0.89-1.98,0.47-4.38-1.21-5.91c-1.7-1.54-4.12-1.71-6-0.63l-2-1.82
					l-11.46,12.62l1.8,1.64l-45.12,47.73c-3.1-0.74-6.48-0.21-9.24,1.84c-3.31,2.17-20.5,8.7-26.97,11.15
					c-1.32,0.5-2.52,0.96-3.55,1.35c-6.15-2.99-20.14-14.04-23.18-17.26c-0.51-0.54-1.06-1.02-1.65-1.44
					c-1.68-2.41-3.68-4.56-5.81-6.29c0,0-2.39-2.14-5.36-3.46c-2.86-1.26-6.31-2.09-6.31-2.09l-0.08-0.03
					c-9.89-2-22.71,0.78-27.81,11.61l-27.35,58.12c-1.97,4.18-2.29,8.47-1.45,12.55l-7.46,46.65l-40.83,28.44
					c-6.51,4.52-8.11,13.47-3.57,19.97c2.78,4.01,7.24,6.15,11.79,6.15c2.83,0,5.69-0.84,8.19-2.58l45.84-31.92
					c3.19-2.23,5.35-5.66,5.97-9.51l4.83-30.25c0.44,0.71,0.91,1.39,1.48,2.03l25.89,28.9l-9.38,40.27
					c-1.79,7.72,3,15.44,10.72,17.23c1.1,0.26,2.19,0.38,3.26,0.38c6.53,0,12.42-4.47,13.97-11.09l11.07-47.55
					c1.06-4.56-0.17-9.35-3.29-12.83L403.3,322.2c0.24-0.42,0.48-0.84,0.69-1.29l11.82-25.12c2.77,3.19,5.63,4.79,8.97,5.34
					c2.21,0.36,6.24,0.69,10.9,0.94c-1.88,1.58-2.07,3.35,3.45,5.2c11.51,3.87,9.35-0.49,11.26-2.59l1.99-2.11c0.37,0,0.75,0,1.1,0
					c3.23,0,5.96-0.07,7.71-0.22c6.21-0.55,10.8-6.04,10.26-12.25c-0.19-2.06-0.95-3.92-2.07-5.49l11.37-12.02
					c8.33-3.36,13.56-5.8,16.3-7.83c4.24-3.13,5.65-8.7,3.76-13.38L543.79,205.94z M431.59,281.05c-1.18-1.95-2.6-4.93-4.06-8.3
					l0.55-1.16c5.21,3.93,11.2,7.82,16.92,10.12C440.06,281.56,435,281.32,431.59,281.05z"/>
				<path d="M617.89,210.77c3.57,0.36,5.63-0.72,7.1,0c1.46,0.71,0,6.42,0,6.42l5.39-6.6l1.43-4.32l-5.35-2.27h-4.99
					C621.46,203.99,614.32,210.41,617.89,210.77z"/>
				<path d="M584.51,212.47c0,0-4.99,8.56-3.57,8.92c1.43,0.36,13.2,0,13.2,0l-6.72-7.14L584.51,212.47z"/>
				<path d="M582.26,193.55c0,0,8.55,0.09,10.34-0.63c1.79-0.72-1.79,5-1.79,5l10.71-9.28l-9.99-4.28l-11.41,1.79l-7.49,13.56h9.63
					V193.55z"/>
				<polygon points="619.35,179.37 608.44,221.62 611.23,222.24 				"/>
				<polygon points="565.11,244.04 532.42,245.47 565.11,246.9 				"/>
			</g>
		</g>
		<g>
		</g>
		<g>
		</g>
		<g>
		</g>
		<g>
		</g>
		<g>
		</g>
		<g>
		</g>
		<g>
		</g>
		<g>
		</g>
		<g>
		</g>
		<g>
		</g>
		<g>
		</g>
		<g>
		</g>
		<g>
		</g>
		<g>
		</g>
		<g>
		</g>
	</g>
	<g>
		<path d="M403.95,480.35h2.31c0.14,0.02,0.26,0.11,0.37,0.27l0.14,2.65l0.75-0.24l0.14-1.02l-0.14-0.37l-0.14-1.29h2.68l1.29,0.27
			l-0.14,30.18c-0.43,0.2-0.68,0.54-0.75,1.02c0.23-0.07,0.43-0.19,0.61-0.37l0.27,1.53l0.37,7.16l20.15-0.14
			c0.25-0.72,0.37-1.54,0.37-2.44l0.27-4.44l0.64-0.27l0.37-1.02l-1.02-0.24v-15.94c0.18-0.02,0.35-0.1,0.51-0.24l-0.51-0.14v-2.17
			l0.14-2.68c-0.16-0.66-0.25-1.42-0.27-2.31v-7.26h20.65v51.99l-0.37,0.27c-0.41-0.38-0.88-0.68-1.42-0.88v1.53l1.42-0.27
			c0.25,0.75,0.37,1.56,0.37,2.44v4.71h-1.02c-0.25-0.68-0.37-1.45-0.37-2.31l-0.41,1.15v1.8l0.14,0.37h0.37l1.15-0.64l0.27,1.9
			l-0.14,0.27l-1.15-0.14c-0.68-0.27-1.19-0.73-1.53-1.39c-0.2-0.18-0.46-0.31-0.78-0.37c-0.2,0.27-0.37,0.61-0.51,1.02
			c0.02,0.63,0.19,1.31,0.51,2.03l0.14,4.21c0.2-0.07,0.37-0.24,0.51-0.51l-0.14-4.34l1.15-0.14c0.29,0.39,0.63,0.77,1.02,1.15
			l0.64-0.37l0.14,3.05l-0.27,1.25l0.41,2.44l-0.14,10.95c-0.45,0.18-0.92,0.31-1.39,0.37v-1.02c-0.16-0.66-0.42-1.33-0.78-2.03
			l-0.14-0.51c-0.45,0.16-0.87,0.42-1.25,0.78l0.75,1.53v1.25l-0.24,1.29c-0.45,0.11-0.96,0.19-1.53,0.24l-0.27-0.88v-1.53
			c-0.14-0.18-0.35-0.35-0.64-0.51l-0.61,0.51l0.1,1.29l0.41,1.02l-0.41,2.27c-0.38-0.02-0.77-0.15-1.15-0.37
			c-0.07-0.66-0.24-1.42-0.51-2.31c-0.38-0.47-0.76-1.02-1.12-1.63l-0.27,0.37v1.25l0.27,1.29l0.61,1.9l-0.88,1.8
			c0.7,0.14,1.16,0.6,1.39,1.39l0.27,1.93l-0.51,0.14c-0.75,0.16-1.59,0.24-2.54,0.24l-10.07-0.14v-23.2l1.02-0.24l0.14-1.42
			c-0.41,0.16-0.79,0.37-1.15,0.64l-0.14-3.43c0.66-0.04,1.38-0.18,2.17-0.41c0.54-0.18,1.14-0.52,1.8-1.02
			c-0.11-0.25-0.28-0.45-0.51-0.61l-3.09,0.61l-0.24-0.37c-0.23-0.7-0.35-1.5-0.37-2.41c-0.14-0.68-0.4-1.36-0.78-2.03l-1.8,0.37
			h-16.18c-0.16-0.04-0.28-0.14-0.37-0.27l-1.53,0.92v4.21l-0.92-0.51h-0.75c0.09,0.5,0.38,0.84,0.88,1.02
			c0.41,0.59,0.62,1.31,0.64,2.17l-0.14,24.96l-0.75-0.75c-0.66-0.02-1.18-0.33-1.56-0.92h1.05c-0.05-0.43-0.18-0.85-0.41-1.25
			c-0.66,0.11-1.16,0.5-1.53,1.15l-0.37,0.88c-0.25-0.25-0.51-0.54-0.78-0.88c-0.25-0.5-0.59-0.97-1.02-1.42l-1.66,1.15l-2.03-0.14
			l-0.14,0.51c-0.2,0.29-0.5,0.51-0.88,0.64l-0.24-1.9c-0.29,0.32-0.51,0.7-0.64,1.15c-0.68,0.05-1.4,0.17-2.17,0.37l-0.14,0.64
			c-0.54-0.11-1.1-0.28-1.66-0.51l-1.53-1.15c-0.5-0.27-1.05-0.49-1.66-0.64v0.51c-0.41,0.52-1,0.86-1.76,1.02
			c-0.32-0.61-0.49-1.29-0.51-2.03v-23.98c0.27,0.07,0.61,0.11,1.02,0.14c0.72,0,1.53-0.12,2.41-0.37c0,0.7,0.09,1.55,0.27,2.54
			l0.75-1.66l1.66-0.14l0.78,0.27c0.54-0.27,1.1-0.66,1.66-1.15c0.59-0.09,1.27-0.14,2.03-0.14l0.1,0.51
			c0.47,0.32,0.99,0.75,1.56,1.29l0.75-1.8c0.72,0.02,1.45,0.19,2.17,0.51c0.32-0.36,0.58-0.78,0.78-1.25l-0.51-0.14
			c-0.68-0.25-1.45-0.42-2.31-0.51c-0.29,0.09-0.59,0.22-0.88,0.37l-1.15-0.1c-0.68-0.18-1.45-0.32-2.31-0.41
			c-0.07,0.14-0.11,0.31-0.14,0.51l-2.17,0.14c-0.5,0.27-1.13,0.44-1.9,0.51c-0.68-0.14-1.31-0.43-1.9-0.88l-2.07,0.24l-0.1,0.41
			c-0.29-0.47-0.46-1.03-0.51-1.66v-7.16l0.75-0.37c-0.45-0.54-0.7-1.22-0.75-2.03v-4.99l0.1-0.51l-0.1-9.8l0.37,0.64l0.24,0.61
			l0.54-1.25c0.14-0.77,0.21-1.62,0.24-2.54l0.14-1.93l-0.27-5.97l1.15,0.24l0.14-0.37c-0.07-0.29-0.11-0.63-0.14-1.02h-0.88
			l-0.92-1.42c0,0.75-0.08,1.61-0.24,2.58l-0.14,2.68l-0.24-1.02v-24.49l0.1-0.51l0.14,0.51l0.51,15.02l0.41-0.61
			c0.14-0.7,0.55-1.21,1.25-1.53c0.45-0.45,0.88-0.97,1.29-1.56l0.75,0.92l0.27-2.17c-0.11-0.25-0.2-0.54-0.27-0.88l0.14-0.92
			c0.25,0.27,0.59,0.44,1.02,0.51c0.32-0.5,0.78-0.96,1.39-1.39c-0.02-0.23-0.1-0.44-0.24-0.64c-0.2,0.07-0.37,0.24-0.51,0.51
			c-0.43,0.16-0.94,0.28-1.53,0.37l-0.27-1.25l0.78-3.05l0.75-0.14v2.54l0.41,0.14l0.61-0.37l-0.37-1.29
			c0.59-0.38,1.27-0.68,2.03-0.88c0.66,0.16,1.25,0.5,1.8,1.02c0.38,0.5,0.85,0.96,1.39,1.39c0.41-0.04,0.84-0.12,1.29-0.24
			c-0.07-0.2-0.19-0.34-0.37-0.41h-1.29l-0.51-1.15l1.15-1.53c0.25-0.59,0.46-1.31,0.64-2.17
			C403.74,482.03,403.86,481.23,403.95,480.35z M391.2,525.59l0.24,4.48l1.29-1.66l-0.24-1.02
			C392.19,526.78,391.76,526.18,391.2,525.59z M392.72,502.02v0.88l0.51-0.24C393.19,502.37,393.02,502.16,392.72,502.02z
			 M392.72,507.11v1.02l0.78-0.24C393.32,507.6,393.06,507.34,392.72,507.11z M393.88,524.71c-0.29,0.2-0.55,0.5-0.78,0.88h1.29
			C394.36,525.28,394.19,524.98,393.88,524.71z M393.74,564.36l-0.37,1.15h0.51c0.11-0.09,0.19-0.23,0.24-0.41
			C394.05,564.83,393.92,564.58,393.74,564.36z M393.74,562.19l-0.24,1.02C393.66,562.89,393.74,562.55,393.74,562.19z
			 M394.25,499.48l0.51,2.78c-0.07,0.41-0.19,0.84-0.37,1.29c0.16,0.32,0.42,0.53,0.78,0.64c0.16-0.34,0.28-0.72,0.37-1.15
			l-0.37-2.92C394.92,499.85,394.61,499.64,394.25,499.48z M394.25,507.52l0.27,1.39l0.64-0.51c0.18-0.25,0.35-0.54,0.51-0.88
			H394.25z M394.52,513.35l-0.27,0.92l0.37-0.14l0.27-0.64L394.52,513.35z M394.25,516.16l0.14,1.66c0.07,0.29,0.19,0.51,0.37,0.64
			l0.27-1.53C394.89,516.6,394.63,516.35,394.25,516.16z M394.25,531.46c0.11,0.29,0.33,0.51,0.64,0.64
			C394.8,531.81,394.59,531.59,394.25,531.46z M394.25,547.64c0.09,0.36,0.26,0.7,0.51,1.02l0.14-1.02H394.25z M394.39,511.21
			l0.24,1.25l0.92-0.14l0.14-0.88L394.39,511.21z M396.69,503.68l-0.27,2.03l-0.51,0.14l-1.39-0.14c0.27,0.5,0.73,0.75,1.39,0.75
			c0.23,0.52,0.4,1.07,0.51,1.66c0.14,0.34,0.4,0.6,0.78,0.78v-0.64l0.61-4.58H396.69z M394.76,497.04v-0.24h-0.14L394.76,497.04z
			 M394.89,540.01l0.14,1.29l1.25-0.27C396.01,540.53,395.55,540.19,394.89,540.01z M395.03,570.97c0.32,0.11,0.57,0.33,0.75,0.64
			h-0.88L395.03,570.97z M396.79,527.76l-0.37,1.29c0.09,0.18,0.26,0.35,0.51,0.51c0.14-0.56,0.23-1.16,0.27-1.8H396.79z
			 M396.79,518.84l-0.24,1.53l0.14,3.46c0.04,0.43,0.17,0.89,0.37,1.39l0.14-3.32v-1.76C397.11,519.72,396.97,519.3,396.79,518.84z
			 M396.69,499.1l0.1,1.76c0.04,0.16,0.14,0.28,0.27,0.37v-2.03L396.69,499.1z M396.69,510.7l0.1,7.26l0.27-0.41l0.37-3.7l-0.14-1.9
			C397.19,511.51,396.99,511.09,396.69,510.7z M396.79,535.02c-0.07,0.59-0.1,1.27-0.1,2.03l0.1,1.15l0.64-0.1l0.14-0.51l-0.14-1.29
			C397.3,535.88,397.09,535.45,396.79,535.02z M396.79,496.93v0.51l0.51-0.27L396.79,496.93z M396.79,566.63v0.78l0.41-0.64
			L396.79,566.63z M397.2,556.83c0.09,0.52,0.29,0.98,0.61,1.39v-1.25L397.2,556.83z M397.3,545.87v2.92l0.27,1.66l0.51-0.37
			c0.16-0.72,0.24-1.54,0.24-2.44C398.21,547,397.87,546.42,397.3,545.87z M397.57,530.07l-0.14,0.75l0.14,0.27l0.75-0.27l0.41-0.75
			H397.57z M397.44,562.42l0.27,3.19l0.1-1.76v-1.15C397.74,562.56,397.62,562.47,397.44,562.42z M398.32,491.44
			c-0.11,0.29-0.19,0.63-0.24,1.02c0.07,0.14,0.19,0.23,0.37,0.27l0.14-0.92L398.32,491.44z M399.24,495.51l-0.37,1.02l0.51-0.1
			l0.37-0.92H399.24z M399.98,481.37l0.14,0.88c-0.38-0.02-0.77-0.1-1.15-0.24L399.98,481.37z M398.96,570.83l1.29,0.14
			c-0.02,0.18-0.11,0.35-0.27,0.51l-0.75,0.14C399.1,571.41,399.01,571.15,398.96,570.83z M399.47,480.35h0.78l-0.64,0.37
			L399.47,480.35z M399.88,549.43l-0.14,0.88l0.14,0.27l0.75-0.27l0.27-0.75L399.88,549.43z M399.88,503.82
			c0.02,0.5,0.32,0.79,0.88,0.88C400.58,504.32,400.29,504.02,399.88,503.82z M402.8,550.45c-0.32,0.45-0.7,0.88-1.15,1.29
			c-0.43,0.25-0.81,0.59-1.15,1.02l-0.51,1.76l-0.1,1.66l0.37,0.14l0.37-1.8l0.88-1.39l1.56-1.53
			C403.02,551.24,402.93,550.86,402.8,550.45z M400.25,557.84c0.02,0.54,0.32,0.84,0.88,0.88v-0.88H400.25z M400.39,520.64
			c0.02,0.25,0.15,0.45,0.37,0.61C400.74,521,400.61,520.8,400.39,520.64z M400.39,560.02l0.24,1.39l1.02-0.1l0.14-0.92
			L400.39,560.02z M400.49,493.1c0.07,0.23,0.24,0.4,0.51,0.51C400.91,493.43,400.74,493.26,400.49,493.1z M401,489.64l-0.37,0.51
			C400.85,490.06,400.98,489.89,401,489.64z M400.63,537.6c0.09,0.2,0.26,0.33,0.51,0.37L400.63,537.6z M401.14,563.2l-0.37,0.24
			l0.24,1.66c0.25,0.54,0.59,1.05,1.02,1.53c0-0.54-0.08-1.09-0.24-1.63l-0.14-1.8H401.14z M400.9,513.35
			c0.02,0.54,0.27,0.85,0.75,0.92l0.14-0.92H400.9z M402.15,547.4c-0.34,0.11-0.63,0.33-0.88,0.64h1.29
			C402.51,547.77,402.38,547.56,402.15,547.4z M401.78,483.03l0.51,0.24l-0.51,0.54l-0.14-0.54L401.78,483.03z M402.02,501.14
			l-0.1,0.75l1.02-0.14C402.71,501.48,402.4,501.28,402.02,501.14z M402.29,493.24c0.16,0.5,0.54,0.84,1.15,1.02
			c0.54-0.14,1.1-0.35,1.66-0.64c-0.05-0.11-0.14-0.2-0.27-0.27l-0.75,0.14l-0.27,0.37L402.29,493.24z M402.56,570.22
			c0.63,0.23,0.97,0.69,1.02,1.39h-1.29L402.56,570.22z M402.66,505.34c0.09,0.41,0.23,0.83,0.41,1.25l0.61-0.24
			C403.63,505.8,403.29,505.46,402.66,505.34z M402.8,519.62c0.11,0.25,0.33,0.42,0.64,0.51
			C403.33,519.88,403.11,519.71,402.8,519.62z M402.93,489.13c0.2,0.29,0.5,0.46,0.88,0.51
			C403.57,489.44,403.27,489.27,402.93,489.13z M403.07,528.03l0.1,0.75l0.78,0.14l0.14-1.15h-0.78L403.07,528.03z M403.17,525.73
			c0.11,0.36,0.33,0.66,0.64,0.88v-0.88H403.17z M403.31,510.7l0.27,3.8h0.61l0.14-0.51l-0.14-1.25l-0.1-0.41l-0.14-1.76l-0.37-0.14
			L403.31,510.7z M403.95,497.44l0.14,0.61l0.37-0.61H403.95z M404.19,515.79l-0.1,1.53c0.02,0.16,0.1,0.28,0.24,0.37l0.51-0.37
			l0.51-1.15C405,515.98,404.62,515.86,404.19,515.79z M404.19,530.44l-0.1,0.88h0.61C404.65,530.98,404.48,530.69,404.19,530.44z
			 M405.1,535.66l-0.14,0.37l0.24,0.27l0.27-0.51L405.1,535.66z M404.97,537.6c0.04,0.54,0.21,1.09,0.51,1.63v-1.63H404.97z
			 M405.1,501.51v1.8l0.51-0.27c0.11-0.34,0.19-0.72,0.24-1.15L405.1,501.51z M405.1,545.36v0.88l0.51-0.14l1.25,0.14l0.14-0.88
			H405.1z M406.87,548.93l-1.15,1.39l-0.51,0.51l0.41,1.02l1.39-0.24L406.87,548.93z M405.85,561.17v0.75l0.27-0.61L405.85,561.17z
			 M406.12,491.81l-0.14,0.78l0.37-0.27l0.41-0.51H406.12z M406.49,493.98c0.02,0.54,0.32,0.84,0.88,0.88
			C407.19,494.5,406.9,494.21,406.49,493.98z M406.49,527.76l0.64,1.93c0.34,0.41,0.76,0.78,1.25,1.12l-0.1-1.9l-0.14-0.37
			C407.66,528.23,407.1,527.97,406.49,527.76z M406.77,508.91l-0.14,1.25l1.15-0.1C407.67,509.54,407.33,509.16,406.77,508.91z
			 M408.16,484.93c-0.43,0.25-0.89,0.46-1.39,0.64l1.12,2.54v1.15l-0.1,0.27l0.1,0.1c0.34-0.2,0.64-0.5,0.92-0.88l0.24-1.66
			c-0.29-0.25-0.59-0.54-0.88-0.88c0.02-0.36,0.1-0.75,0.24-1.15L408.16,484.93z M407.14,501.38l0.51,0.37
			C407.53,501.57,407.36,501.44,407.14,501.38z M407.14,570.83c0.43,0.16,0.68,0.51,0.75,1.05
			C407.52,571.68,407.27,571.33,407.14,570.83z M407.88,547.03l-0.37,0.51c0.16,0.18,0.37,0.35,0.64,0.51l0.24-0.78L407.88,547.03z
			 M408.39,532.99c-0.47,0.02-0.72,0.24-0.75,0.64h0.88v-0.51L408.39,532.99z M407.65,544.45v0.78l0.75-0.14
			C408.35,544.69,408.1,544.47,407.65,544.45z M408.16,490.8l-0.37,1.15l0.24,0.37c0.32,0.41,0.61,0.88,0.88,1.42v3.05l0.78-0.51
			l0.78-3.46c-0.61-0.04-1.09-0.29-1.42-0.75C408.79,491.63,408.49,491.2,408.16,490.8z M407.88,535.53
			c0.09,0.36,0.31,0.62,0.64,0.78l0.14-0.64L407.88,535.53z M408.02,541.67c0.04,0.39,0.21,0.77,0.51,1.15v-1.15H408.02z
			 M408.29,518.84v0.88l0.51-0.37l0.24-0.51H408.29z M409.68,537.6c-0.2,0.61-0.63,1.07-1.29,1.39c0.41,0.32,0.88,0.61,1.42,0.88
			c0.34-0.41,0.76-0.82,1.25-1.25C410.69,538.21,410.22,537.87,409.68,537.6z M408.53,515.01c0.07,0.18,0.19,0.27,0.37,0.27
			C408.83,515.15,408.71,515.06,408.53,515.01z M409.68,555.03c-0.34,0.2-0.63,0.46-0.88,0.78c0.38,0.25,0.8,0.42,1.25,0.51
			c0.32-0.2,0.58-0.5,0.78-0.88C410.47,555.26,410.09,555.12,409.68,555.03z M409.41,563.58l-0.61,0.14l0.1,1.39l0.51-0.1l0.78-0.41
			l-0.14-1.02H409.41z M408.9,497.17v1.93l0.51,3.29c0.34,0.23,0.72,0.35,1.15,0.37l0.14-1.25l-0.14-0.37
			c-0.2-0.43-0.37-0.9-0.51-1.42l-0.1-1.76C409.66,497.66,409.31,497.4,408.9,497.17z M409.55,546.01l0.27,1.25l0.88-0.14
			C410.61,546.52,410.22,546.14,409.55,546.01z M409.68,513.35c0.16,0.5,0.5,0.76,1.02,0.78l0.14-0.78H409.68z M410.46,558.49
			l-0.41,0.37l0.41,0.88l0.1-1.02v-0.24H410.46z M410.19,508.53v0.88h0.64C410.7,509.1,410.48,508.8,410.19,508.53z M410.19,521.66
			c0.16,0.18,0.37,0.31,0.64,0.37C410.68,521.83,410.46,521.7,410.19,521.66z M410.19,524.71c0.07,0.54,0.41,0.88,1.02,1.02
			C411.14,525.21,410.8,524.87,410.19,524.71z M410.19,527.25l0.14,2.03c0.04,0.47,0.17,0.95,0.37,1.42l0.14-2.07l-0.14-1.25
			L410.19,527.25z M410.19,532.24l0.14,1.25l1.15-0.14c0.18,0.57,0.55,0.95,1.12,1.15c0-0.68-0.34-1.14-1.02-1.39L410.19,532.24z
			 M410.19,535.02v0.92h0.64C410.7,535.6,410.48,535.29,410.19,535.02z M410.33,566.02l-0.14,0.75h0.37
			C410.54,566.52,410.46,566.27,410.33,566.02z M411.85,530.2c0.04,0.39,0.21,0.76,0.51,1.12
			C412.29,530.94,412.12,530.57,411.85,530.2z M412.36,527.9l-0.14,0.75l0.64-0.1C412.8,528.25,412.63,528.03,412.36,527.9z
			 M413.24,521.9c0.07,0.18,0.2,0.27,0.41,0.27L413.24,521.9z M418.87,532.61c0,0.25,0.08,0.5,0.24,0.75
			C419.09,533.11,419.01,532.86,418.87,532.61z M418.87,534.65c0.04,0.61,0.38,1.04,1.02,1.29
			C419.75,535.35,419.42,534.92,418.87,534.65z M424.6,535.02l-2.31,1.02l-1.02,0.64l-0.24,0.78l0.37,0.14l1.15-0.27l0.88-0.64
			C424.08,536.34,424.47,535.79,424.6,535.02z M422.3,521.76c0.09,0.34,0.31,0.6,0.64,0.78
			C422.85,522.22,422.64,521.96,422.3,521.76z M430.2,521.76l-0.24,0.54h0.51L430.2,521.76z M430.98,527.76l-0.14,0.78l0.75,0.1
			v-0.88H430.98z M431.49,532.75l-0.14,1.9l0.37,0.14l0.14-1.93L431.49,532.75z M431.59,530.07l-0.1,1.02
			c0.02,0.11,0.1,0.19,0.24,0.24c0.07-0.29,0.11-0.63,0.14-1.02C431.84,530.24,431.75,530.16,431.59,530.07z M433.15,528.54v0.75
			c0.27-0.2,0.47-0.45,0.61-0.75H433.15z M433.66,486.08c0.04,0.18,0.17,0.31,0.37,0.37C433.96,486.32,433.84,486.2,433.66,486.08z
			 M434.68,524.07v-0.24h-0.14L434.68,524.07z M434.68,538.48l-0.14,0.37h0.24l0.14-0.37H434.68z M435.93,537.6
			c0.11,0.29,0.33,0.5,0.64,0.61C436.48,537.92,436.27,537.71,435.93,537.6z M437.46,487.61v1.66l-0.24,1.39l-0.78,0.92l0.41,0.37
			l0.88,0.14l0.14-0.37v-1.66l0.1-2.31L437.46,487.61z M437.46,540.75c-0.29,0.39-0.54,0.81-0.75,1.29h1.15l0.61-1.29H437.46z
			 M438.48,503.41c-0.14,0.68-0.21,1.45-0.24,2.31h-1.39c0.07,0.54,0.24,1.1,0.51,1.66h1.25l0.27-1.53
			C438.86,505.09,438.72,504.27,438.48,503.41z M437.86,492.73c-0.18,0.57-0.32,1.2-0.41,1.9l0.14,0.37l-0.51,1.29l0.14,0.88
			c0.07,0.68,0.24,1.45,0.51,2.31l0.51,2.17c0.29-0.47,0.46-1.03,0.51-1.66l-0.14-5.22h-0.14
			C438.48,494.09,438.27,493.41,437.86,492.73z M437.59,526.51l-0.37,0.75l0.37,0.14l0.27-0.64
			C437.84,526.63,437.75,526.55,437.59,526.51z M437.73,543.33c0.23,0.32,0.57,0.57,1.02,0.75
			C438.61,543.6,438.27,543.35,437.73,543.33z M439.12,508.91v3.7l0.41,1.53c0.14,0.27,0.34,0.44,0.61,0.51l0.27-1.66v-1.76
			l-0.37-1.56C439.83,509.34,439.53,509.09,439.12,508.91z M439.12,529.7l1.29,7.12v1.66l-0.37,1.25l0.75,0.41
			c0.2-0.29,0.33-0.63,0.37-1.02v-1.66l-0.88-7.39C439.93,529.89,439.55,529.76,439.12,529.7z M439.53,515.52l-0.27,2.17l0.88,7.39
			c0.25-0.2,0.51-0.33,0.78-0.37c0.32,0.52,0.57,1.07,0.75,1.66l2.17,11.6l0.41-0.27l0.51,1.02l0.88,6.27
			c0.45-0.09,0.75-0.39,0.88-0.92l0.14-2.27l-0.88-8.82v-0.75l-1.53,0.1c-0.52-0.27-0.86-0.73-1.02-1.39l-0.14-4.71
			c-0.23-0.52-0.53-1.03-0.92-1.53l-0.75-1.53l-0.51-1.93l-0.64-5.73H439.53z M439.26,552.25v1.02c0.18-0.23,0.31-0.49,0.37-0.78
			L439.26,552.25z M439.76,541.67l0.14,0.51c0.18-0.11,0.35-0.28,0.51-0.51H439.76z M442.68,488.12l-1.63,0.78
			c-0.25,0.54-0.42,1.13-0.51,1.76v1.8l0.1,0.37v1.29l0.92,0.14c0.2,0.57,0.37,1.2,0.51,1.9l0.75,3.83l0.64,1.66
			c0.2-0.36,0.33-0.75,0.37-1.15l-0.37-4.21l-0.37-1.93l-0.78-1.53l-0.51-0.24l0.14-1.53l-0.14-1.42l0.27-0.51l0.88-0.1v-0.78
			L442.68,488.12z M440.54,496.43v3.43l0.37-0.14v-1.9C440.89,497.36,440.77,496.9,440.54,496.43z M440.54,502.77
			c0.07,0.57,0.41,0.87,1.02,0.92C441.43,503.16,441.09,502.86,440.54,502.77z M440.78,526.51c0,0.54,0.12,1.09,0.37,1.63
			C441.15,527.59,441.03,527.05,440.78,526.51z M441.8,507.52v1.25l0.78,0.37l0.1,0.51l-0.1,1.42v0.37
			c-0.09,0.63-0.26,1.31-0.51,2.03c0.45-0.04,0.87-0.26,1.25-0.64l0.27-2.14c0.14-0.59,0.38-1.14,0.75-1.66
			c0.11-0.29,0.2-0.63,0.27-1.02l-0.64-0.51h-1.66l-0.37,0.1L441.8,507.52z M442.31,485.34l-0.24,0.88c0.02,0.11,0.1,0.19,0.24,0.24
			l0.27-0.88L442.31,485.34z M442.82,542.04c-0.41,0.5-0.66,1.13-0.75,1.9l0.1,1.8l0.27,0.37l0.24,1.93l-0.1,0.37l-0.14,1.29
			l2.03,8.14c0.29-0.02,0.59-0.1,0.88-0.24l0.14-2.44l-2.27-8.14l-0.41-2.17c0.2-0.45,0.54-0.93,1.02-1.42
			C443.72,542.84,443.38,542.38,442.82,542.04z M442.95,503.41v1.93l0.14,0.37l0.37,0.64l0.64-0.64c0.23-0.56,0.4-1.16,0.51-1.8
			C444.12,503.72,443.56,503.55,442.95,503.41z M442.95,558.49l0.14,1.66l0.64-0.14v-1.29L442.95,558.49z M443.6,514.91l0.51,5.22
			l-0.14,1.63l-0.37,0.92l0.24,0.37l1.02,2.81c0.16,0.27,0.42,0.44,0.78,0.51c0.29-0.34,0.51-0.72,0.64-1.15l-1.93-9.29
			C444.32,515.43,444.07,515.09,443.6,514.91z M443.97,532.85c0.63,0.36,1.02,0.92,1.15,1.66c-0.05,0.7-0.22,1.42-0.51,2.17
			l-0.51-1.53l-0.27-1.9L443.97,532.85z M444.1,511.82c0,0.54,0.25,0.85,0.75,0.92l0.14-0.92H444.1z M451.87,524.85v1.25h-0.51
			l-4.99,1.66c-0.32,0.11-0.61,0.33-0.88,0.64l-0.37,1.29v1.02h0.64l0.1-1.56l4.99-1.53l0.88-0.75c0.2-0.32,0.37-0.7,0.51-1.15
			l0.14-0.88H451.87z M446,546.75l-0.24,1.8c-0.2,0.45-0.37,0.96-0.51,1.53l0.37,1.53l0.64,1.29l0.51,5.46
			c0.16,0.43,0.37,0.89,0.64,1.39l0.37-1.02l-1.42-10.45C446.35,547.76,446.23,547.25,446,546.75z M445.36,502.26
			c0.23,0.32,0.53,0.53,0.92,0.64C446.16,502.5,445.86,502.28,445.36,502.26z M445.36,559.37v0.78c0.2-0.18,0.34-0.39,0.41-0.64
			L445.36,559.37z M445.77,491.71c0.38,0.18,0.8,0.31,1.25,0.37C446.64,491.9,446.22,491.78,445.77,491.71z M452.89,563.2l0.27,1.15
			v7.77h-6.51c-0.16-0.72-0.25-1.53-0.27-2.41c-0.05-0.63-0.17-1.28-0.37-1.93v-0.75h1.29l0.14,2.92h0.1
			c0.23,0.41,0.57,0.67,1.02,0.78l0.14-0.78l-0.14-0.24v-0.78l-0.1-0.37c-0.16-0.68-0.25-1.45-0.27-2.31
			c0.34-0.47,0.8-0.86,1.39-1.15L452.89,563.2z M446.14,531.59l0.37,0.24C446.44,531.72,446.32,531.64,446.14,531.59z
			 M446.78,508.13l-0.14,1.53c0.18,0.32,0.47,0.53,0.88,0.64l0.14-1.53C447.46,508.48,447.17,508.26,446.78,508.13z M447.29,512.47
			c-0.18,0.5-0.31,1.05-0.37,1.66l0.51,0.14c0.16-0.56,0.28-1.16,0.37-1.8H447.29z M447.53,518.61c0,0.27,0.09,0.57,0.27,0.88v-0.78
			L447.53,518.61z M447.8,521.76c-0.07,0.29-0.11,0.64-0.14,1.05h0.78v-1.05H447.8z M449.84,494.25l-0.51,0.24l-1.39-0.14l0.88,0.41
			c0.5,0.14,1.01,0.35,1.53,0.64C450.28,494.98,450.11,494.59,449.84,494.25z M448.04,524.44v1.42l2.68-0.64l-0.64-0.51
			L448.04,524.44z M448.17,529.15l0.27,1.8l0.24,0.64c0.25-0.02,0.51-0.11,0.78-0.27l0.1-1.12l-0.24-0.41
			C448.99,529.55,448.6,529.33,448.17,529.15z M448.45,547.03l0.1,0.61v-0.51L448.45,547.03z M448.82,536.55l-0.14,0.41l0.14,1.02
			l0.64-0.14l0.1-1.15L448.82,536.55z M449.97,552.11l-0.51,0.24l0.24,1.93c0.02,0.72,0.28,1.4,0.78,2.03
			c0.25-0.75,0.37-1.55,0.37-2.41l-0.14-1.8H449.97z M449.84,520.37v1.02c0,0.14,0.08,0.23,0.24,0.27c0.07-0.29,0.11-0.63,0.14-1.02
			C450.14,520.5,450.02,520.42,449.84,520.37z M451.23,529.15l-0.37,1.05l0.37-0.14l0.41-0.64
			C451.57,529.31,451.43,529.22,451.23,529.15z M450.99,565.75l-0.14,1.39l0.27,0.41c0.29,0.29,0.67,0.54,1.12,0.75l0.14-1.39
			l-0.14-0.37C452.04,566.03,451.62,565.77,450.99,565.75z M451.36,535.8l-0.14,0.64l0.14,0.24l0.37-0.64
			C451.67,535.92,451.54,535.85,451.36,535.8z M451.74,569.58c0.04,0.52,0.31,0.9,0.78,1.15l-0.14-1.15H451.74z"/>
		<path d="M473.75,479.43h25.94c0.61,0.09,1.29,0.14,2.03,0.14l8,0.14l0.41,0.14c0.29,0.36,0.54,0.78,0.75,1.25l0.64,3.83
			L510.75,497c-0.07,0.54-0.32,1.01-0.75,1.39l-11.97,0.37v-2.92l0.92-0.27l0.24,0.78l0.64,0.14l0.14-0.14l-0.27-0.88
			c-0.38-0.29-0.85-0.51-1.39-0.64l-0.64,1.53l-0.37,1.76c-0.36,0.41-0.87,0.62-1.53,0.64l-5.83-0.14l-0.41-0.1
			c-0.59-0.09-1.27-0.14-2.03-0.14l-2.03,0.14c-0.5,0.16-0.79,0.53-0.88,1.12l0.27,1.93c-0.09,0.43-0.31,0.85-0.64,1.25l-1.29,0.88
			l-0.24,1.15c0.07,0.14,0.19,0.23,0.37,0.27c0.43-0.29,0.94-0.51,1.53-0.64l0.14,1.9l-0.51,1.66c-0.59-0.09-1.27-0.14-2.03-0.14
			c-0.36,0.32-0.79,0.61-1.29,0.88c-0.52,0.09-0.86,0.43-1.02,1.02l0.51,0.14l3.05-0.64l1.02,1.15l0.51,1.66v2.17l9.16-0.64
			l0.27,0.14c0.54,0.09,1.13,0.26,1.76,0.51c0.41,0.27,0.79,0.61,1.15,1.02l0.14,1.25l-0.27,0.51l-0.24,1.9
			c0.07,0.52,0.24,1.03,0.51,1.53c0.47-0.04,0.77-0.34,0.88-0.88l-0.27-3.29l0.51-0.27l1.42-0.88l1.76-0.37l1.39-0.64l1.66-0.14
			l0.37,0.14l1.42,0.75c0.5,0.09,0.96,0.35,1.39,0.78l0.14,12.85c-0.09,0.59-0.14,1.27-0.14,2.03v1.12l-0.64,0.41
			c-0.45,0.23-0.96,0.43-1.53,0.61l-1.76,0.41h-2.17l-1.9-0.27l-1.42-0.75l0.27-1.93c0.02-0.56,0.19-1.11,0.51-1.63l0.75-4.34h-1.12
			v0.14c-0.09,0.59-0.14,1.27-0.14,2.03l-0.14,2.03c-0.32,0.34-0.69,0.68-1.12,1.02c-0.18,0.5-0.32,1.05-0.41,1.66l0.27,1.53
			l-0.37,0.1h-10.82c-0.57,0.02-1.12,0.16-1.66,0.41l0.14,6.34l-1.53,0.37l-0.37,1.02l0.37,0.27l1.66,0.1v4.34l0.1,0.37l-0.24,4.07
			l-0.37,1.66l0.51,0.14l1.25-0.27l7.77-0.37l0.37,0.14h1.8l0.24,0.1c0.57,0.09,0.95,0.43,1.15,1.02l0.14,4.21
			c0,0.45,0.08,0.88,0.24,1.29l0.24-6v-0.24l1.93-0.27h1.63l0.41,0.14l5.6-0.14l0.37-0.1l1.39-0.27v0.51h1.39l0.78,20.72H463.2
			l-0.24-1.9v-49.58c0.02-0.52,0.15-1.03,0.37-1.53c0.29,0.36,0.68,0.7,1.15,1.02l0.37-1.66l-1.76,0.14v-7.12
			c0.38,0.07,0.76,0.24,1.12,0.51l0.27,1.9v0.78c0.23-0.2,0.44-0.46,0.64-0.78l-0.14-1.9c-0.11-0.5-0.28-1.01-0.51-1.53
			c-0.41,0.16-0.84,0.37-1.29,0.64c-0.16-0.61-0.24-1.29-0.24-2.03l0.51-0.14l1.25,0.24c0.32,0.36,0.62,0.79,0.92,1.29l0.88,0.51
			l0.24-0.51l0.41-1.8c-0.32-0.36-0.58-0.82-0.78-1.39l-0.14-3.93h-0.1c-0.27,0.41-0.53,0.87-0.78,1.39l0.51,3.19l-0.14,0.51
			l-1.39,0.24v-0.51c-0.02-0.45-0.27-0.7-0.75-0.75c-0.27-0.25-0.49-0.54-0.64-0.88v-2.17l0.24-1.9l-0.24-1.93v-10.28l0.14-0.37
			c0.34-0.23,0.71-0.39,1.12-0.51l0.64,2.03c0.09,0.5,0.31,1.01,0.64,1.53c0.41-0.2,0.79-0.51,1.15-0.92l-0.64-1.02l-0.27-1.25
			l0.14-0.51c0.04-0.61,0.38-1.04,1.02-1.29c0.54,0.16,0.88,0.54,1.02,1.15v1.53l0.37,0.27c0.47-0.25,0.73-0.68,0.78-1.29
			l-0.37-1.53l0.24-1.9c0.38-0.25,0.81-0.42,1.29-0.51v0.51l1.02,3.19l0.75,0.61c-0.16,0.07-0.33,0.2-0.51,0.41l0.64,0.24v-2.78
			l-0.14-0.27l-0.37-1.76l-0.37-1.02l0.61-0.14l0.41-1.02c-0.07-0.18-0.2-0.31-0.41-0.37c-0.43-0.23-0.77-0.61-1.02-1.15l-0.37-1.8
			c0.38-0.34,0.89-0.59,1.53-0.75L473.75,479.43z M462.96,479.71l6.48,0.14l0.27,1.25l-0.14,2.03l0.14,0.27
			c0.18,0.43,0.35,0.94,0.51,1.53h-1.53l0.1-1.8c-0.09-0.66-0.29-1.33-0.61-2.03l-0.51-0.51l-0.27,1.29l0.51,4.17l-0.37,0.27
			l-4.58,2.41V479.71z M463.47,481.1l0.24,1.39l0.51-0.1v-1.15L463.47,481.1z M463.84,483.5l-0.24,1.42l0.37,1.39l1.02-0.14
			l0.24-1.25l-0.1-0.51L463.84,483.5z M470.46,521.93l-0.24,1.53l-2.68,0.75c-0.41,0.07-0.84,0.19-1.29,0.37
			c-0.36,0.09-0.78,0.26-1.25,0.51l-0.88,0.78l-0.41,1.25v0.78l0.51-0.27c-0.05-0.29-0.08-0.63-0.1-1.02l0.37-0.24l1.39-0.27
			l2.41-1.02l1.53-0.24c0.29-0.18,0.55-0.44,0.78-0.78l0.51-1.25C471.01,522.43,470.8,522.13,470.46,521.93z M464.49,515.82
			l-0.27,0.75l0.51-0.14C464.7,516.21,464.62,516.01,464.49,515.82z M465.13,522.17l-0.78,0.64l0.27,0.64
			C464.85,523.07,465.02,522.64,465.13,522.17z M467.68,526.74l-1.93,0.51c-0.27,0.11-0.57,0.28-0.88,0.51h0.78l1.9,0.37l0.37-1.02
			C467.89,526.96,467.81,526.84,467.68,526.74z M465.37,495.71c-0.16,0.84-0.24,1.73-0.24,2.68l0.1,1.53l1.02-0.14
			c0.14-0.07,0.23-0.19,0.27-0.37l-0.27-1.9C466.23,496.83,465.93,496.23,465.37,495.71z M465.5,557.78
			c0.04,0.52,0.34,0.86,0.88,1.02l1.39-0.14l0.51,0.14c-0.38-0.23-0.8-0.39-1.25-0.51L465.5,557.78z M465.88,531.09l-0.14,1.02
			c0.07,0.11,0.2,0.19,0.41,0.24C466.13,531.93,466.04,531.52,465.88,531.09z M466.01,533.73l0.14,1.66v-1.66H466.01z
			 M466.66,521.01l-0.27,1.15l0.27,0.37c0.27,0.34,0.61,0.68,1.02,1.02l0.1-1.76C467.51,521.45,467.13,521.2,466.66,521.01z
			 M466.9,514.4c-0.2,0.27-0.33,0.61-0.37,1.02c0.02,0.18,0.1,0.32,0.24,0.41l0.41-1.02C467.12,514.63,467.03,514.49,466.9,514.4z
			 M467.54,529.8v1.15l0.75-0.14l0.14-1.02H467.54z M468.42,492.05l-0.14,1.63l1.53,10.68v1.15c0.16-0.07,0.29-0.19,0.41-0.37
			c0.02-0.59,0.1-1.19,0.24-1.8c0.18-0.47,0.31-1.03,0.37-1.66l-0.88-1.12l-0.37-1.66l-0.51-5.6
			C468.91,492.9,468.69,492.48,468.42,492.05z M468.29,533.36c0,0.29,0.09,0.59,0.27,0.88v-0.75L468.29,533.36z M468.29,538.72v1.76
			l0.51-0.37l0.41-1.29L468.29,538.72z M468.69,542.52c-0.14,0.39-0.23,0.8-0.27,1.25c0.09,0.39,0.31,0.72,0.64,1.02l0.24-1.39
			C469.21,543.06,469.01,542.76,468.69,542.52z M469.2,561.07c0.29,0.32,0.67,0.49,1.12,0.51
			C469.98,561.35,469.61,561.18,469.2,561.07z M469.71,507.18l-0.27,4.58l0.51,4.44c0.11,0.66,0.2,1.41,0.27,2.27l0.1,1.53
			l0.51,0.14h1.53l0.41,0.64l0.24,4.71c0,0.59,0.17,1.22,0.51,1.9l0.88,1.53l0.64,1.76l0.64,4.34c0.07,0.59,0.19,1.27,0.37,2.03
			c0.29-0.27,0.54-0.61,0.75-1.02l0.14-2.41l-0.51-4.34l-0.51-1.9l-0.24,0.64c-0.32-0.16-0.62-0.37-0.92-0.64
			c-0.18-0.54-0.35-1.22-0.51-2.03l-0.51-1.9c-0.02-0.61-0.15-1.29-0.37-2.03l-0.61-4.34c-0.07-0.59-0.2-1.27-0.41-2.03v-0.64
			c-0.34,0.2-0.68,0.46-1.02,0.78l-0.24-4.71c-0.07-0.59-0.19-1.27-0.37-2.03C470.7,507.73,470.37,507.31,469.71,507.18z
			 M470.59,526.1c-0.32,0.29-0.58,0.68-0.78,1.15l0.41,3.43l1.53,6.1c0.02,0.52,0.27,0.9,0.75,1.15l0.14-0.37l-0.64-4.44l0.14-1.8
			l0.37-1.53l-0.75-1.15l-0.51-1.39C471.12,526.85,470.91,526.46,470.59,526.1z M469.95,550.15v0.64h0.78
			C470.52,550.52,470.26,550.3,469.95,550.15z M470.32,491.91c0.07,0.32,0.24,0.57,0.51,0.75
			C470.78,492.34,470.61,492.1,470.32,491.91z M470.73,494.32l-0.14,2.54l2.27,8l0.51,3.32l-1.12,0.24c0.07,0.57,0.19,1.17,0.37,1.8
			H473c0.57-0.27,0.9-0.78,1.02-1.53l-0.14-2.31h-0.14l-0.24-2.41l0.14-1.39l-0.14-0.92l-1.53-6.21
			C471.85,494.8,471.43,494.41,470.73,494.32z M471.47,515.32c0.25,0.59,0.46,1.3,0.64,2.14c0.07,0.61,0.11,1.29,0.14,2.03h-0.51
			c-0.45-0.54-0.71-1.22-0.78-2.03C471.06,516.8,471.22,516.08,471.47,515.32z M471.47,539.84l-0.24,1.15h0.75
			C471.89,540.61,471.72,540.22,471.47,539.84z M472.36,546.72c-0.38,0.43-0.72,0.94-1.02,1.53l1.02,1.53l0.92-0.27v-1.25
			C473.18,547.64,472.88,547.13,472.36,546.72z M473.51,539.09l-0.64,2.03l-0.88,1.76c-0.2,0.57-0.37,1.24-0.51,2.03
			c0.5,0.25,1.05,0.37,1.66,0.37h1.25v-1.12c-0.47-0.38-0.85-0.89-1.12-1.53l0.37-2.31l0.51-1.25H473.51z M472.36,551.16l-0.1,2.03
			l0.51,4.21l0.51,1.9c0.27,0.43,0.6,0.85,0.98,1.25v2.17l0.14,1.15l-0.88,0.24l-0.14,0.92l0.27,0.1l0.37-0.1
			c0.45-0.32,0.92-0.7,1.39-1.15l0.27-2.03l-0.14-2.17c-0.25-0.47-0.68-0.86-1.29-1.15l-0.61-4.07l-0.51-1.76
			C472.98,552.17,472.72,551.66,472.36,551.16z M472.36,492.05c0.07,0.54,0.2,1.09,0.41,1.63h0.37v-1.63H472.36z M473.88,566.8
			l-0.24,0.78l0.24,0.37l0.27-0.88C474.13,566.96,474.04,566.87,473.88,566.8z M474.66,549.26c0.04,0.54,0.34,0.84,0.88,0.88v-0.88
			H474.66z M475.17,512.26l-0.14,1.63l0.88,7.77c0.02,0.45,0.11,0.92,0.27,1.39c0.41-0.02,0.66-0.23,0.75-0.61l-0.14-1.66
			l-1.12-5.73l0.1-1.66l0.78-1.02L475.17,512.26z M475.03,524.47c0,0.54,0.12,1.09,0.37,1.63
			C475.41,525.56,475.28,525.02,475.03,524.47z M475.41,553.2l-0.24,1.9c0.07,0.5,0.24,1.01,0.51,1.53l-0.14-1.9l0.14-1.15
			C475.63,553.41,475.54,553.29,475.41,553.2z M476.05,537.94l-0.27,1.66v1.9l0.27,1.66c0.2,0.36,0.5,0.66,0.88,0.88l0.14-1.66v-1.9
			l-0.27-1.53C476.62,538.57,476.37,538.23,476.05,537.94z M475.92,510.23c0.07,0.23,0.24,0.4,0.51,0.51
			C476.33,510.53,476.16,510.36,475.92,510.23z M476.7,498.77l-0.27,0.37c0.07,0.29,0.19,0.55,0.37,0.78l0.14-0.88
			C476.91,498.92,476.83,498.83,476.7,498.77z M477.58,545.43c-0.14,0.86-0.23,1.83-0.27,2.92l0.14,1.15
			c0.23-0.34,0.4-0.72,0.51-1.15c0.18-0.59,0.64-1.17,1.39-1.76v-1.02L477.58,545.43z M477.44,508.19l0.14,1.02l0.88-0.27
			C478.21,508.65,477.87,508.4,477.44,508.19z M477.71,551.16c-0.18,0.75-0.27,1.59-0.27,2.54l0.27,5.32c0,0.68,0.29,1.02,0.88,1.02
			c0.02-0.63,0.1-1.39,0.24-2.27l0.27-1.15l-0.14-1.25l-0.64-2.17C478.28,552.52,478.08,551.84,477.71,551.16z M478.22,510.33
			l-0.51,1.15l0.37,0.27l0.75-0.27l0.64-0.88L478.22,510.33z M478.32,561.2l-0.1,1.53l0.1,2.68c0.02,0.11,0.11,0.19,0.27,0.24
			l0.37-2.78c0.18-0.36,0.44-0.7,0.78-1.02l0.51-0.37h-0.64L478.32,561.2z M478.32,525.22v0.88l0.51-0.1l0.14-0.78H478.32z
			 M479.61,514.16c0.11,0.29,0.33,0.51,0.64,0.64C480.14,514.49,479.93,514.28,479.61,514.16z M481.65,513.38l-0.27,0.64
			C481.56,513.85,481.65,513.63,481.65,513.38z M482.39,566.8c-0.14,0.09-0.22,0.22-0.24,0.37h0.37v-0.37H482.39z M482.8,523.18
			l-0.14,0.88c0.16-0.02,0.28-0.1,0.37-0.24C483.04,523.6,482.96,523.39,482.8,523.18z M483.68,557.27l-0.51,0.14
			c0.07,0.2,0.24,0.37,0.51,0.51l0.37-0.51L483.68,557.27z M483.55,562.59l-0.24,0.78h1.12l0.14-0.78H483.55z M483.55,488.73
			c0.04,0.39,0.17,0.81,0.37,1.29l1.42,0.1c-0.27-0.27-0.61-0.47-1.02-0.61C484.15,489.24,483.89,488.98,483.55,488.73z
			 M483.68,560.18v0.88c0.23-0.25,0.4-0.54,0.51-0.88H483.68z M484.56,517.72l-0.14,1.76c0.11,0.14,0.28,0.23,0.51,0.27v-1.9
			L484.56,517.72z M484.43,521.15c0.02,0.41,0.16,0.79,0.41,1.15l0.1-1.15H484.43z M484.84,523.96v0.88l0.61-0.14
			C485.33,524.39,485.13,524.15,484.84,523.96z M486.23,486.45l-0.37,1.25v0.64l0.24-0.14l0.37-1.76H486.23z M485.85,530.31
			l0.1,0.64l0.51-0.64H485.85z M486.74,559.54c0.14,0.66,0.43,1.25,0.88,1.8l0.14-0.88l-0.14-0.27l-0.14-0.37L486.74,559.54z
			 M486.87,555.98c0.14,0.16,0.31,0.25,0.51,0.27L486.87,555.98z M488.26,563.61c0.18,0.25,0.43,0.42,0.75,0.51
			C488.85,563.89,488.6,563.72,488.26,563.61z M488.77,480.86l0.37,0.1v-0.37h-0.14L488.77,480.86z M489.14,554.45v1.66l0.27-0.64
			c0.27-0.29,0.47-0.63,0.61-1.02H489.14z M489.65,558.93c-0.23,0.27-0.4,0.61-0.51,1.02c0.02,0.18,0.11,0.31,0.27,0.37
			c0.2-0.34,0.41-0.72,0.61-1.15C489.96,559.05,489.83,558.98,489.65,558.93z M489.79,495.71l-0.37,0.64h0.61
			C490.03,496.13,489.95,495.92,489.79,495.71z M489.92,486.45l-0.27,1.39h0.51C490.14,487.39,490.06,486.93,489.92,486.45z
			 M494.87,514.67c-0.7,0.23-1.38,0.61-2.03,1.15l-1.02,0.61l-0.14,0.78l0.37,0.14c0.66-0.23,1.33-0.56,2.03-1.02
			C494.59,515.9,494.85,515.35,494.87,514.67z M492.98,493.31l-0.27,0.51h0.37L492.98,493.31z M494.09,494.97l-1.12,0.75l-0.14,0.51
			l0.24,0.14l0.51-0.14c0.41-0.07,0.79-0.28,1.15-0.64C494.74,495.22,494.52,495.01,494.09,494.97z M492.98,561.47
			c0.11,0.63,0.49,1.18,1.12,1.63C493.8,562.54,493.43,561.99,492.98,561.47z M493.59,529.66l-0.1,1.29h0.88
			C494.34,530.45,494.08,530.02,493.59,529.66z M493.72,483.4c0.18,0.36,0.47,0.66,0.88,0.88
			C494.58,483.76,494.29,483.47,493.72,483.4z M495.25,557.27c-0.34,0.25-0.68,0.59-1.02,1.02l-0.24,0.88l0.61-0.14
			c0.36-0.25,0.7-0.54,1.02-0.88l0.27-0.88H495.25z M499.45,486.83l-2.31,2.03c-0.38,0.25-0.76,0.59-1.12,1.02
			c0.02,0.2,0.15,0.33,0.37,0.37l0.37-0.51l1.53,0.27l1.02,0.37c0.14-0.07,0.21-0.19,0.24-0.37l0.41-3.05L499.45,486.83z
			 M496.13,485.54l0.14,0.51l0.51-0.1l0.27-0.92h-0.64L496.13,485.54z M497.55,492.42c-0.52,0.36-0.83,0.9-0.92,1.63h1.39
			C497.92,493.51,497.76,492.97,497.55,492.42z M498.03,521.66c-0.32,0.34-0.57,0.77-0.75,1.29c0.07,0.47,0.24,0.94,0.51,1.39
			l0.51-1.39l0.14-1.02C498.37,521.79,498.23,521.7,498.03,521.66z M497.28,527.02c0.02,0.47,0.27,0.77,0.75,0.88
			C498.03,527.4,497.78,527.11,497.28,527.02z M497.42,559.81l-0.14,1.15l0.27,0.37l0.37-0.14l0.24-0.88l-0.14-0.37L497.42,559.81z
			 M500.2,521.79l-0.24,0.75h1.12C500.99,522.13,500.7,521.88,500.2,521.79z M500.71,519.49c0.11,0.25,0.33,0.42,0.64,0.51
			C501.24,519.77,501.02,519.6,500.71,519.49z M502,516.57l-0.78,0.64c0.07,0.18,0.19,0.31,0.37,0.37c0.25-0.16,0.46-0.37,0.64-0.64
			l0.14-0.37H502z M502,556.39l-0.27,0.51l0.51-0.14L502,556.39z M504.27,525.22l-1.15,1.02c-0.29,0.2-0.5,0.5-0.61,0.88
			c0.45-0.14,0.92-0.34,1.39-0.61C504.1,526.12,504.22,525.69,504.27,525.22z M502.61,560.32c0.11,0.36,0.33,0.66,0.64,0.88v-0.88
			H502.61z M505.15,554.96l-0.75,0.14l-0.14,1.02c0.07,0.14,0.19,0.23,0.37,0.27C504.91,555.96,505.08,555.48,505.15,554.96z
			 M504.4,524.85l0.14,0.37v-0.37H504.4z M504.64,563.61l0.14,0.51l1.15-0.24L504.64,563.61z M504.78,561.34
			c0.07,0.45,0.24,0.87,0.51,1.25l0.27-1.25H504.78z M505.93,517.08c-0.29,0.32-0.51,0.7-0.64,1.15c0,0.45,0.09,0.92,0.27,1.39
			l0.24-1.53l0.37-0.24v-0.64L505.93,517.08z M505.93,480.59l0.14,0.51l0.37-0.64l-0.37-0.1L505.93,480.59z M505.93,482.49
			l0.14,3.56h0.51l0.1-0.1v-1.8l0.14-0.37v-1.15L505.93,482.49z M506.17,487.71l-0.1,0.88l0.88-0.1l0.14-0.78H506.17z
			 M506.17,494.83l0.14,0.64l0.64-0.27L506.17,494.83z M507.08,528.27c-0.16,0.16-0.25,0.37-0.27,0.64
			C506.97,528.71,507.06,528.5,507.08,528.27z M506.81,557v0.92l0.37-0.64C507.12,557.13,506.99,557.04,506.81,557z M507.32,559.17
			v1.02l0.88-0.24l0.27-0.78H507.32z M508.98,553.57l-0.14,1.8l0.37-0.14l0.14-1.66H508.98z M510.37,567.82v0.88h0.64
			C510.9,568.36,510.69,568.07,510.37,567.82z"/>
		<path d="M535.78,480.28h18.82l9.43,1.83l4.1,1.53l3.63,2.07l2.58,3.09l0.64,1.32c0.18,0.39,0.44,0.72,0.78,1.02l0.64,1.15
			l0.92,2.98l0.1,1.66c0.25,0.36,0.46,0.79,0.64,1.29l0.27,4.78h-0.64c0.04,0.43,0.14,0.86,0.27,1.29l0.37,7.09l-0.51,3.36
			l-0.92,2.85l-1.42,2.31l-1.8,1.93c-0.34,0.29-0.64,0.64-0.92,1.05l-0.75,1.02l-1.05,0.92l-2.85,0.92h-1.66v0.1
			c0.02,0.45,0.15,0.93,0.37,1.42l5.05,2.58l1.8,1.93l0.51,1.32c0.32,0.2,0.58,0.5,0.78,0.88v1.93c0.14,0.41,0.35,0.79,0.64,1.15
			l0.14,1.42h-0.51l-0.92,0.92c-0.29,0.09-0.51,0.31-0.64,0.64l1.02,0.27l1.19-1.19l0.51,14.21l-1.7,1.15l0.54,0.41l1.29,0.64
			c-0.02,0.39-0.11,0.81-0.27,1.29l-1.15,0.75l-1.8,0.78c-0.14-0.2-0.23-0.46-0.27-0.78l0.27-1.66v-1.8
			c-0.07-0.47-0.37-0.78-0.92-0.92l-3.36,0.37l-0.24,0.92c0.04,0.14,0.17,0.23,0.37,0.27l1.56,0.24l0.64,0.54l-0.54,0.24l-0.24,0.27
			l-0.14-0.14c-0.29-0.07-0.63-0.11-1.02-0.14l-1.83-0.14l-0.78-0.37c-0.16,0.02-0.28,0.11-0.37,0.27v1.93l-0.37,1.39l-0.54,0.64
			l-0.24-0.64c-0.11-0.43-0.2-0.94-0.27-1.53l-0.24-1.7l-0.64-0.24l-1.19,1.53l-2.17,1.56l-0.14,1.8c0.34,0.25,0.72,0.46,1.15,0.64
			c0.25,0.39,0.42,0.81,0.51,1.29l-0.64,1.05c0.09,0.43,0.27,0.86,0.54,1.29c0.52-0.02,0.9-0.28,1.15-0.78
			c0.45-0.18,0.93-0.31,1.42-0.37c0.45-0.02,0.88-0.16,1.29-0.41l0.51-1.42l1.02,0.78l1.56-0.37l0.64,1.29l1.15-0.41l0.64,3.12
			l0.92,0.14c0.09-0.04,0.17-0.14,0.24-0.27l-0.1-0.14c-0.36-0.25-0.67-0.59-0.92-1.02c0.41-0.25,0.67-0.64,0.78-1.19
			c0.43,0.05,0.72,0.31,0.88,0.78c0.34-0.02,0.69-0.15,1.05-0.37l-0.27-1.7l-0.88-0.88c0-0.47,0.21-0.82,0.64-1.05
			c0.52,0.14,0.81,0.49,0.88,1.05l1.42,0.51l0.27,1.56l1.42,4.24c0.09,0.47,0.31,0.9,0.64,1.29l0.88,2.85l1.05,0.78
			c-0.47,0.11-1,0.19-1.56,0.24h-17.81c-1.11-2.62-1.84-4.08-2.2-4.37l-0.1-1.8c-0.11-0.45-0.33-0.88-0.64-1.29l-0.14-1.7
			l-0.64-1.29c0.29-0.25,0.59-0.54,0.88-0.88l0.27-1.05c-0.02-0.11-0.11-0.19-0.27-0.24l-0.24,0.75c-0.25-0.02-0.46-0.1-0.64-0.24
			l0.14-1.83l-0.14-9.26c0.02-0.43,0.1-0.87,0.24-1.32l0.14-1.66l-0.37-1.56c-0.16-0.41-0.42-0.79-0.78-1.15l-0.27-1.66
			c-0.05-0.45-0.17-0.93-0.37-1.42c-0.18-0.47-0.31-0.99-0.37-1.56c-0.14-0.41-0.36-0.79-0.68-1.15l-1.02-0.92
			c-0.2-0.34-0.46-0.68-0.78-1.02l-1.15,0.14l-0.14-0.54l-0.37-0.1l-8,0.75c-0.45,0.18-0.88,0.4-1.29,0.64l-0.27,1.56l-0.37,34.19
			h-20.89l0.1-0.88v-1.83c0.2-0.43,0.51-0.77,0.92-1.02l-0.14-0.92l-0.37,0.41l-0.51-1.15v-15.13l0.1-1.66v-1.93l0.14-1.7
			c0.14-0.41,0.35-0.84,0.64-1.29l1.19-0.75c0.29-0.29,0.54-0.64,0.75-1.05c-0.11-0.18-0.28-0.31-0.51-0.37l-0.24,0.64
			c-0.41,0.27-0.85,0.49-1.32,0.64l-0.1,0.88c-0.25,0-0.46-0.08-0.64-0.24v-33.81c0-0.52,0.08-1.09,0.24-1.7l-0.14-1.15l-0.1-26.69
			c0.29,0.14,0.54,0.35,0.75,0.64c0.29,0.25,0.55,0.59,0.78,1.02c0.25,0.36,0.55,0.71,0.92,1.05l1.8,1.93
			c0.27,0.32,0.53,0.7,0.78,1.15c0.32,0.27,0.62,0.61,0.92,1.02c0.29-0.02,0.59-0.1,0.88-0.24c0.29-0.34,0.55-0.73,0.78-1.19
			l0.41-1.39l-1.42,0.37l-1.19,0.14l-0.24-0.41c-0.05-0.5-0.18-1.01-0.41-1.53l-2.17-1.56l-0.64-1.15l-0.27-0.92h0.92l1.42,0.41
			l1.53-0.41h7.22c0.43,0.27,0.64,0.7,0.64,1.29l0.27,1.56c0.29,0.29,0.51,0.68,0.64,1.15l-0.27,5.29
			c-0.41,0.09-0.84,0.26-1.29,0.51c-0.36,0.02-0.7,0.16-1.02,0.41l-0.51,1.42c0.09,0.32,0.31,0.57,0.64,0.75l0.37-1.53
			c0.43-0.07,0.9-0.24,1.42-0.51h1.29v0.51c0.34,0.32,0.64,0.7,0.92,1.15l0.37,1.42c-0.07,0.39-0.28,0.64-0.64,0.78
			c-0.45,0.14-0.88,0.35-1.29,0.64c-0.18,0.39-0.44,0.72-0.78,1.02l-1.56,0.41c0.16-0.43,0.42-0.82,0.78-1.19h0.51l-1.66-1.53
			c-0.34,0-0.68,0.08-1.02,0.24l-0.78,1.05c0.02,0.43,0.15,0.9,0.37,1.42c0.29,0.18,0.51,0.43,0.64,0.75l2.07,1.7l1.7,2.2
			c0.25,0.29,0.54,0.59,0.88,0.88c0.16,0.39,0.42,0.77,0.78,1.15c0.41,0.2,0.75,0.46,1.02,0.78c0.18,0.43,0.44,0.83,0.78,1.19
			l0.27,1.53l-1.42,0.51h-3.87c-0.27-0.23-0.58-0.35-0.92-0.37l-1.53,0.37l-0.41,0.78l1.42,1.05l-0.37,0.88
			c0,0.11,0.08,0.2,0.24,0.27c0.41-0.16,0.88-0.25,1.42-0.27c0.14,0.43,0.35,0.83,0.64,1.19l0.37,0.24l0.78-0.51
			c0.36-0.18,0.79-0.31,1.29-0.37l-0.37,1.93l0.64-0.27c0.38,0.23,0.72,0.53,1.02,0.92l0.41,0.64l-0.64,0.24l-0.27,0.27v0.88
			l0.14-0.1c0.43-0.07,0.86-0.25,1.29-0.54l0.51-0.64c0.04,0.2,0.18,0.39,0.41,0.54c0.38-0.18,0.68-0.49,0.88-0.92l-0.24-0.78
			l1.29-0.64c0.16,0.41,0.24,0.88,0.24,1.42c-0.2,0.41-0.46,0.79-0.78,1.15l-1.29,0.51l-0.51,1.42l0.41,1.42
			c0.47,0.05,0.98,0.18,1.53,0.41l1.56,2.17c0.25,0.34,0.55,0.64,0.92,0.92c0.45,0.11,0.88,0.33,1.29,0.64
			c0.11,0.39,0.36,0.72,0.75,1.02l1.56-0.37l0.37,1.56l1.19,0.64c0.16-0.41,0.24-0.84,0.24-1.29l-0.51-1.29
			c0.27-0.29,0.62-0.55,1.05-0.78l1.29-0.54c0.41-0.18,0.79-0.43,1.15-0.75c0.32-0.25,0.7-0.46,1.15-0.64l1.15-0.14l0.41-0.14v0.27
			l0.88,2.81l-1.53,1.05l-0.92-0.27c-0.29-0.07-0.63-0.11-1.02-0.14l-1.7,2.85l-1.15,0.64l1.15,0.41c0.38-0.14,0.73-0.36,1.05-0.68
			c0.2,0.36,0.5,0.59,0.88,0.68l0.41-0.27l-0.41-0.78l0.14-1.15l0.51,0.14c0.34,0.07,0.6,0.24,0.78,0.51
			c-0.27,0.23-0.44,0.52-0.51,0.88c0.18,0.45,0.31,0.93,0.37,1.42l-0.78,1.05l-0.1,0.88c0.02,0.16,0.1,0.25,0.24,0.27l1.56-0.14
			c0.18-0.18,0.31-0.39,0.37-0.64c0.18-0.41,0.44-0.79,0.78-1.15c0.43,0.16,0.81,0.42,1.15,0.78l0.14,1.66
			c0.09,0.47,0.31,0.9,0.64,1.29c0.43-0.11,0.86-0.28,1.29-0.51l0.14-1.42l-0.27-1.66l0.27-1.56c0.2-0.41,0.46-0.79,0.78-1.15
			l1.02-0.78c0.34-0.29,0.73-0.55,1.19-0.78c0.41-0.14,0.84-0.35,1.29-0.64c0.23-0.41,0.4-0.84,0.51-1.29
			c0.36-0.27,0.79-0.49,1.29-0.64l1.42-0.51c0.38-0.04,0.72-0.21,1.02-0.51c0.09-0.5,0.21-1.02,0.37-1.56l1.19,0.14h0.37v-0.14
			c0.32-0.32,0.53-0.7,0.64-1.15l-1.8-0.14l-0.64,1.15l-1.15,0.78l-1.29,0.51c-0.41,0.11-0.8,0.33-1.19,0.64
			c-0.2,0.43-0.45,0.83-0.75,1.19c-0.41,0.18-0.76,0.43-1.05,0.75l-1.02,0.41c-0.16-0.04-0.29-0.14-0.41-0.27v-1.93l-0.24-1.56
			l-1.19-0.64c0.16-0.25,0.37-0.46,0.64-0.64c0.43-0.07,0.82-0.28,1.19-0.64c0.29-0.29,0.63-0.59,1.02-0.88l1.29-0.54l0.78-1.15
			c0.25-0.29,0.59-0.51,1.02-0.64c0.41,0.11,0.8,0.33,1.19,0.64l-0.27-1.29c-0.29-0.29-0.63-0.55-1.02-0.78
			c-0.47,0.09-0.9,0.31-1.29,0.64l-5.29-0.24c-0.5-0.14-0.93-0.39-1.29-0.78l-0.27-1.56c-0.07-0.29-0.11-0.63-0.14-1.02l0.14-0.41
			c-0.05-0.43-0.22-0.86-0.51-1.29c-0.45-0.16-0.76-0.5-0.92-1.02l-0.92-2.85c-0.11-0.38-0.28-0.81-0.51-1.29l-0.51-1.42l-0.64-1.15
			l-0.92-1.02c-0.45-0.18-0.92-0.32-1.39-0.41c-0.45-0.11-0.88-0.33-1.29-0.64l-0.27-4.88l0.14-0.41l2.81-0.14l-0.24-0.51
			c-0.25-0.32-0.55-0.61-0.92-0.88c-0.45-0.23-0.71-0.62-0.78-1.19l0.92-1.02l0.37-1.42c-0.23,0.41-0.4,0.84-0.51,1.29l-1.42,0.41
			l-1.66,5.39l0.27,0.14c0.2,0.36,0.33,0.79,0.37,1.29l-0.14,1.8c-0.5,0-1.05-0.08-1.66-0.24l-0.78-1.05l-0.78-0.24l0.27,1.53
			c-0.29,0-0.6-0.08-0.92-0.24l-0.92-0.92c-0.23-0.34-0.52-0.63-0.88-0.88l-0.64,1.29c-0.02,0.23-0.11,0.47-0.27,0.75l-0.14-0.64
			c-0.38,0.16-0.81,0.37-1.29,0.64c-0.27,0.18-0.61,0.27-1.02,0.27c-0.32,0.23-0.58,0.53-0.78,0.92l0.14,1.66l0.64,0.14l0.24-0.14
			v-2.07h0.54l1.53-0.24c0.29,0.34,0.51,0.77,0.64,1.29l-0.88,4.75l0.64,1.32c-0.14,0.43-0.4,0.81-0.78,1.15l-1.42,0.37
			c-0.18-0.29-0.31-0.63-0.37-1.02l0.51-0.14c0.52-0.02,0.81-0.33,0.88-0.92c-0.29-0.25-0.63-0.51-1.02-0.78l-0.92-0.88
			c-0.36-0.23-0.7-0.58-1.02-1.05l-0.27-1.53l-0.24-4.41c0.18,0.18,0.4,0.32,0.64,0.41c0.14-0.45,0.47-0.76,1.02-0.92l1.7,0.14
			c-0.34-0.25-0.64-0.55-0.92-0.92c0.16-0.45,0.37-0.93,0.64-1.42c0.32,0.29,0.49,0.69,0.51,1.19v0.51c0.29,0,0.55-0.12,0.78-0.37
			l-0.24-1.7c-0.09-0.41-0.32-0.79-0.68-1.15l-0.75-0.14l-0.14,0.78l-1.05,0.24l-0.24-0.37l-0.41-1.56
			c-0.18-0.38-0.43-0.72-0.75-1.02c-0.41-0.18-0.8-0.44-1.19-0.78c-0.18-0.36-0.43-0.7-0.75-1.02l-0.27-1.7v-3.73L535.78,480.28z
			 M521.57,517.32c0.32,0.63,0.5,1.37,0.54,2.2l-0.78,0.27c0.18,0.29,0.35,0.63,0.51,1.02l0.27,1.7l0.64-0.27
			c0.75-0.07,1.42-0.33,2.03-0.78c-0.61-0.25-1.21-0.63-1.8-1.15l-0.14-0.64c0.34,0.2,0.73,0.33,1.19,0.37l0.24-1.29l-1.15-0.14
			C522.79,518.06,522.27,517.63,521.57,517.32z M521.33,550.25v1.15l0.51-0.27l0.27-0.88H521.33z M521.43,523.25
			c0.11,0.41,0.34,0.76,0.68,1.05c0.25,0.25,0.59,0.42,1.02,0.51l-0.51-1.15C522.28,523.46,521.88,523.32,521.43,523.25z
			 M524.79,553.57l-0.64,1.19l-1.53,0.14l-1.19,0.37c0.04,0.41,0.23,0.79,0.54,1.15c0.23-0.27,0.52-0.53,0.88-0.78l1.29-0.37
			l1.05-0.64C525.13,554.28,524.99,553.93,524.79,553.57z M521.57,489.2c0.16,0.18,0.37,0.31,0.64,0.37
			C522.07,489.39,521.86,489.27,521.57,489.2z M521.57,530.37v0.75l0.41-0.64L521.57,530.37z M522.11,490.49l-0.14,1.29l0.14,0.37
			l0.37,0.14l0.14-0.14l0.14-1.66H522.11z M522.11,509.86l0.88,0.1l0.27-0.1H522.11z M522.35,511.28l-0.24,0.51l0.75-0.14
			L522.35,511.28z M522.21,559.51c0.34,0.77,0.52,1.64,0.54,2.61l-0.64,1.8h0.64l0.51-0.14l0.14-2.31
			C523.28,560.71,522.89,560.05,522.21,559.51z M523.13,547.91l-0.78,1.56l0.41,0.14l0.75-0.27L523.13,547.91z M523.63,535.02
			c0.04,0.39,0.21,0.77,0.51,1.15v-1.15H523.63z M525.97,491.41l-1.7,0.51c-0.16,0.07-0.33,0.19-0.51,0.37l0.27,1.05
			c0.57-0.04,1.16-0.18,1.8-0.41l0.24-1.15v-0.37H525.97z M523.77,516.67c0.02,0.39,0.19,0.69,0.51,0.92l0.14-0.92H523.77z
			 M523.77,557.06c0.04,0.41,0.17,0.79,0.37,1.15C524.14,557.83,524.02,557.45,523.77,557.06z M524.41,498.36
			c0.07,0.18,0.19,0.31,0.37,0.37l1.19-0.24L524.41,498.36z M525.33,539.12l-0.92,1.42l0.27,0.14l1.66-1.56H525.33z M525.33,509.21
			c-0.2,0.45-0.34,0.96-0.41,1.53l0.64-0.24l0.64-0.78L525.33,509.21z M525.43,548.69l-0.24,1.29c0.02,0.18,0.1,0.31,0.24,0.37
			l0.14-1.29v-0.37H525.43z M525.43,529.09c0,0.45,0.14,0.92,0.41,1.39L525.43,529.09z M526.08,543.77l-0.51,3.22h0.64l0.41-1.66
			v-1.42L526.08,543.77z M526.48,553.84l-0.78,0.27c0.04,0.23,0.17,0.44,0.37,0.64l0.64-0.14v-0.64L526.48,553.84z M525.97,518.1
			c0.04,0.34,0.17,0.69,0.37,1.05C526.35,518.79,526.22,518.44,525.97,518.1z M525.97,521.18c0,0.57,0.25,1.01,0.75,1.32
			C526.7,521.99,526.45,521.55,525.97,521.18z M526.62,482.35l-0.41,1.56l0.78-0.14c0.18-0.34,0.31-0.72,0.37-1.15L526.62,482.35z
			 M526.86,556.05l-0.14,2.17l0.41,0.14v-1.93C527.08,556.26,526.99,556.14,526.86,556.05z M526.86,499l0.27,1.29l0.78-0.14V499
			H526.86z M526.99,540.55l0.14,0.41l0.14-0.41H526.99z M527.13,511.28c0.07,0.29,0.24,0.54,0.51,0.75
			C527.55,511.73,527.38,511.48,527.13,511.28z M527.91,509.45l-0.41,0.51h0.78C528.24,509.78,528.11,509.61,527.91,509.45z
			 M527.64,519.89c0,0.18,0.09,0.36,0.27,0.54l0.1-0.54H527.64z M527.77,535.9v0.64c0.2-0.14,0.37-0.35,0.51-0.64H527.77z
			 M528.55,497.34l-0.54,0.37C528.26,497.69,528.44,497.57,528.55,497.34z M531.27,551.77c-0.29,0.29-0.64,0.55-1.05,0.78
			l-1.42,0.14c-0.16,0.34-0.24,0.72-0.24,1.15l0.24,0.14l0.64-0.14h0.27l2.71-0.64l0.24-1.42H531.27z M529.33,562.49
			c-0.32,0.11-0.53,0.33-0.64,0.64C529.09,563.14,529.31,562.92,529.33,562.49z M528.92,527.39l0.27,0.78l0.64-0.27
			C529.57,527.69,529.26,527.53,528.92,527.39z M529.33,493.34l-0.27,1.29h0.64l0.14-1.29H529.33z M530.62,490.22
			c-0.57,0.02-1,0.28-1.29,0.78l0.1,0.51l1.05-0.37l1.42-0.27C531.62,490.46,531.19,490.24,530.62,490.22z M529.84,505.45
			l-0.14,1.19h1.15C530.77,506.02,530.43,505.63,529.84,505.45z M529.7,509.72c0.04,0.18,0.17,0.35,0.37,0.51
			C530.05,510,529.93,509.83,529.7,509.72z M529.7,564.29v0.92l0.51-0.14l0.14-0.78H529.7z M529.98,489.07
			c0.09,0.23,0.26,0.36,0.51,0.41C530.37,489.27,530.2,489.13,529.98,489.07z M530.48,511.14c-0.18,0.18-0.32,0.4-0.41,0.64
			C530.3,511.63,530.44,511.42,530.48,511.14z M530.48,533.83l-0.14,0.92l0.78-0.14C531.02,534.32,530.8,534.06,530.48,533.83z
			 M532.01,543.4v2.58l-0.75,4.14l-0.64,0.37c0.18,0.27,0.43,0.49,0.75,0.64l0.54-1.93c0.27-0.56,0.49-1.16,0.64-1.8l0.1-2.34v-1.66
			H532.01z M530.99,504.29c0.2,0.36,0.51,0.67,0.92,0.92c0.16,0.32,0.41,0.61,0.75,0.88l-0.24-1.53L530.99,504.29z M531.64,554.22
			l-0.27,0.41l0.27,1.02l0.14-1.02v-0.41H531.64z M531.5,563.41l-0.14,0.75h0.41v-0.64L531.5,563.41z M531.77,560.69l0.64,1.42
			l0.51,0.24l1.29-0.14c-0.25-0.36-0.59-0.66-1.02-0.88C532.77,561.09,532.29,560.88,531.77,560.69z M532.28,537.84
			c0,0.52,0.12,1.04,0.37,1.56C532.63,538.88,532.51,538.36,532.28,537.84z M532.42,484.05c0.02,0.2,0.1,0.42,0.24,0.64l0.14-0.64
			H532.42z M532.66,532.17l-0.24,0.78h0.64C533.04,532.64,532.9,532.37,532.66,532.17z M532.42,540.82v0.24h0.14v-0.24H532.42z
			 M532.66,541.06c0.07,0.47,0.2,0.95,0.41,1.42h0.88C533.67,541.94,533.24,541.46,532.66,541.06z M533.06,536.17
			c0.02,0.34,0.15,0.63,0.37,0.88L533.06,536.17z M533.94,504.02l-0.37,0.92l0.27,0.37c0.25,0.32,0.5,0.67,0.75,1.05l0.27-1.05
			l-0.14-0.37C534.72,504.44,534.46,504.14,533.94,504.02z M534.59,553.57c-0.34,0.23-0.63,0.53-0.88,0.92l0.51,1.15
			c0.29-0.16,0.51-0.41,0.64-0.75L534.59,553.57z M535.13,550.99l-0.92,0.14c0.09,0.52,0.31,1,0.64,1.42l0.92-1.56H535.13z
			 M534.49,557.2c0.04,0.2,0.17,0.37,0.37,0.51C534.86,557.48,534.74,557.31,534.49,557.2z M537.3,528.54l-1.8,0.78
			c-0.23,0.43-0.35,0.9-0.37,1.42c0.52-0.23,0.99-0.56,1.42-1.02C536.87,529.41,537.12,529.02,537.3,528.54z M535.27,542.75
			c0.07,0.54,0.41,0.88,1.02,1.02C536.15,543.3,535.81,542.96,535.27,542.75z M536.15,526.37l-0.24,0.75l0.75-0.24
			C536.57,526.68,536.4,526.51,536.15,526.37z M536.15,504.16l-0.14,0.51l0.27,0.14l0.14-0.37L536.15,504.16z M536.56,505.85
			l-0.54,1.29l0.64-0.14c0.25-0.27,0.43-0.61,0.54-1.02L536.56,505.85z M536.28,534.38l0.14,1.39h0.51l0.27-0.51l-0.27-0.88H536.28z
			 M536.28,559.78l0.14,0.51l0.78-0.1c-0.07-0.43-0.33-0.66-0.78-0.68L536.28,559.78z M536.66,482.76v1.42l1.19-0.14
			C537.71,483.39,537.31,482.96,536.66,482.76z M536.93,521.96l-0.27,0.54h0.54L536.93,521.96z M536.66,551.77l0.27,1.8l0.37-0.24
			l0.27-1.56H536.66z M537.2,532.17c0.07,0.18,0.19,0.35,0.37,0.51C537.55,532.45,537.43,532.29,537.2,532.17z M537.95,550.25
			l-0.51,0.1c0.02,0.27,0.16,0.49,0.41,0.64l0.51-0.64L537.95,550.25z M537.57,547.64c0.04,0.77,0.43,1.38,1.15,1.83
			C538.61,548.72,538.23,548.11,537.57,547.64z M539.13,486.62c-0.43,0.11-0.83,0.37-1.19,0.78l-0.1,1.8l0.88-0.27v0.41h0.14
			l-0.14,0.14c-0.32,0.2-0.53,0.5-0.64,0.88l1.56-0.37c0.32-0.27,0.58-0.62,0.78-1.05c-0.29-0.34-0.51-0.72-0.64-1.15
			C539.71,487.35,539.49,486.96,539.13,486.62z M538.22,527.53c0.16,0.18,0.37,0.31,0.64,0.37
			C538.7,527.72,538.49,527.59,538.22,527.53z M538.35,485.2c0.07,0.23,0.24,0.4,0.51,0.51C538.77,485.5,538.6,485.34,538.35,485.2z
			 M538.73,537.97l0.27,2.07l-0.51,4c0,0.43,0.08,0.81,0.24,1.15l0.51-1.8l0.27-1.93v-3.36L538.73,537.97z M538.86,523.52
			c0.16,0.57,0.42,1.12,0.78,1.66l0.24,0.64l1.05-0.37c-0.11-0.41-0.28-0.79-0.51-1.15C539.97,524.01,539.45,523.75,538.86,523.52z
			 M538.86,553.98c0.02,0.41,0.11,0.84,0.27,1.29l1.29-0.14l0.1-0.92L538.86,553.98z M539,520.3v0.88l0.51-0.24
			C539.46,520.65,539.29,520.44,539,520.3z M540.01,529.83l-0.64,4c0,0.57-0.08,1.18-0.24,1.83l-0.14,1.39l0.51-0.24
			c0.41-0.29,0.71-0.72,0.92-1.29c0.04-0.61,0.17-1.3,0.37-2.07v-1.7l-0.14-0.37C540.59,530.87,540.38,530.35,540.01,529.83z
			 M539.88,526.37l-0.37,0.51C539.73,526.79,539.86,526.62,539.88,526.37z M539.88,490.63l-0.1,0.88l0.88-0.24l0.41-0.64H539.88z
			 M540.15,544.04v1.15l0.51-0.24l0.14-0.92H540.15z M540.42,516.43h1.15l0.27,1.29c-0.05,0.16-0.14,0.28-0.27,0.37l-0.92,0.27
			L540.42,516.43z M541.58,486.62l-0.51,0.37C541.29,486.98,541.46,486.85,541.58,486.62z M541.85,482.86l-0.41,1.97l0.27,0.1
			l0.37-0.1c0.18-0.63,0.32-1.29,0.41-1.97H541.85z M541.95,522.51l-0.24,0.64l0.14,0.24l0.51,0.14c0.11-0.29,0.19-0.63,0.24-1.02
			H541.95z M542.73,488.29c-0.25,0.34-0.42,0.74-0.51,1.19h0.92c0.16-0.36,0.28-0.76,0.37-1.19H542.73z M544.53,518.23l1.29,0.51
			l1.7-0.37h1.02c-0.07,0.25-0.19,0.51-0.37,0.78l-2.71,1.39l-0.78,0.54l-0.51-0.41l-0.64-1.42
			C543.78,518.93,544.12,518.59,544.53,518.23z M543.78,494.36v1.29l1.02-0.14C544.57,495.06,544.23,494.67,543.78,494.36z
			 M544.66,491.51l-0.14,1.05h1.19v-1.05H544.66z M546.46,520.95h1.42c-0.16,0.41-0.42,0.79-0.78,1.15l-1.15,0.27
			C546.18,521.94,546.35,521.47,546.46,520.95z M546.87,493.34v0.75l0.24-0.64L546.87,493.34z M547,494.87
			c-0.07,0.29-0.11,0.64-0.14,1.05c0,0.18,0.08,0.31,0.24,0.37l0.27-1.15L547,494.87z M548.8,487.27c-0.25,0.36-0.42,0.79-0.51,1.29
			c0,0.39,0.21,0.64,0.64,0.78c0.34-0.27,0.51-0.67,0.51-1.19v-0.88H548.8z M548.43,533.46l-0.14,0.51l0.88,0.27l0.27-0.14
			l0.14-0.64H548.43z M549.07,484.18l-0.41,0.24l0.27,0.78l0.51-0.14l0.37-0.78L549.07,484.18z M554.97,515.01l0.68,0.24
			c-0.2,0.18-0.34,0.4-0.41,0.64l1.05,0.41c0.52,0.05,0.86,0.35,1.02,0.92l-4.92,2.31l-1.39,0.37l-0.92,0.14l0.14-0.78l0.51-1.29
			l1.29,0.54c0.29-0.29,0.55-0.64,0.78-1.05l0.64-0.78v0.54c0.29-0.11,0.55-0.29,0.78-0.54l-0.64-0.14l0.24-0.88L554.97,515.01z
			 M550.6,531.02l0.64,1.29c0.09,0.47,0.4,0.74,0.92,0.78c-0.07-0.43-0.24-0.87-0.51-1.32C551.38,531.47,551.03,531.22,550.6,531.02
			z M550.87,494.22c0.04,0.47,0.21,0.95,0.51,1.42c0.5,0.18,0.8,0.57,0.92,1.15l-0.14,1.83c0.32-0.25,0.61-0.55,0.88-0.92l1.05-1.02
			l-0.78-1.05c-0.36-0.25-0.7-0.55-1.02-0.92C551.86,494.53,551.39,494.36,550.87,494.22z M555.24,524.81h1.8l-0.24,1.02
			c0,0.61,0.08,1.27,0.24,1.97l-2.07-0.41l-0.1-1.29L555.24,524.81z M556.29,535.12l0.64,0.92v-0.92H556.29z M557.96,520.95
			l0.14,0.88l-1.15-0.1C557.14,521.36,557.48,521.1,557.96,520.95z M557.58,507.01c0,0.32,0.12,0.62,0.37,0.92
			C557.93,507.58,557.81,507.28,557.58,507.01z M557.68,541.6l-0.1,0.88c0.16-0.02,0.28-0.1,0.37-0.24
			C557.96,542,557.86,541.78,557.68,541.6z M557.96,522.51l1.29,0.1l-0.14,0.92l-0.88,0.14L557.96,522.51z M561.55,553.33
			c-0.63,0.2-1.36,0.5-2.17,0.88c-0.41,0.34-0.71,0.74-0.92,1.19c0.68-0.14,1.41-0.35,2.2-0.64
			C561.08,554.35,561.37,553.88,561.55,553.33z M560.67,515.52l1.02,0.14c-0.2,0.43-0.59,0.69-1.15,0.78l-0.78,1.93
			c-0.54-0.5-0.88-1.19-1.02-2.07C559.21,515.92,559.85,515.65,560.67,515.52z M559.89,511.92c0.11,0.29,0.33,0.51,0.64,0.64
			C560.37,512.3,560.16,512.08,559.89,511.92z M560.8,532.68l-0.54,0.41l0.54,0.88h2.17c0.18-0.25,0.32-0.54,0.41-0.88L560.8,532.68
			z M562.09,525.83c-0.36,0.52-0.84,1-1.42,1.42c0.5,0.36,1.1,0.71,1.8,1.05c0.45,0.43,0.84,0.98,1.15,1.66l2.07-0.51v-1.66
			l-0.78-0.41c-0.27,0.47-0.66,0.9-1.15,1.29c-0.52-0.23-0.95-0.66-1.29-1.29l0.41-1.56H562.09z M561.31,529.46l-0.27,0.64
			l0.51,0.14L561.31,529.46z M562.87,546.75l-0.27,0.88l0.14,0.27l0.14,0.37c0.2,0.5,0.59,0.85,1.15,1.05l-0.27-1.42
			C563.51,547.52,563.21,547.14,562.87,546.75z M562.87,567.78c0.04,0.32,0.17,0.62,0.37,0.92
			C563.22,568.36,563.1,568.05,562.87,567.78z M566.84,529.59c-0.32,0.43-0.61,0.9-0.88,1.42c-0.43,0.25-0.78,0.63-1.05,1.15
			l-0.37,1.93l-0.51,0.92l0.64,0.1c0.54,0.18,0.88,0.58,1.02,1.19c0.32,0.39,0.75,0.72,1.29,1.02l1.05,0.27l-0.64-1.7
			c0-0.18,0.08-0.31,0.24-0.37c0.47,0.09,0.95,0.26,1.42,0.51l1.15,0.27v-0.78c-0.18-0.47-0.57-0.82-1.15-1.05l-3.09-1.39
			c0.18-0.43,0.44-0.82,0.78-1.19c0.66-0.04,0.99-0.43,1.02-1.15C567.55,530.32,567.25,529.93,566.84,529.59z M564.26,517.08
			c0.11,0.34,0.33,0.63,0.64,0.88C564.82,517.65,564.6,517.35,564.26,517.08z M564.26,560.56h0.78l-0.14,1.56
			C564.52,561.71,564.31,561.19,564.26,560.56z M567.11,549.6c-0.7,0.14-1.39,0.47-2.07,1.02c-0.29,0.32-0.51,0.7-0.64,1.15
			l0.78,0.41c0.5-0.41,0.93-0.97,1.29-1.7l1.29-0.14v-0.75H567.11z M565.69,546.75c-0.25,0.27-0.46,0.61-0.64,1.02h0.64l0.51-0.14
			C566.13,547.3,565.96,547,565.69,546.75z M565.04,553.57v1.19l0.64-0.14v-1.05H565.04z M566.84,517.22l-1.02,0.75v0.64l0.92-0.24
			l1.15-0.51C567.64,517.54,567.29,517.33,566.84,517.22z M566.1,523.39l-0.14,1.05l1.02-0.54L566.1,523.39z M566.1,541.84
			l-0.14,0.51h0.24v-0.51H566.1z M566.1,505.99l0.1,0.64v-0.54L566.1,505.99z M566.2,539.12c0.32,0.57,0.79,0.87,1.42,0.92
			C567.26,539.63,566.78,539.33,566.2,539.12z M570.33,511.14l-1.8,0.37l-1.15,0.92l-0.27,0.88l2.2,0.78l0.51,0.78l0.37-0.37
			c-0.23-0.45-0.4-0.97-0.51-1.56l-0.14-1.15h0.54l0.1-0.14c0.32-0.09,0.58-0.26,0.78-0.51H570.33z M567.62,553.06v0.27l0.27-0.14
			L567.62,553.06z M567.89,532.54v0.92l1.02-0.14C568.8,532.85,568.46,532.59,567.89,532.54z M569.05,529.32l0.27,3.09l1.02-0.1
			c0.14-0.52,0.23-1.09,0.27-1.7c-0.02-0.11-0.11-0.19-0.27-0.24C569.97,530.01,569.54,529.66,569.05,529.32z M569.69,522.23
			l-0.24,0.92l1.93,0.1C571.14,522.57,570.57,522.23,569.69,522.23z M569.69,548.69c0.02,0.39,0.16,0.72,0.41,1.02
			C570.07,549.37,569.94,549.03,569.69,548.69z M569.96,538.38l-0.14,1.02l0.37,0.27l1.05-0.14l0.24-0.92L569.96,538.38z
			 M570.61,547.26c0.11,0.25,0.33,0.42,0.64,0.51C571.09,547.57,570.88,547.4,570.61,547.26z M571.39,568.05l-0.27,0.51h0.64
			C571.69,568.38,571.57,568.21,571.39,568.05z M571.39,516.67c0.07,0.47,0.36,0.74,0.88,0.78
			C572.11,517.11,571.81,516.85,571.39,516.67z M571.62,512.57l-0.14,0.88l0.14,0.41l0.51,0.24l0.27-0.14l0.27-0.88l-0.14-0.41
			L571.62,512.57z M571.62,536.82l0.27,1.56h0.64C572.49,537.72,572.19,537.2,571.62,536.82z M572.27,535.12l-0.14,0.41h0.41
			L572.27,535.12z M572.91,550.99c-0.18,0.18-0.31,0.4-0.37,0.64C572.76,551.53,572.89,551.31,572.91,550.99z M572.67,533.32
			c0.09,0.29,0.31,0.51,0.64,0.64C573.21,533.68,572.99,533.46,572.67,533.32z M574.2,509.72c-0.36,0.29-0.66,0.68-0.88,1.15
			l0.51-0.14c0.36-0.25,0.66-0.59,0.88-1.02H574.2z M574.47,506.23l-0.92,0.41c0.09,0.2,0.26,0.37,0.51,0.51l0.64-0.14l0.14-0.78
			H574.47z M574.98,547.26c-0.34,0.25-0.68,0.59-1.02,1.02h0.51l0.78-0.1l0.14-0.78L574.98,547.26z M574.34,555.78
			c0.16,0.2,0.37,0.34,0.64,0.41C574.82,555.98,574.61,555.84,574.34,555.78z M575.12,511.28l-0.27,1.53
			c0.18,0.2,0.4,0.34,0.64,0.41l0.54-1.19C575.81,511.75,575.5,511.51,575.12,511.28z M575.9,508.43l-0.51,0.64l0.37,0.37
			c0.2-0.11,0.37-0.33,0.51-0.64C576.2,508.62,576.08,508.5,575.9,508.43z M576.41,559.64c0.43,0.27,0.64,0.7,0.64,1.29
			C576.78,560.57,576.56,560.14,576.41,559.64z"/>
		<path d="M613.74,479.43l0.85,1.49l1.46,0.85l1.59,0.61l1.22,0.98c-0.11-0.45-0.32-0.9-0.61-1.36l-1.46-0.71
			c-0.47-0.18-0.93-0.51-1.36-0.98c0.04-0.16,0.14-0.28,0.27-0.37l1.56,0.1l1.25,0.37c0.16-0.02,0.27-0.1,0.34-0.24l0.27-0.75h1.32
			c0.5,0.27,1.03,0.47,1.59,0.61l10.28,0.98l3.32,1.22l1.09,1.12c0.2,0.54,0.37,1.15,0.51,1.83l-0.14,1.09l0.37,0.37
			c0.52-0.18,0.85-0.59,0.98-1.22v-0.85l1.22,0.24c0.43,0.25,0.84,0.58,1.22,0.98l-0.24,1.46c0.54,0.05,1.06,0.22,1.56,0.51
			l-0.34,0.98l0.47,0.1l0.14-0.1c0.43,0,0.87,0.11,1.32,0.34c0.32,0.47,0.52,1.05,0.61,1.73l0.14,1.36l0.61-0.14h0.61l-0.24,1.59
			l-2.44,0.98c0.02,0.23,0.1,0.46,0.24,0.71l1.97,0.27c0.14,0.23,0.26,0.51,0.37,0.85l-0.27,2.44l-0.37-0.37
			c-0.34-0.38-0.58-0.87-0.71-1.46c-0.11-0.23-0.28-0.43-0.51-0.61l-0.1,0.98v1.83l0.1,0.37l0.51,3.43l-0.37,0.24l-0.61,1.36
			l-1.12,1.09v0.98l0.27,0.98c0.23,0.18,0.51,0.34,0.85,0.47l0.37-0.47c0.32-0.38,0.68-0.76,1.09-1.12l0.61-0.24v2.34l1.22-0.14
			l1.97,0.37c0.47-0.23,1.01-0.39,1.59-0.51l-0.75,3.7c0.09,0.59,0.26,1.2,0.51,1.83l0.24,3.66l-0.61-0.14
			c-0.41-0.23-0.77-0.54-1.09-0.95c0.14-0.43,0.37-0.88,0.71-1.36c-0.25-0.43-0.49-0.92-0.71-1.46l0.24-1.87l-0.88-1.32
			c-0.47-0.23-0.99-0.35-1.56-0.37c-0.18,0.02-0.31,0.1-0.37,0.24l0.24,0.75l0.37,0.24l0.24,2.07l0.61,1.59
			c-0.45,0.2-0.94,0.33-1.46,0.37c-0.29-0.16-0.62-0.28-0.98-0.37l-0.37,0.51l-0.75,3.8c-0.09,0.59-0.25,1.2-0.47,1.83l-1.22,0.98
			c-0.27,0.47-0.44,1.04-0.51,1.7l0.98,1.22l0.14,1.22l-0.14,0.37l-0.1,1.83c0,0.18,0.08,0.35,0.24,0.51l0.75-0.14v-1.36l0.24-1.93
			c0.29-0.45,0.53-0.95,0.71-1.49l0.61-6.1c0.02-0.59,0.24-1.16,0.64-1.73c0.52,0.25,0.84,0.7,0.95,1.36
			c-0.14,0.59-0.25,1.24-0.34,1.97l-0.14,2.07l0.24,1.97c0.18,0.39,0.51,0.71,0.98,0.98l1.22-1.12c0.2-0.34,0.33-0.75,0.37-1.22
			l-0.61-0.1c0.04-0.38,0.17-0.8,0.37-1.25l-0.37-1.83c0.36-0.23,0.77-0.38,1.22-0.47l0.47,2.44v11.02
			c-0.45,0.2-0.89,0.49-1.32,0.85c0.52,0.07,1.01,0.32,1.46,0.75l0.14,2.2c-0.07,0.57-0.19,1.21-0.37,1.93l-0.24,1.36l0.1,0.47
			l0.24,2.1l-0.61,8.31c-0.05,0.57-0.16,1.22-0.34,1.97l-0.75,3.66l-2.58,6.48l-2.58,4.17l-5.12,3.8l-6.24,2.81l-4.04,0.47
			c-0.54-0.11-1-0.44-1.36-0.98l-1.22-0.98c-0.47-0.27-1.01-0.47-1.59-0.61c-0.47-0.2-0.93-0.52-1.36-0.95l-0.47-0.14v0.24
			l0.47,0.85c0.41,0.32,0.86,0.61,1.36,0.88l1.73,0.61l0.1,0.61l-0.1,0.24h-1.25l-1.83-0.37c-0.32,0.32-0.68,0.6-1.09,0.85
			l-1.73-0.61l-4.04-0.34c-0.59-0.02-1.28-0.11-2.07-0.27l-1.97-0.24c-0.54-0.16-1.19-0.28-1.93-0.37l-5.16-1.59
			c-0.43-0.29-0.76-0.73-0.98-1.32l0.37-1.83l-0.24-0.61l-1.12,0.1l-0.1,1.73c-0.02,0.09-0.11,0.17-0.27,0.24l-1.59-0.75l-0.47-0.37
			c0.02-0.34,0.1-0.7,0.24-1.09l-1.46-0.47c0.02-0.41,0.1-0.82,0.24-1.25c-0.02-0.16-0.1-0.27-0.24-0.34h-1.73l-0.24-0.37
			c-0.16-0.59-0.28-1.2-0.37-1.83l-0.1-1.22c-0.18,0-0.35,0.08-0.51,0.24l-0.61,0.1l-0.1-0.1l0.1-1.12
			c0.32-0.41,0.77-0.73,1.36-0.98c0.47-0.11,0.88-0.39,1.22-0.85c-0.59-0.18-1.2-0.31-1.83-0.37c-0.32-0.47-0.57-1.01-0.75-1.59
			c0.04-0.56,0.17-1.17,0.37-1.83c0.34,0.41,0.62,0.86,0.85,1.36c0.14,0.36,0.34,0.69,0.61,0.98v-2.81l0.14-1.83l0.14-0.24
			l-0.75-1.49c0.34-0.34,0.67-0.75,0.98-1.22l0.75-1.59c0.16-0.38,0.27-0.79,0.34-1.22l-0.1-0.47l-0.37-0.61l-1.12,0.1l-0.85,1.36
			c-0.5-0.32-0.78-0.8-0.85-1.46v-0.75l-3.56,0.14l-1.09,0.24v-0.98c0.16-0.54,0.28-1.2,0.37-1.97l0.34-1.83l-0.71-1.46l-0.14-2.2
			l0.14-0.85l1.09,0.24c0.45,0.27,0.7,0.72,0.75,1.36l-0.75,0.34l0.14,0.98c0.23,0.47,0.43,1.01,0.61,1.59l-0.47,1.12l0.24,0.47
			l0.98,1.22l0.47,0.24l1.12-0.24c-0.23-0.52-0.52-1.01-0.88-1.46l0.24-1.97l-0.85-1.46l1.36-0.24l1.59,0.37l0.1-0.75l0.14-2.2
			l0.47-1.83l0.75-1.46c0.38-0.29,0.84-0.59,1.36-0.88l0.1-0.85l-0.1-0.37v-0.85c-0.41-0.18-0.78-0.46-1.12-0.85
			c0.18-0.59,0.31-1.2,0.37-1.83v-2.1h-0.1c-0.59,0.18-0.92,0.59-0.98,1.22l-0.14,2.2c-0.29,0.41-0.58,0.86-0.85,1.36l-0.51,6.24
			l-0.47,1.7c-0.52-0.11-0.89-0.43-1.12-0.95l0.37-1.73c-0.16-0.54-0.28-1.11-0.37-1.7l0.37-1.87c0-0.54-0.08-1.11-0.24-1.7
			l-0.37-0.47l-0.85,0.47c-0.38,0.32-0.75,0.68-1.09,1.09l-0.27,0.88l0.88,0.24l-0.37,1.7l0.24,1.59l-0.37,0.14
			c-0.59-0.02-1.04-0.35-1.36-0.98l0.37-1.83l-0.47-1.73l-0.14-4.38l0.14-2.1v-1.83l0.1-0.37l1.25-0.98
			c-0.52-0.16-0.97-0.47-1.36-0.95c-0.16-0.56-0.24-1.22-0.24-1.97v-1.73l0.24-0.37c0.36-0.27,0.6-0.68,0.71-1.22l-0.71-1.56
			l0.1-2.1v-1.83l0.14-0.24l0.47-6.24c0.07-0.56,0.19-1.22,0.37-1.97l1.36-5.39l1.36-3.15l2.68-4.04l3.56-3.19l1.32-0.88l1.22-1.09
			l8.82-2.44C612.56,479.83,613.13,479.66,613.74,479.43z M590.99,547.47h0.71l-0.1,1.12l-0.61,0.1V547.47z M591.97,551.64
			c0.52,0.2,1.04,0.49,1.56,0.85c0.25,0.54,0.45,1.15,0.61,1.83v4.65c-0.43-0.23-0.75-0.63-0.95-1.22l-0.75-1.7L591.97,551.64z
			 M592.82,508.43l0.24,1.36l0.85-0.24l0.14-0.98L592.82,508.43z M593.06,502.09l-0.14,0.61h0.37L593.06,502.09z M592.92,505.99
			l0.14,0.37l0.14-0.37H592.92z M593.29,513.45c-0.16,0.18-0.28,0.39-0.37,0.61c0.27,0.11,0.6,0.2,0.98,0.27l0.24-0.88H593.29z
			 M595.87,494.02c-0.11,0.66-0.32,1.39-0.61,2.2c-0.18,0.52-0.46,1.09-0.85,1.7c-0.45,0.36-0.78,0.85-0.98,1.46
			c0,0.66,0.33,1.11,0.98,1.36c0.25-0.52,0.49-1.13,0.71-1.83l0.75-1.97c0.27-0.52,0.6-1.05,0.98-1.59l0.1-1.32H595.87z
			 M605.3,534.99c-0.5,0.2-0.98,0.45-1.46,0.75c-0.32,0.34-0.69,0.67-1.12,0.98l-1.59,0.47l-4.27,2.1l-1.46,0.47
			c0.02,0.39,0.1,0.79,0.24,1.22l6.61-2.31l2.54-1.59c0.34-0.29,0.67-0.67,0.98-1.12l0.24-0.71l-0.1-0.27H605.3z M597.09,502.56
			l-0.14,0.75l0.37,0.24l0.88-0.1l0.1-0.88H597.09z M601.26,510.16l-2.81,0.98c-0.32,0.23-0.6,0.51-0.85,0.85l-0.14,1.12
			c0.07,0.11,0.19,0.19,0.37,0.24l1.09-0.61l0.98-0.88l1.59-0.95v-0.61L601.26,510.16z M597.47,560.08
			c0.04,0.25,0.17,0.45,0.37,0.61C597.79,560.45,597.67,560.24,597.47,560.08z M597.94,534.65v0.61h1.36v-0.61H597.94z
			 M598.82,489.1c-0.18,0.23-0.31,0.47-0.37,0.75h0.47l0.24-0.61L598.82,489.1z M600.52,548.69l-1.59,0.98l-0.47,1.36l0.37,0.14
			c0.54-0.18,1.11-0.43,1.7-0.75l0.24-1.36C600.73,548.9,600.65,548.78,600.52,548.69z M602.25,552.25v1.22l-1.22,0.14
			c-0.47-0.23-0.93-0.55-1.36-0.98l-0.98-0.14l0.14,1.22l-0.27,1.59c0.02,0.09,0.11,0.17,0.27,0.24c0.47-0.11,0.96-0.27,1.46-0.47
			l1.09-0.14c0.16,0.2,0.36,0.37,0.61,0.51l0.61-1.83l0.27-1.36H602.25z M598.92,518.98l-0.1,0.71c0.02,0.09,0.1,0.18,0.24,0.27
			l0.1-0.14l0.14-0.75L598.92,518.98z M599.06,517.15l-0.14,0.61c0.32-0.09,0.56-0.29,0.75-0.61H599.06z M599.91,500.26
			c-0.29,0.27-0.5,0.63-0.61,1.09c0.27,0.27,0.6,0.47,0.98,0.61c0.23-0.29,0.38-0.66,0.47-1.09
			C600.66,500.48,600.38,500.28,599.91,500.26z M602.49,542.21l-1.59,0.85c-0.47,0.34-0.76,0.84-0.85,1.49l0.71,1.59l0.51,1.83
			c0.2,0.14,0.44,0.22,0.71,0.24l0.14-0.98v-2.31c0.11-0.45,0.32-0.95,0.61-1.49l0.37-1.22H602.49z M601.64,556.89
			c-0.39,0.11-0.71,0.36-0.98,0.75c-0.29,0.23-0.5,0.55-0.61,0.98c0.25,0.23,0.58,0.43,0.98,0.61c0.38,0.14,0.7,0.37,0.95,0.71
			l0.14,1.59c-0.43,0.11-0.92,0.19-1.46,0.24l-0.27,1.36v1.59l1.36,0.24l1.46-0.24l0.14-0.98l-0.14-0.37l-0.1-3.15l-0.61-2.71
			C602.26,557.23,601.98,557.03,601.64,556.89z M600.28,493.88l0.1,1.73l0.14,0.61h0.61l0.14-0.27l0.24-1.56
			C601.12,494.14,600.71,493.97,600.28,493.88z M617.78,497.68c-0.39,0.2-0.71,0.53-0.98,0.98c-0.29,0.29-0.66,0.53-1.09,0.71h-9.19
			l-6.14-1.09v0.47l0.88,0.98l0.24,0.51l13.09,0.61l-0.14,0.98l-0.85,2.92l-0.24,7.46l-0.47,3.43l-1.59,0.37
			c-0.36,0.23-0.66,0.55-0.88,0.98c0.18,0.41,0.43,0.81,0.75,1.22c0.34,0.29,0.79,0.5,1.36,0.61c0.29,0.39,0.45,0.87,0.47,1.46
			v11.63c0,0.54-0.08,1.12-0.24,1.73l-0.51,1.32c0.25,0.43,0.42,0.93,0.51,1.49v1.93c-0.14,0.45-0.34,0.9-0.61,1.36l-2.44,1.36
			c-0.5,0.09-0.82,0.42-0.98,0.98l0.1,0.61l0.98-0.14l1.22-0.75l1.59-0.34c0.25,0.32,0.45,0.68,0.61,1.09l0.37,5.39
			c0.09,0.47,0.26,0.96,0.51,1.46l1.32,2.58l0.51,1.36c0.36,0.16,0.69,0.4,0.98,0.71l-0.75,1.22c0.32,0.34,0.68,0.62,1.09,0.85
			l1.25,0.14l0.34-0.14l1.36-0.61l1.73-0.24c0.5-0.07,0.98-0.19,1.46-0.37l0.98-0.95l1.59-0.37l14.07,1.09h0.47
			c-0.09-0.27-0.25-0.55-0.47-0.85c-0.25-0.34-0.58-0.67-0.98-0.98l-12.85-0.75l1.09-4.75l0.51-9.06c0.02-0.54,0.31-0.92,0.85-1.12
			c0.47-0.11,0.96-0.27,1.46-0.47c-0.02-0.45-0.1-0.9-0.24-1.36c-0.23-0.36-0.51-0.72-0.85-1.09h-1.12l-0.1-0.75l-0.14-13.33
			l0.51-1.46l0.1-0.98l-0.1-0.37l-0.27-3.43l0.27-0.37l1.22-0.75l1.32-0.47c0.38-0.2,0.76-0.49,1.12-0.85
			c0.04-0.29,0.08-0.62,0.1-0.98l-0.61,0.1l-2.81,0.98h-0.85v-1.22l-0.61-5.12c-0.07-0.52-0.19-1.05-0.37-1.59l-0.71-1.12
			l-1.12-2.81l-0.98-0.71l0.61-1.22c-0.39-0.29-0.82-0.5-1.32-0.61L617.78,497.68z M602.72,525.32c-0.27,0.32-0.47,0.69-0.61,1.12
			l-0.37,0.85v-0.47l-1.36,0.1l0.14,3.93l0.61-0.14c0.32-0.27,0.69-0.47,1.12-0.61l2.44,0.24l0.37-0.1
			c0.16-0.32,0.24-0.69,0.24-1.12c-0.23-0.27-0.51-0.51-0.85-0.71l-1.25-0.37c-0.27-0.14-0.51-0.31-0.71-0.51l0.85-0.71
			c0.23-0.29,0.35-0.62,0.37-0.98C603.46,525.58,603.13,525.41,602.72,525.32z M601.13,485.81l-0.47,1.73v1.7l0.1,0.37l0.14,2.68
			c0.32-0.04,0.6-0.2,0.85-0.47l-0.47-0.51l0.61-0.71l0.1-1.36l-0.24-0.37l-0.1-0.47l0.24-1.22
			C601.72,486.69,601.47,486.24,601.13,485.81z M601.87,562.9l0.37,0.47l-0.75,0.27C601.57,563.4,601.69,563.15,601.87,562.9z
			 M602.11,532.44c0.11,0.25,0.32,0.41,0.61,0.47C602.61,532.71,602.41,532.56,602.11,532.44z M603.33,523.62
			c-0.29,0.23-0.5,0.55-0.61,0.98h1.59C604.2,524.11,603.88,523.78,603.33,523.62z M603.1,512.13c0.2,0.25,0.49,0.41,0.85,0.47
			C603.72,512.4,603.43,512.24,603.1,512.13z M603.71,550.79c-0.11,0.41-0.19,0.89-0.24,1.46c0.32,0.16,0.68,0.24,1.09,0.24
			l0.24-0.85l-0.1-0.37C604.42,551.04,604.09,550.88,603.71,550.79z M603.84,513.21l-0.27,1.12l0.27,0.47l0.71-0.24l0.37-0.98
			L603.84,513.21z M603.71,506.26v1.32l0.75-0.1v-1.12L603.71,506.26z M604.55,566.46c0.23,0.32,0.55,0.55,0.98,0.71
			C605.4,566.76,605.07,566.53,604.55,566.46z M604.79,562.15c0.2,0.29,0.5,0.46,0.88,0.51
			C605.43,562.44,605.13,562.27,604.79,562.15z M605.54,532.17l-0.47,0.14l-0.14,0.75l0.37,0.24l0.47-0.75
			C605.75,532.39,605.67,532.26,605.54,532.17z M605.06,557.27c0,0.52,0.24,0.93,0.71,1.22l-0.1-1.22H605.06z M608.22,546.38
			c-0.16,0.41-0.4,0.81-0.71,1.22l-1.73,0.24l-0.24,1.12l0.14,0.34v0.51l0.85,0.1l1.46-0.71c0.47-0.07,0.97-0.19,1.49-0.37
			c-0.04-0.54-0.14-1.11-0.27-1.7C608.95,546.83,608.62,546.58,608.22,546.38z M605.78,527.53l0.88,1.12
			c0.27-0.04,0.55-0.12,0.85-0.24l0.1-0.64l-0.1-0.24H605.78z M606.01,525.69l0.14,0.37l0.24,0.14l0.14-0.75h-0.37L606.01,525.69z
			 M616.05,562.29c-0.52,0.18-1.09,0.43-1.7,0.75l-1.59,0.71l-5.49,3.8c-0.25,0.18-0.5,0.43-0.75,0.75c0.02,0.23,0.1,0.43,0.24,0.61
			c0.57,0.11,1.05,0.4,1.46,0.85l0.98,0.14v-1.12l-0.37-0.47l2.81-1.12l1.12-1.22l2.81-1.83l1.22-1.09l0.37-0.75H616.05z
			 M608.96,560.32l-2.2,0.98c0.04,0.34,0.17,0.67,0.37,0.98c0.45-0.27,0.9-0.6,1.36-0.98c0.25-0.11,0.53-0.27,0.85-0.47
			C609.29,560.65,609.17,560.48,608.96,560.32z M608.59,529.25l-0.61,0.37c0.04,0.52,0.12,1.09,0.24,1.7l0.51-0.14v-1.93H608.59z
			 M612.39,549.06l-1.36,0.75l-1.09,0.98l-1.59,0.47l0.85,0.61l0.75,0.24l0.37-0.1l0.37-0.24c0.34-0.23,0.66-0.55,0.95-0.98
			c0.5-0.11,0.99-0.28,1.49-0.51v-1.22H612.39z M608.59,524c0.11,0.2,0.28,0.32,0.51,0.34L608.59,524z M610.93,532.07
			c-0.52,0.23-1.05,0.51-1.59,0.85l-0.61,0.37c0.07,0.27,0.23,0.51,0.47,0.71c0.59-0.16,1.16-0.39,1.73-0.71
			c0.23-0.36,0.38-0.77,0.47-1.22H610.93z M608.96,534.99l-0.14,0.88c0.09,0.11,0.21,0.19,0.37,0.24l0.14-0.61l-0.14-0.24
			C609.18,535.14,609.1,535.05,608.96,534.99z M610.32,553.23l-0.98,1.36l-0.37,0.85l0.85-0.14h1.36v-2.07H610.32z M610.18,482.62
			c-0.27,0.32-0.47,0.69-0.61,1.12l0.75,0.1l0.61-0.24l-0.14-0.98H610.18z M609.57,543.33c0.07,0.2,0.19,0.41,0.37,0.61
			C609.9,543.69,609.78,543.49,609.57,543.33z M610.18,547.13c0.04,0.54,0.12,1.11,0.24,1.7l0.51-0.37c0.11-0.27,0.19-0.6,0.24-0.98
			l-0.14-0.34H610.18z M611.91,545.64c0.09,0.2,0.25,0.33,0.47,0.37C612.28,545.83,612.12,545.7,611.91,545.64z M613.24,552.49
			l-0.47,0.24l0.14,1.12l0.47,0.24l1.7-0.37l-0.1-0.98C614.45,552.61,613.87,552.53,613.24,552.49z M615.44,569.38
			c-0.41,0.16-0.81,0.41-1.22,0.75v0.61l0.75,0.1l0.24-0.1c0.38-0.16,0.76-0.41,1.12-0.75C616.1,569.71,615.8,569.51,615.44,569.38z
			 M614.83,496.09v1.36h1.12v-0.14l0.1-1.09L614.83,496.09z M616.66,557.03c-0.25,0.39-0.45,0.83-0.61,1.32l0.37,0.37l1.59-0.37
			l-0.14-0.85C617.52,557.28,617.11,557.12,616.66,557.03z M616.32,560.32l0.1,0.37l0.14-0.37H616.32z M618.63,554.32h1.12
			l-0.27,0.61l-0.24,0.27l-0.61-0.27V554.32z M619.37,557.64l-0.14,0.71h0.37l0.14-0.61L619.37,557.64z M619.99,485.2l-0.61,0.14
			c0.04,0.41,0.2,0.81,0.47,1.22h0.51v-1.12C620.29,485.32,620.17,485.25,619.99,485.2z M619.75,488.63l-0.14,1.22l0.14,0.47
			l0.1,0.27h0.37l0.14-1.73v-0.24H619.75z M619.75,480.32l0.24,0.47l0.1-0.47H619.75z M619.99,492.53c0.14,0.39,0.37,0.71,0.71,0.98
			C620.56,493.15,620.32,492.82,619.99,492.53z M619.99,559.61c0.18,0.39,0.46,0.75,0.85,1.09
			C620.65,560.29,620.37,559.93,619.99,559.61z M620.7,562.52l-0.24,1.97h0.51l0.1-0.98C621,563.17,620.88,562.84,620.7,562.52z
			 M620.46,566.56v1.36l0.85-0.14v-1.22H620.46z M620.7,571.95c0.02,0.32,0.15,0.6,0.37,0.85L620.7,571.95z M621.07,494.73
			l0.14,0.75l0.61-0.24L621.07,494.73z M621.31,498.05l0.88,0.1c-0.02,0.23-0.1,0.43-0.24,0.61h-0.88L621.31,498.05z M622.8,495.1
			l0.24,0.85c0.02,0.11,0.1,0.2,0.24,0.27l0.14-0.14l0.85-0.14c0.18-0.41,0.31-0.85,0.37-1.32h-1.59L622.8,495.1z M631.72,483.37
			c0,0.45,0.08,0.9,0.24,1.36l-0.24,0.34c-0.5,0.18-1.03,0.43-1.59,0.75c-0.47,0.23-0.96,0.51-1.46,0.85l-4.17,2.81l-0.71,0.61
			l0.1,0.88c0.52-0.07,1.1-0.19,1.73-0.37c0.5-0.25,0.98-0.54,1.46-0.88c0.5-0.23,0.98-0.51,1.46-0.85l4.31-2.68l1.22-1.12
			l0.24-0.85L631.72,483.37z M624.26,492.42l-0.14,0.37l0.37-0.14C624.5,492.55,624.42,492.47,624.26,492.42z M624.87,482.38
			c-0.2,0.41-0.36,0.86-0.47,1.36l0.61,0.1l0.24-0.1h0.24l0.37-0.14c0.32-0.27,0.56-0.63,0.75-1.09L624.87,482.38z M624.77,555.67
			v1.36h1.09v-0.14l0.14-1.09L624.77,555.67z M626.6,499.14l-0.88,0.24v0.88h0.14c0.36,0.23,0.77,0.35,1.22,0.37
			c0.5-0.09,0.78-0.38,0.85-0.88C627.61,499.37,627.16,499.16,626.6,499.14z M630.63,501.24l-2.71,1.32
			c-0.14,0.43-0.22,0.88-0.24,1.36c0.07,0.11,0.19,0.19,0.37,0.24l3.05-2.07c0.41-0.16,0.81-0.41,1.22-0.75L630.63,501.24z
			 M628.43,506.97v0.61c0.23-0.14,0.43-0.34,0.61-0.61H628.43z M631.35,519.22c-0.59,0.14-1.2,0.39-1.83,0.75l-0.1,1.22l0.47-0.14
			l1.73-0.85c0.2-0.27,0.36-0.6,0.47-0.98H631.35z M631.35,497.68c-0.61,0-1.22,0.2-1.83,0.61c0.02,0.57,0.15,1.14,0.37,1.73
			c0.45-0.32,0.9-0.69,1.36-1.12l0.61-1.22H631.35z M630.13,504.4c-0.27,0.34-0.47,0.75-0.61,1.22c0.14,0.2,0.34,0.37,0.61,0.51
			l0.51-0.14v-1.32L630.13,504.4z M630.13,569.38l-0.24,0.37l0.24,0.85l0.75-0.1l0.37-0.98L630.13,569.38z M630.87,489.61l0.37,0.37
			C631.18,489.8,631.05,489.68,630.87,489.61z M630.87,509.31c0.04,0.2,0.17,0.36,0.37,0.47
			C631.18,509.63,631.05,509.47,630.87,509.31z M633.82,503.31c-0.23,0.32-0.55,0.57-0.98,0.75l-1.59,0.1c0,0.5,0.08,0.98,0.24,1.46
			c0.23,0.34,0.55,0.67,0.98,0.98l0.71-1.09l1.73-0.24l0.24-1.59C634.72,503.5,634.27,503.38,633.82,503.31z M631.48,517.01
			c0.04,0.34,0.2,0.67,0.47,0.98C631.96,517.63,631.8,517.31,631.48,517.01z M633.08,490.97c-0.25,0.45-0.66,0.77-1.22,0.95
			l-0.24,0.88l2.07-0.98l0.24-0.85H633.08z M631.86,528.64v0.47l0.47-0.24L631.86,528.64z M632.09,521.79l-0.14,1.59l0.37,0.47
			l0.24-0.24l0.27-1.36L632.09,521.79z M633.55,524.47l-0.1,0.37l0.1,0.98l1.36-0.14C634.66,525.15,634.21,524.74,633.55,524.47z
			 M634.53,526.91l-0.24,0.75l0.47-0.14C634.77,527.32,634.69,527.12,634.53,526.91z M644.1,512.23l-1.73,0.51l-4.04,2.07
			l-1.22,0.85l-1.46,0.61c-0.47,0.29-0.72,0.75-0.75,1.36l0.14,0.61l0.95-0.24l8.11-4.17c0.43-0.2,0.84-0.49,1.22-0.85l-0.14-0.75
			H644.1z M635.04,494.73l0.1,1.22l0.51-0.1v-1.12H635.04z M635.15,519.96l-0.1,0.95l0.47-0.1l0.14-0.85H635.15z M635.15,490.32
			v0.75l0.75-0.1C635.73,490.67,635.48,490.46,635.15,490.32z M635.28,485.95c0.09,0.43,0.37,0.67,0.85,0.71
			C636.04,486.27,635.76,486.04,635.28,485.95z M639.45,522.4c-0.18,0.27-0.35,0.6-0.51,0.98l-0.75-0.37
			c-0.61-0.16-1.35-0.24-2.2-0.24l-0.61,0.24c0.04,0.43,0.14,0.87,0.27,1.32l1.59,0.75c0.68,0.09,1.29,0.37,1.83,0.85
			c0.36,0.18,0.77,0.31,1.22,0.37l0.1-0.47c-0.16-0.29-0.27-0.62-0.34-0.98l0.24-2.44H639.45z M636.13,500.63l-0.14,1.09l0.14,0.37
			c0.04,0.16,0.12,0.28,0.24,0.37l0.61-0.27c0.18-0.41,0.31-0.85,0.37-1.32L636.13,500.63z M636.5,538.31
			c-0.23,0.39-0.4,0.83-0.51,1.32l0.75,0.37l0.37-1.46L636.5,538.31z M636.37,528.51v0.75l1.12,0.37l0.47-0.27l0.14-0.61l-0.14-0.1
			L636.37,528.51z M636.37,545.64v1.22l0.75-0.1v-1.12H636.37z M636.87,540.38c0.11,0.39,0.39,0.59,0.85,0.61
			C637.47,540.74,637.19,540.54,636.87,540.38z M638.47,525.59l-1.22,0.95c-0.14,0.07-0.23,0.19-0.27,0.37l0.37,0.98
			c0.5-0.11,0.9-0.39,1.22-0.85l0.24-1.12C638.76,525.77,638.65,525.66,638.47,525.59z M637.35,533.9v0.75l0.24-0.64L637.35,533.9z
			 M637.59,488.39l0.14,4.75l0.24,1.36l0.51,1.12c0.25,0.27,0.58,0.47,0.98,0.61c0.29-0.14,0.58-0.34,0.85-0.61
			c0.2-0.29,0.33-0.62,0.37-0.98l-0.75-0.85l-0.98-0.75l-0.24-1.36c0.36-0.18,0.77-0.31,1.22-0.37h0.47v-2.68l-1.22-0.24H637.59z
			 M638.94,505.01l-0.24,0.98c0.09,0.29,0.17,0.62,0.24,0.98c-0.14,0.59-0.34,1.2-0.61,1.83l-0.61,1.73
			c0.04,0.2,0.17,0.33,0.37,0.37l0.98-0.27c0.43-0.27,0.87-0.63,1.32-1.09c0.18-0.27,0.35-0.6,0.51-0.98c0-0.23-0.08-0.43-0.24-0.61
			c-0.36-0.47-0.61-1.04-0.75-1.7C639.88,505.65,639.55,505.23,638.94,505.01z M641.52,497.44c-0.54,0.29-1.12,0.45-1.73,0.47
			l-1.09-0.24l-0.24,0.61l-0.37,1.97l0.24-0.51c0.27-0.04,0.6-0.08,0.98-0.1l0.98,0.37c0.52,0.25,1.09,0.45,1.7,0.61l-0.1-1.25
			l0.34-1.7L641.52,497.44z M638.1,520.06c0.09,0.29,0.29,0.5,0.61,0.61C638.55,520.43,638.34,520.22,638.1,520.06z M638.81,489.47
			c0.2,0.05,0.37,0.17,0.51,0.37l-0.61,0.47l-0.14-0.71h0.24V489.47z M639.32,560.83l0.14,1.22l-0.27,0.34
			c-0.16,0.39-0.28,0.8-0.37,1.25l0.37,1.93l-0.37,0.27c0.07,0.45,0.24,0.89,0.51,1.32c0.29-0.2,0.54-0.49,0.75-0.85l0.1-2.07
			l-0.1-2.1C640.04,561.61,639.79,561.17,639.32,560.83z M643.22,539.77c-0.39,0.18-0.79,0.43-1.22,0.75l-2.68,1.7l0.37,0.75
			l2.54-1.12c0.38-0.2,0.68-0.52,0.88-0.95l0.37-0.75C643.44,539.98,643.35,539.86,643.22,539.77z M639.55,556.89l-0.1,1.83
			l-0.14,0.51l0.37,0.24l0.61-0.14l0.24-1.59C640.33,557.4,640.01,557.12,639.55,556.89z M640.4,551.16
			c-0.23,0.34-0.38,0.75-0.47,1.22c0.36,0.23,0.77,0.34,1.22,0.34c0.2-0.34,0.33-0.7,0.37-1.09
			C641.18,551.43,640.81,551.28,640.4,551.16z M641.01,502.09c-0.32,0.47-0.6,1.01-0.85,1.59l-0.1,0.71
			c0.34-0.07,0.7-0.18,1.09-0.34c0.38-0.34,0.75-0.76,1.09-1.25l0.14-0.71H641.01z M641.62,535.12l-0.61,0.75l0.37,0.34l0.51-0.71
			C641.85,535.34,641.76,535.21,641.62,535.12z M641.62,533.29l-0.24,0.47l0.14,0.24l0.37,0.14l0.1-0.75L641.62,533.29z
			 M641.52,517.86v0.61h1.36v-0.61H641.52z M641.62,563.27c0.14,0.29,0.38,0.53,0.75,0.71
			C642.37,563.58,642.12,563.34,641.62,563.27z M642.37,549.81l0.14,0.85l1.22-0.1v-0.75H642.37z M642.98,492.53v0.51l0.37-0.37
			L642.98,492.53z M646.54,552.38l-1.12,1.59l-0.85,1.7l-0.47,2.07l-0.14,1.49l0.85-0.14c0.14-0.61,0.34-1.27,0.61-1.97l0.75-1.83
			l1.22-1.32C647.34,553.35,647.06,552.81,646.54,552.38z M646.64,494.12c0.45,0.34,0.78,0.84,0.98,1.49l1.12,3.66l0.1,1.83
			l-0.24,0.24c-0.52-0.04-1.01-0.28-1.46-0.71l-0.51-1.87l-0.1-2.31L646.64,494.12z M646.64,538.92l0.14,0.85
			c0.27-0.02,0.55-0.1,0.85-0.24C647.35,539.26,647.03,539.06,646.64,538.92z M646.91,543.43l-0.14,1.22h1.09l-0.1-1.22H646.91z
			 M647.63,550.42l-0.24,0.61h0.47C647.86,550.8,647.78,550.6,647.63,550.42z M649.12,504.67h0.71l-0.1,0.95l-0.61,0.14V504.67z"/>
	</g>
</g>
<path class="st1" d="M907,69"/>
<path class="st2" d="M523.06,6.87C545,17,545,17,545,17l343,336c0,0,24,26,0,52S566.47,734.47,566.47,734.47
	S873.12,351.75,523.06,6.87z"/>
</svg>
