<?xml version="1.0" encoding="utf-8"?>
<!-- Generator: Adobe Illustrator 24.0.2, SVG Export Plug-In . SVG Version: 6.00 Build 0)  -->
<svg version="1.1" id="Calque_1" xmlns="http://www.w3.org/2000/svg" xmlns:xlink="http://www.w3.org/1999/xlink" x="0px" y="0px"
	 viewBox="0 0 1366 768" style="enable-background:new 0 0 1366 768;" xml:space="preserve">
<style type="text/css">
	.st0{fill:#F29400;}
	.st1{stroke:#000000;stroke-width:17;stroke-miterlimit:10;}
</style>
<path class="st0" d="M1320.9,768H45.1C20.2,768,0,746.7,0,720.4V49C0,22.7,20.2,1.3,45.1,1.3h1275.8c24.9,0,45.1,21.3,45.1,47.6
	v671.4C1366,746.7,1345.8,768,1320.9,768z"/>
<path class="st1" d="M1300.2,750H64.4c-24.9,0-45.1-21.3-45.1-47.6V65.8c0-26.3,20.2-47.6,45.1-47.6h1235.7
	c24.9,0,45.1,21.3,45.1,47.6v636.5C1345.3,728.6,1325.1,750,1300.2,750z"/>
</svg>
