<svg height="464pt" viewBox="0 0 464 464" width="464pt" xmlns="http://www.w3.org/2000/svg"><path d="m64 416c0 8.835938-7.164062 16-16 16s-16-7.164062-16-16 7.164062-16 16-16 16 7.164062 16 16zm0 0"/><path d="m48 352c19.121094 0 36.265625 8.472656 48 21.808594v-325.808594c0-26.472656-21.527344-48-48-48s-48 21.527344-48 48v325.808594c11.734375-13.335938 28.878906-21.808594 48-21.808594zm0 0"/><path d="m48 368c-26.472656 0-48 21.527344-48 48s21.527344 48 48 48 48-21.527344 48-48-21.527344-48-48-48zm0 80c-17.648438 0-32-14.351562-32-32s14.351562-32 32-32 32 14.351562 32 32-14.351562 32-32 32zm0 0"/><path d="m129.761719 350.984375 24.734375-8.242187c8.070312-2.695313 13.503906-10.222657 13.503906-18.742188 0-15.40625 9.824219-29.039062 24.449219-33.910156l10.054687-3.355469c8.0625-2.6875 13.496094-10.214844 13.496094-18.734375v-21.71875c0-6.371094-3.089844-12.378906-8.265625-16.074219l-37.148437-26.527343c-3.371094-2.40625-7.339844-3.679688-11.480469-3.679688h-5.378907c-8.085937 0-16.023437-2.785156-22.335937-7.832031l-19.390625-15.511719v175.351562h11.503906c2.113282-.007812 4.222656-.351562 6.257813-1.023437zm46.238281-94.984375h16v16h-16zm-32-32h16v16h-16zm-16 64h16v16h-16zm0 0"/><path d="m256 64c0 17.671875-14.328125 32-32 32s-32-14.328125-32-32 14.328125-32 32-32 32 14.328125 32 32zm0 0"/><path d="m234.457031 400.398438 10.855469-6.511719c6.589844-3.949219 10.6875-11.191407 10.6875-18.878907v-21c0-8.167968 2.695312-16.265624 7.59375-22.808593l9-11.992188c7.140625-9.519531 18.503906-15.207031 30.414062-15.207031h32.992188v-232h-32.425781c-1 13.761719-5.300781 27.015625-13.007813 38.574219l-47.46875 71.203125c-4.273437 6.398437-11.410156 10.214844-19.097656 10.214844s-14.824219-3.824219-19.097656-10.214844l-47.46875-71.203125c-7.707032-11.558594-12.019532-24.8125-13.007813-38.574219h-32.425781v84.152344l29.398438 23.519531c3.488281 2.792969 7.867187 4.328125 12.335937 4.328125h5.378906c7.503907 0 14.6875 2.304688 20.78125 6.664062l37.144531 26.527344c9.367188 6.695313 14.960938 17.570313 14.960938 29.089844v21.71875c0 15.40625-9.824219 29.039062-24.449219 33.910156l-10.054687 3.355469c-8.0625 2.6875-13.496094 10.222656-13.496094 18.734375 0 15.40625-9.824219 29.039062-24.449219 33.910156l-24.75 8.25c-3.671875 1.214844-7.472656 1.832032-11.304687 1.832032h-11.496094v48c0 19.121093-8.472656 36.265624-21.808594 48h99.152344l17.855469-13.390626c5.511719-4.128906 8.800781-10.714843 8.800781-17.609374 0-13.273438 7.070312-25.761719 18.457031-32.59375zm0 0"/><path d="m218.214844 172.910156c2.578125 3.875 8.984375 3.875 11.5625 0l47.46875-71.199218c7.035156-10.558594 10.753906-22.832032 10.753906-35.503907v-2.199219c0-35.289062-28.710938-63.9999995-64-63.9999995s-64 28.7109375-64 63.9999995v2.199219c0 12.671875 3.71875 24.945313 10.753906 35.503907zm5.785156-156.910156c26.472656 0 48 21.527344 48 48s-21.527344 48-48 48-48-21.527344-48-48 21.527344-48 48-48zm0 0"/><path d="m432 0h-80v384h80c12.28125 0 23.503906 4.640625 32 12.246094v-364.246094c0-17.648438-14.351562-32-32-32zm0 0"/><path d="m432 400h-96v-80h-32.992188c-6.886718 0-13.480468 3.289062-17.617187 8.808594l-8.992187 11.992187c-2.839844 3.792969-4.398438 8.480469-4.398438 13.207031v21c0 13.273438-7.070312 25.769532-18.457031 32.59375l-10.855469 6.511719c-6.589844 3.957031-10.6875 11.191407-10.6875 18.878907 0 11.902343-5.6875 23.273437-15.207031 30.414062l-.792969.59375h216c17.648438 0 32-14.351562 32-32s-14.351562-32-32-32zm-144 48h-16v-16h16zm32-96h-16v-16h16zm32 80h-16v-16h16zm0 0"/></svg>