<svg id="Layer_3" enable-background="new 0 0 64 64" height="512" viewBox="0 0 64 64" width="512" xmlns="http://www.w3.org/2000/svg"><g><path d="m20 20h24v42h-24z" fill="#758190"/><path d="m24 38h16v4h-16z" fill="#e0747c"/><path d="m24 46h16v12h-16z" fill="#cbd0d7"/><path d="m24 46h13v12h-13z" fill="#dcdfe4"/><path d="m36 16v-12c0-1.105.895-2 2-2 1.105 0 2 .895 2 2v12z" fill="#758190"/><path d="m34 16h8v4h-8z" fill="#7e848d"/><path d="m34 16h5v4h-5z" fill="#a8b0bc"/><path d="m22 16h4v4h-4z" fill="#e47c6e"/><path d="m24 24h16v10h-16z" fill="#8bd2f5"/><path d="m24 24h13v10h-13z" fill="#a2dbf7"/><g><path d="m27 38h2v4h-2z" fill="#a8575d"/></g><g><path d="m31 38h2v4h-2z" fill="#a8575d"/></g><g><path d="m35 38h2v4h-2z" fill="#a8575d"/></g><g><path d="m27 49h2v2h-2z" fill="#758190"/></g><g><path d="m31 49h2v2h-2z" fill="#758190"/></g><g><path d="m35 49h2v2h-2z" fill="#758190"/></g><g><path d="m27 53h2v2h-2z" fill="#758190"/></g><g><path d="m31 53h2v2h-2z" fill="#758190"/></g><g><path d="m35 53h2v2h-2z" fill="#758190"/></g><g><path d="m49.707 42.707-1.414-1.414.586-.586c.723-.723 1.121-1.685 1.121-2.707s-.398-1.984-1.121-2.707l-.586-.586 1.414-1.414.586.586c1.101 1.1 1.707 2.564 1.707 4.121s-.606 3.021-1.707 4.121z" fill="#758190"/></g><g><path d="m52.707 45.707-1.414-1.414.171-.171c1.636-1.636 2.536-3.81 2.536-6.122s-.9-4.486-2.536-6.122l-.171-.171 1.414-1.414.171.171c2.014 2.013 3.122 4.689 3.122 7.536s-1.108 5.523-3.122 7.536z" fill="#758190"/></g><g><path d="m14.293 42.707-.586-.586c-1.101-1.1-1.707-2.564-1.707-4.121s.606-3.021 1.707-4.121l.586-.586 1.414 1.414-.586.586c-.723.723-1.121 1.685-1.121 2.707s.398 1.984 1.121 2.707l.586.586z" fill="#758190"/></g><g><path d="m11.293 45.707-.171-.171c-2.014-2.013-3.122-4.689-3.122-7.536s1.108-5.523 3.122-7.536l.171-.171 1.414 1.414-.171.171c-1.636 1.636-2.536 3.81-2.536 6.122s.9 4.486 2.536 6.122l.171.171z" fill="#758190"/></g></g></svg>