<svg height="464pt" viewBox="-144 0 464 464" width="464pt" xmlns="http://www.w3.org/2000/svg"><path d="m136 48v-32c0-8.835938-7.164062-16-16-16h-64c-8.835938 0-16 7.164062-16 16v32zm0 0" fill="#003f8a"/><path d="m176 176v-10.855469c-.007812-22.960937-12.3125-44.152343-32.246094-55.542969l-7.632812-4.363281c-9.976563-5.699219-16.128906-16.316406-16.121094-27.804687v-29.433594h-64v29.433594c0 11.480468-6.152344 22.085937-16.121094 27.78125l-7.632812 4.359375c-19.9375 11.394531-32.246094 32.601562-32.246094 55.570312v10.855469c0 8.835938 7.164062 16 16 16-8.835938 0-16 7.164062-16 16s7.164062 16 16 16c-8.835938 0-16 7.164062-16 16s7.164062 16 16 16c-8.835938 0-16 7.164062-16 16s7.164062 16 16 16c-8.835938 0-16 7.164062-16 16s7.164062 16 16 16c-8.835938 0-16 7.164062-16 16s7.164062 16 16 16h144c8.835938 0 16-7.164062 16-16s-7.164062-16-16-16c8.835938 0 16-7.164062 16-16s-7.164062-16-16-16c8.835938 0 16-7.164062 16-16s-7.164062-16-16-16c8.835938 0 16-7.164062 16-16s-7.164062-16-16-16c8.835938 0 16-7.164062 16-16s-7.164062-16-16-16c8.835938 0 16-7.164062 16-16zm0 0" fill="#57a4ff"/><path d="m160 352h-144c-8.835938 0-16 7.164062-16 16v48c0 26.507812 21.492188 48 48 48h80c26.507812 0 48-21.492188 48-48v-48c0-8.835938-7.164062-16-16-16zm0 0" fill="#2488ff"/><path d="m72 48v29.441406c-.015625 11.480469-6.183594 22.074219-16.160156 27.757813l-7.601563 4.402343c-19.933593 11.375-32.238281 32.566407-32.238281 55.519532v10.878906c.027344 8.824219 7.175781 15.972656 16 16-8.835938 0-16 7.164062-16 16s7.164062 16 16 16c-8.835938 0-16 7.164062-16 16s7.164062 16 16 16c-8.835938 0-16 7.164062-16 16s7.164062 16 16 16c-8.835938 0-16 7.164062-16 16s7.164062 16 16 16c-8.835938 0-16 7.164062-16 16s7.164062 16 16 16h-16c-8.835938 0-16-7.164062-16-16s7.164062-16 16-16c-8.835938 0-16-7.164062-16-16s7.164062-16 16-16c-8.835938 0-16-7.164062-16-16s7.164062-16 16-16c-8.835938 0-16-7.164062-16-16s7.164062-16 16-16c-8.835938 0-16-7.164062-16-16s7.164062-16 16-16c-8.824219-.027344-15.9726562-7.175781-16-16v-10.878906c0-22.953125 12.304688-44.144532 32.238281-55.519532l7.601563-4.402343c9.976562-5.683594 16.144531-16.277344 16.160156-27.757813v-29.441406zm0 0" fill="#2488ff"/><path d="m64 464h-16c-26.507812 0-48-21.492188-48-48v-48c.0273438-8.824219 7.175781-15.972656 16-16h16c-8.824219.027344-15.972656 7.175781-16 16v48c0 26.507812 21.492188 48 48 48zm0 0" fill="#006df0"/><g fill="#f1f2f2"><path d="m123.894531 144.304688c6.300781 3.589843 10.636719 9.835937 11.800781 16.992187.402344 2.875 2.332032 5.308594 5.039063 6.355469 2.710937 1.046875 5.773437.542968 8.003906-1.316406 2.230469-1.855469 3.28125-4.777344 2.742188-7.632813-1.921875-11.921875-9.148438-22.332031-19.648438-28.304687-3.835937-2.191407-8.722656-.855469-10.917969 2.980468-2.191406 3.839844-.855468 8.726563 2.980469 10.917969zm0 0"/><path d="m144 392c-4.417969 0-8 3.582031-8 8v16c0 4.417969-3.582031 8-8 8s-8 3.582031-8 8 3.582031 8 8 8c13.253906 0 24-10.746094 24-24v-16c0-4.417969-3.582031-8-8-8zm0 0"/><path d="m151.359375 372.960938c-.179687-.507813-.417969-.992188-.71875-1.441407l-.960937-1.199219c-2.300782-2.269531-5.742188-2.933593-8.71875-1.679687-.980469.386719-1.875.957031-2.640626 1.679687-.34375.378907-.664062.78125-.960937 1.199219-.300781.445313-.542969.929688-.71875 1.441407-.246094.476562-.40625.988281-.480469 1.519531-.09375.5-.144531 1.007812-.160156 1.519531 0 4.417969 3.582031 8 8 8s8-3.582031 8-8c-.011719-.511719-.070312-1.019531-.167969-1.519531-.066406-.53125-.226562-1.046875-.472656-1.519531zm0 0"/><path d="m106.320312 133.679688 1.191407.960937c.449219.300781.9375.542969 1.449219.71875.476562.246094.988281.40625 1.519531.480469.5.09375 1.007812.148437 1.519531.160156 2.117188-.03125 4.144531-.859375 5.679688-2.320312.707031-.777344 1.273437-1.671876 1.679687-2.640626.410156-.960937.628906-1.992187.640625-3.039062-.011719-.535156-.070312-1.070312-.167969-1.601562-.082031-.5-.238281-.988282-.472656-1.4375-.179687-.507813-.417969-.992188-.71875-1.441407l-.960937-1.199219c-3.207032-2.960937-8.152344-2.960937-11.359376 0-.34375.378907-.664062.78125-.960937 1.199219-.300781.445313-.542969.929688-.71875 1.441407-.230469.453124-.394531.9375-.480469 1.4375-.09375.53125-.148437 1.066406-.160156 1.601562.011719 1.046875.230469 2.078125.640625 3.039062.386719.980469.957031 1.875 1.679687 2.640626zm0 0"/></g></svg>