<?xml version="1.0" encoding="iso-8859-1"?>
<!-- Generator: Adobe Illustrator 19.0.0, SVG Export Plug-In . SVG Version: 6.00 Build 0)  -->
<svg version="1.1" id="Layer_1" xmlns="http://www.w3.org/2000/svg" xmlns:xlink="http://www.w3.org/1999/xlink" x="0px" y="0px"
	 viewBox="0 0 496.158 496.158" style="enable-background:new 0 0 496.158 496.158;" xml:space="preserve">
<path style="fill:#004972;" d="M496.158,248.079c0,137.013-111.066,248.079-248.079,248.079S0,385.091,0,248.079
	C0,111.065,111.066,0,248.079,0S496.158,111.065,496.158,248.079z"/>
<path style="fill:#EAEAEA;" d="M338.941,151.066c0,53.579-43.433,97.013-97.014,97.013c-53.58,0-97.014-43.434-97.014-97.013
	c0-53.582,43.434-97.007,97.014-97.007C295.509,54.059,338.941,97.484,338.941,151.066z"/>
<g>
	<path style="fill:#DDDFE0;" d="M255.711,99.645c-1.67-0.195-3.568-0.008-5.223,0.087c-0.27,5.377,0.122,10.889-0.161,16.272
		c-3.837,1.062-7.808-1.811-10.957-0.464c-3.579,1.526-3.177,10.646,0.552,10.585c-2.771,0.841-5.679,0.512-8.532,0.579
		c-0.862,6.42,3.66,11.573,7.321,16.487c4.091,5.485,5.397,6.931,12.181,6.083c0.121-3.096,0.013-13.001,5.68-8.445
		c1.804,1.446,0.391,7.113,2.894,9.172c2.14,1.771,7.914,2.141,10.524,2.053c1.684-5.902,3.46-11.743-3.579-13.264
		c-0.121-2.045-0.876-5.633,0.525-7.228c0.86-0.977,3.538,0.64,4.63-0.565c1.197-1.319,0.364-3.218,0.577-4.846
		c0.459-3.391,0.514-8.667-1.978-11.285c-1.076-1.137-3.352-0.827-4.751-2.22c-6.742-6.697,1.695-9.618,0.377-15.533
		c-1.036-4.596-9.637-4.145-8.572,1.926c-0.862-0.088-1.347,0.491-2.033,0.605"/>
	<path style="fill:#DDDFE0;" d="M274.796,135.695c-0.513,0.087-0.997-0.055-1.508,0.067c-0.943,4.401,2.745,6.891,6.729,6.219
		c0.095-0.943,0.257-2.087-0.014-3.016c-0.713-1.466-2.894-3.203-4.682-3.271"/>
	<path style="fill:#DDDFE0;" d="M237.688,184.463c3.121,6.152,0.633,12.215-6.312,12.807c-0.417,5.586-2.327,12.53-8.533,14.24
		c-2.947,0.814-4.872,0.228-7.631,1.562c-4.24,2.031-6.636,4.414-11.777,3.646c-2.248-7.691,6.407-6.11,11.388-6.36
		c0.618-2.254,0.792-4.864,0.699-7.247c2.232-0.954,5.234,0.331,7.321-0.625c3.903-1.79,1.75-4.718,2.651-8.513
		c1.575-6.576,11.952-4.777,11.669-8.978"/>
	<path style="fill:#DDDFE0;" d="M214.362,181.82c-1.317,2.833-3.538,9.845,2.033,9.453c0-5.025,5.128-8.269,10.081-7.946
		c1.171-4.448-2.275-6.46-6.205-6.204c-0.188,0.497,0,0.928-0.161,1.432c-1.897,0.681-3.526,1.045-5.666,1.22
		c-0.106,0.78-0.229,1.775-0.082,2.57"/>
	<path style="fill:#DDDFE0;" d="M227.62,62.538c4.36,1.238,3.285,8.149,0.095,10.141c-2.006,1.246-6.205,0.459-8.56,0.459
		c-7.928,0.007-12.289,0.107-10.162,9.454c-4.67,2.295-12.302-0.343-14.805,4.59c-3.729,7.369,7.482,10.6-3.674,12.995
		c-2.76,0.593-6.852-0.081-8.144,3.606c-1.023,2.908,2.046,4.752,2.881,7.525c3.163,10.699-11.104,11.042-18.521,11.728
		c-0.282,5.485-0.377,10.815-0.672,16.266c-3.124,1.211-7.564,3.567-6.743,7.457c6.231,2.112,7.562,15.37,7.348,20.74
		c-0.242,6.098-5.087,9.529-2.019,15.868c6.944,1.104,8.291,9.038,14.159,9.166c-6.527,2.329-10.971-1.771-15.936-5.787
		c-6.298-5.088-6.892-10.848-9.703-17.214c-3.299-7.458-0.715-16.313-0.297-24.295c0.39-7.577,2.194-11.804,5.33-18.937
		c2.664-6.07,2.934-11.185,7.389-16.057c1.642-1.791,5.074-2.335,6.258-4.341c1.225-2.079-0.699-5.592,0.471-7.866
		c0.97-1.885,4.093-2.518,5.626-3.822c2.074-1.776,2.437-3.257,4.053-5.075c2.517-2.819,3.728-3.862,5.329-7.517
		c2.894-6.588,8.25-10.242,15.195-12.752c5.356-1.925,9.758-3.305,15.531-3.567c3.097-0.135,8.803,0.868,10.095-1.709"/>
</g>
<path style="fill:#EDEDEE;" d="M196.342,137.815c-2.45,0.585-7.295,11.298-7.482,14.3c-0.458,6.946,16.932,5.579,22.408,7.403
	c-0.174,1.971-0.552,3.862-0.524,5.807c8.789,0.875,11.804-1.863,12.113-10.006c0.363-9.423-8.682-15.599-17.887-15.465
	c-0.566-2.545,0.095-7.248,1.668-9.396c2.559-3.485,7.591-2.69,10.147-5.981c5.668-7.269-5.289-15.074-12.004-11.596
	c-7.457,3.85,2.503,22.356-9.947,21.306c-0.026,1.575,0.31,3.439,0.443,3.628"/>
<g>
	<path style="fill:#231F20;" d="M248.079,322.696c-83.218,0-159.988,13.735-221.646,36.885
		c40.823,81.003,124.741,136.577,221.646,136.577s180.822-55.573,221.659-136.577C408.067,336.431,331.297,322.696,248.079,322.696z
		"/>
	<path style="fill:#231F20;" d="M114.255,293.179v-19.541h11.359v-5.041h-11.359v-9.798h-5.048v9.798H97.849v5.041h11.358v19.582
		c-11.804,1.332-20.995,11.354-20.995,23.527v29.724h47.362v-29.724C135.574,304.459,126.221,294.357,114.255,293.179z"/>
	<path style="fill:#231F20;" d="M382.683,308.685v-19.543h11.36v-5.04h-11.36v-9.799h-5.047v9.799h-11.36v5.04h11.36v19.584
		c-11.804,1.332-20.996,11.353-20.996,23.525v29.725h47.376v-29.725C404.017,319.963,394.648,309.863,382.683,308.685z"/>
	<path style="fill:#231F20;" d="M258.819,293.179v-19.541h11.372v-5.041h-11.372v-9.798h-5.035v9.798h-11.372v5.041h11.372v19.582
		c-11.815,1.332-20.995,11.354-20.995,23.527v29.724h47.363v-29.724C280.152,304.459,270.798,294.357,258.819,293.179z"/>
	<path style="fill:#231F20;" d="M276.424,150.008c-1.805-0.39-3.056-0.208-4.766,0.58c-0.215,0.093-0.484,0.235-0.74,0.402
		c-0.847-0.519-2.395-1.764-3.405-1.581c-1.722,0.297-3.201,1.817-4.656,2.732c-1.09,0.679-3.66,2.047-4.832,3.613
		c-0.512-0.208-1.279-0.538-1.642-0.188c-1.265,1.219-2.193,2.16-3.055,3.723c-1.117,2.012-1.158,4.246-2.895,6.002
		c-1.938,1.958-3.956,3.378-6.339,4.751c-1.467,0.842-2.597,2.025-4.266,2.477c-1.777,0.484-2.936,0.962-4.469,2.031
		c-1.791,1.252-2.692,2.988-3.931,4.8c-0.054,0.08-0.135,0.188-0.242,0.309c-0.511-0.141-1.185,0.055-1.709,0.033
		c-2.073-0.08-4.186-0.128-6.286-0.128c-2.004,0-4.01-0.449-6.029-0.463c-1.723-0.014-3.58,0.289-5.343,0.443
		c0.12-0.256,0.377-0.531,0.833-0.821c0.323-0.201,0.108-0.666-0.242-0.599c-0.901,0.175-2.704,1.548-2.986,0.264
		c-0.136-0.587-0.701-0.587-1.158-0.653c-0.848-0.122-1.749,0.235-2.584,0.309c-1.293,0.108-2.961-2.758-3.821-3.493
		c-0.594-0.504-1.764-0.242-2.411-0.16c-1.358,0.16-2.099,0.073-3.203-0.868c-1.13-0.964-2.448-1.628-3.836-2.1
		c0.136-0.209,0.364-0.29,0.701-0.633c0.363-0.362,1.117-0.728,1.561-0.95c0.431-0.214,0.74-0.598,0.633-1.123
		c-0.135-0.686-0.271-1.359-0.391-2.038c3.324-0.497,6.057,3.594,9.287,2.335c0.888-0.344,1.614-0.976,1.682-1.992
		c0.081-1.137-0.768-1.925-0.834-2.947c0.605-0.484,1.318-0.821,1.548-1.683c0.202-0.72-0.014-1.925-0.781-2.302
		c-0.564-0.282-1.306-0.081-1.897,0.096c-0.147,0.046-0.511,0.221-0.632,0.422c-0.552,0.256-1.104,0.573-1.657,0.815
		c-0.011-0.075-0.011-0.155-0.025-0.229c-0.067-0.364-0.148-0.715-0.203-1.071c-0.106-0.612-0.55-0.383-1.022-0.39
		c-0.551-0.007-0.658,0.202-0.646,0.714c0.014,0.302,0.054,0.612,0.148,0.908c0.041,0.134,0.053,0.275,0.081,0.411
		c-0.459-0.062-0.902-0.283-1.319-0.762c-1.226-1.42-0.122-3.808,1.775-3.606c1.064,0.107,1.736,0.585,2.719,0.49
		c0.041,0.035,0.082,0.055,0.122,0.055c0.068,0,0.108-0.007,0.134-0.02c0.068,0.006,0.122-0.021,0.148-0.082
		c0.189-0.384,0.727-0.302,0.997-0.564c0.39-0.391,0.269-0.815,0.254-1.34c0-0.344-0.12-0.666-0.443-0.854
		c-0.175-0.102-0.336-0.182-0.525-0.255c-0.134-0.055-0.47-0.29-0.712-0.552c0.066-0.183,0.147-0.357,0.202-0.546
		c0.014-0.007,0.014-0.007,0.025-0.014c0.351-0.471,0.756-0.72,1.132-1.123c0.094-0.102,0.12-0.25,0.054-0.364
		c-0.27-0.443-0.835-0.706-1.077-1.13c-0.74-1.299-0.134-2.577,0.43-3.736c0.096-0.201-0.013-0.45-0.256-0.45
		c-5.06,0,1.32-3.842-0.887-5.222c-2.692-1.695-4.106-4.63-6.703-6.474c-0.484-0.336-1.117-0.909-1.789-1.359
		c0.335-0.465,0.833-0.814,1.331-1.092c0.122-0.073,0.256-0.127,0.405-0.174c-0.055,0.108-0.096,0.215-0.122,0.323
		c-0.229,0.809,1.426,1.676,1.965,1.131c0.201-0.195,0.08-0.741-0.014-0.956c-0.256-0.539-0.633-0.801-1.197-0.854
		c0.552-0.874,1.695-1.844,2.086-2.112c0.066-0.048,0.04-0.155-0.054-0.162c-0.634-0.021-1.01,0.505-1.439,0.922
		c-0.405,0.378-0.795,0.854-1.064,1.373c-0.808,0.134-1.603,0.753-2.059,1.494c-0.351-0.223-0.714-0.396-1.063-0.479
		c0.202-0.821,0.7-1.629,1.076-2.321c0.579-1.083,1.279-2.073,2.128-2.968c0.053-0.054-0.015-0.135-0.068-0.094
		c-1.157,0.82-1.817,2.059-2.477,3.296c-0.322,0.606-0.673,1.333-0.807,2.066c-0.04-0.006-0.081-0.02-0.121-0.02
		c-0.161-0.007-0.324-0.014-0.498-0.021c-0.027-0.162-0.041-0.329-0.055-0.478c-0.067-0.431-0.215-0.801-0.404-1.198
		c-0.336-0.768-0.875-1.204-1.629-1.547c-0.08-0.041-0.146,0.066-0.066,0.121c0.82,0.605,1.44,1.197,1.75,2.193
		c0.094,0.275,0.135,0.599,0.202,0.901c-1.589-0.067-3.217-0.041-4.792,0.135c-1.736,0.188-3.486,0.673-5.128,1.272
		c-0.673,0.242-2.099,1.446-2.437,1.695c-0.147,0.094-1.063,0.733-1.306,0.915c-0.134-0.106-0.376-0.081-0.417,0.128
		c-0.161,0.774-0.283,0.942,0.351,1.581c1.062,1.058,1.454,0.814-0.176,1.67c-0.066,0.039-0.147,0.147-0.134,0.235
		c0.201,1.716,2.383,1.603-0.606,2.362c-0.632,0.161,0.136,2.39-0.026,2.301c-0.538-0.296-2.274-0.747-2.693-0.02
		c-0.146,0.255-0.039,1.062-0.024,1.197c-0.015-0.343-1.037-0.896-1.348-1.063c-0.133-0.074-0.282,0-0.335,0.142
		c-0.781,2.302,0.175,4.751,1.668,6.696c-0.026,0.053-0.054,0.115-0.081,0.175c-0.215,0.559-0.229,0.963-0.229,1.574
		c0,1.515-0.04,2.402-0.686,3.823c-0.364,0.787-0.082,1.399,0.538,1.911c1.736,1.412,0.82,2.496,0.619,4.334
		c0,0.04,0.067,0.053,0.08,0.007c0.363-1.48,1.305-2.545,0.202-3.829c-0.849-0.99-2.032-0.687-0.929-3.104
		c0.121-0.274,0.271-0.813,0.377-1.124c0.296-0.819-0.35-2.697,0.215-3.633c0.619,0.794,1.333,1.5,2.047,2.065
		c-0.85,0.457-1.146,1.4-1.252,2.504c-0.027,0.256,0.146,0.633,0.391,0.941c-0.633,1.05,0.403,2.585,1.212,3.312
		c0.025,0.027,0.093-0.013,0.052-0.048c-0.349-0.464-0.713-0.928-1.021-1.426c-0.323-0.64-0.337-1.185-0.054-1.628
		c0.349,0.329,0.793,0.504,1.103,0.174c0.606-0.634-0.054-1.359-0.795-0.876c-0.188,0.122-0.335,0.257-0.443,0.405
		c-0.134-0.122-0.242-0.405-0.283-0.854c-0.094-0.963,0.405-1.919,1.186-2.423c0.135,0.102,0.257,0.195,0.377,0.289
		c0.484,0.351,1.023,0.74,1.575,1.145c-0.31,0.908-0.323,1.999-0.296,2.818c0.013,0.492,0.146,1.091,0.604,1.366
		c2.128,1.238,0.849,2.753,0.498,4.53c-0.014,0.08,0.095,0.107,0.108,0.034c0.457-1.279,1.266-2.49,0.604-3.87
		c-0.201-0.425-0.39-0.673-0.86-0.821c-1.198-0.377-1.064-2.396-0.457-3.909c1.479,1.083,3.026,2.294,4.077,3.425
		c1.306,1.406,2.477,2.859,2.315,4.912c-0.027,0.922-0.296,1.717-0.808,2.383c-0.096,0.121-0.27,0.391-0.458,0.659
		c-2.302,1.354-4.145,0.78-6.662,0.78c-0.619,0-1.346,0.142-1.898,0.464c-1.991,1.165-3.499,1.846-5.935,0.64
		c-0.7-0.343-3.474-0.68-4.279-0.248c-1.051-0.095-2.142-0.008-2.936,0.49c-4.414,2.801-7.563,6.885-10.754,10.969
		c-1.237,1.582-3.553,3.043-4.401,4.873c-1.144,2.443-2.934,3.499-4.885,5.148c-0.162,0.142-0.216,0.457,0.026,0.552
		c0.242,0.094,0.484,0.202,0.74,0.188c1.588-0.101,2.773-0.215,0.256,1.696c-0.188,0.141-0.107,0.396,0.055,0.464
		c-0.525,0.484-1.051,0.962-1.399,1.453c-1.266,1.764-2.047,3.829-2.975,5.782c-0.809,1.688-0.324,4.439,0.874,6.116
		c0.148,0.404,0.351,0.808,0.579,1.19c0.283,2.726,0.026,5.546,0.175,8.319c0.081,1.372,0.632,2.758,0.713,4.145
		c0.095,1.776,0.256,3.526,0.579,5.275c0.525,2.928,1.198,5.674,2.085,8.527c1.239,3.963,3.325,7.395,3.514,11.575
		c-0.256,0.229-0.498,0.471-0.699,0.618c-0.512,0.377-0.849,1.023-0.943,1.643c-0.094,0.564,0.594,1.184,0.862,1.629
		c0.229,0.376,0.498,1.002,0.902,1.284c-0.593,0.586-1.252,1.144-1.695,1.77c-0.701,0.982-1.132,2.14-1.455,3.292
		c-0.363,1.346-0.094,3.257,0.445,4.959c-0.769,1.34-1.333,2.873-1.927,4.133c-0.295,0.64-0.954,1.426-1.089,2.14
		c-0.041,0.201-0.067,1.419-0.781,0.9c-0.632-0.463-0.378-0.867-0.282-1.628c0.026-0.201,0.107-3.089-1.023-2.335
		c-0.753,0.498-0.565,1.824-1.035,2.45c-0.364,0.471-1.091,1.588-1.05,2.193c0.081,1.358,2.866,3.068,3.768,4.173
		c0.472,0.577,1.615,2.778,2.356,2.826c0.793,0.053,1.992-0.747,2.395-1.42c-0.633,1.057-0.713,2.093-2.166,2.362
		c-1.064,0.202-2.074-0.606-3.043-0.351c-0.147,0.041-0.242,0.229-0.188,0.362c0.66,1.495,1.211,2.182,2.8,2.768
		c0.565,0.207,1.588,0.76,2.126,0.147c1.171-1.319,2.651-2.361,3.836-3.688c0.981-1.09,1.467-2.853,2.005-4.319
		c0.027,0.055,0.055,0.106,0.082,0.161c0.591,1.347-0.485,2.901-1.131,4.091c-0.579,1.063-1.79,2.632-1.023,3.856
		c0.067,0.095,0.188,0.135,0.297,0.101c1.318-0.409,2.422-2.408,3.229-3.498c0.982-1.326,2.544-3.069,2.315-4.873
		c-0.202-1.629-0.565-3.485-1.211-4.96c-0.351-0.834-0.498-1.701-0.606-2.577c0.565,0.827,1.278,1.548,1.965,1.892
		c1.292,0.666,3.647,0.922,4.725-0.283c0.256-0.289-0.055-0.612-0.27-0.76c-0.457-0.323-0.43,0.208-1.374-0.512
		c-0.727-0.565-1.157-1.184-1.695-1.898c-0.82-1.109-1.52-2.423-2.328-3.572c-0.619-0.903-1.79-2-2.302-3.075
		c0.486-2.309,1.347-4.771,2.531-6.771c0.955-1.588-2.49-2.12-2.369-3.741c0.134-1.649,0.336-2.295-0.849-3.614
		c0-0.014-0.335-0.276-0.672-0.464c-0.095-3.393-0.888-9.416-0.874-10.094c0.065-2.801-1.01-5.566-0.836-8.34
		c0.12-1.863,0.229-3.741,0.311-5.612c0.31-1.864,0.525-3.748,0.969-5.599c0.283-1.164,0.552-1.945,0.458-3.176
		c-0.014-0.114-0.566-1.965-0.553-1.973c0.834-0.625,1.279-1.742,1.979-2.522c1.064-1.145,1.805-2.214,2.504-3.601
		c0.498-0.976,1.601-1.662,2.342-2.483c0.215,0.734,0.565,1.434,1.197,1.501c0.095,0.007,0.176-0.026,0.242-0.081
		c0.444,1.911,1.292,3.782,1.736,5.626c0.014,0.061,0.04,0.106,0.081,0.147c-0.201,2.672-0.215,5.344-0.188,8.062
		c0.014,2.128-0.108,4.173-0.256,6.301c-0.136,1.93,0.86,3.498,0.727,5.416c-0.62-0.416-1.562-0.761-2.074-0.941
		c-0.242-0.081-0.536,0.194-0.443,0.443c0.311,0.795,0.604,1.588,0.982,2.362c-0.121-0.256-0.66-0.417-1.372-0.444
		c-0.242-0.013-0.43,0.297-0.283,0.499c0.619,0.901,1.615,1.479,2.275,2.348c0.7,0.936-0.903,2.57-0.538,3.816
		c0.16,0.524,0.699,1.647,0.039,2.004c-0.216,0.115-0.404,0.397-0.524,0.6c-0.217,0.356-0.606,0.794-0.202,1.198
		c0.524,0.519,1.912-0.102,1.912,0.922c-0.014,1.682,0.443,3.486,0.74,5.114c0.39,2.16,3.026,4.624,4.939,5.699
		c-0.122,0.553-0.242,1.098-0.364,1.637c-0.593,2.685-1.858,4.4-3.876,6.109c-0.163,0.129-0.081,0.424,0.12,0.458
		c1.48,0.283,1.952,0.242,0.943,1.702c-0.363,0.545-0.432,1.191-0.081,1.704c0.066,0.106,0.188,0.161,0.323,0.127
		c0.551-0.121,1.009-0.397,1.427-0.714c-0.498,0.943-0.997,1.897-1.401,2.9c-0.591,1.48-1.156,2.975-1.815,4.429
		c-0.727,1.622-0.849,3.418-1.602,5.06c-1.226,2.687-2.396,5.963-4.294,8.23c-2.248,2.712-5.465,4.758-8.519,6.435
		c-4.968,2.725-6.287,7.691-8.454,12.51c-0.672,1.474-1.817,2.686-2.504,4.166c-0.778,1.655-1.358,3.392-2.099,5.06
		c-1.036,2.33-1.508,6.999-4.226,8.057c-0.902-0.155-1.789-0.391-2.826-0.734c-1.091-0.363-2.409-0.208-3.109,0.762
		c-1.414,1.91-1.804,3.148-1.468,5.464c0.176,1.123,1.158,2.005,1.428,3.102c0.431,1.743,0.712,3.236,0.268,5.027
		c-0.697,2.813-4.333,7.489-1.425,10.235c3.566,3.352,7.63-0.955,11.144,1.468c1.238,0.86,2.624-0.909,3.89-0.653
		c1.426,0.283,3.068,0.208,4.146-0.814c2.087-2.012-1.105-6.137-3.58-5.599c-1.266,0.275-1.278,0.262-2.49,0.867
		c-0.067,0.034-0.43-2.448-0.525-2.987c-0.402-2.146-2.975-4.98-1.749-7.302c0.875-1.663,1.574-3.284,1.776-5.175
		c0.04-0.396,0.08-0.813,0.108-1.232c0.025-0.014,0.066-0.032,0.08-0.065c0.82-1.037,1.804-2.208,2.719-3.144
		c1.023-1.057,2.705-1.87,3.527-3.103c1.856-2.772,4.858-4.697,6.635-7.463c1.736-2.713,3.553-4.933,4.925-7.888
		c1.091-2.313,4.563-7.859,7.498-7.866c2.153,0,1.521-2.651,2.678-3.425c1.306-0.875,3.85-2.261,4.388-3.775
		c0.188-0.56-0.04-2.047-0.027-2.604c0.014-1.515,1.144-4.422,1.75-5.835c0.579-1.319,1.386-2.988,2.181-4.192
		c0.391-0.612,0.525-1.346,0.74-2.039c0.08,0.302,0.201,0.593,0.31,0.828c0.094,0.175,0.188,0.457,0.31,0.747
		c0.176,1.211,0.619,2.745,0.391,3.062c-0.498,0.7-0.377,1.319,0.229,1.884c0.969,0.923,0.417,2.738,1.453,3.601
		c0.121,0.101,0.336,0.081,0.363-0.095c0.229-1.029,1.227-2.583,0.688-3.56c-0.661-1.171,0.498-2.691-0.242-3.937
		c-0.862-1.447,1.089-4.818,1.049-6.501c-0.025-0.7,0.646-1.291,0.364-1.925c-0.283-0.639,1.225-0.854,1.049-1.554
		c1.441,2.092,3.702,3.499,5.344,5.432c0.956,1.136,1.588,2.192,1.588,3.734c0,0.087,0.04,0.154,0.095,0.221
		c1.116,1.286,2.153-0.807,3.593,1.562c0.687,1.138,1.494,1.717,2.559,2.545c1.184,0.921,2.099,2.273,3.108,3.392
		c0.969,1.083-1.01,2.294,0.915,2.887c1.978,0.605,0.255,2.442,0.861,3.493c0.498,0.833,1.238,0.772,1.238,2.093
		c0,0.443,0.27,0.961,0.431,1.358c0.377,0.882,0.135,2.442,0.135,3.432c0,1.105,0.673,4.28,0.053,5.188
		c-1.143,1.71-1.439,4.186-1.788,6.146c-0.256,1.507,0.294,4.583,1.144,5.827c0.12,0.182,0.402,0.161,0.471-0.061
		c0.283-0.936,0.053-1.837,0.188-2.819c0-0.014,0.404-1.211,0.404-1.205c0.107,0.377,0.028,0.868,0.189,1.232
		c0.443,0.981,0.511,1.902,1.211,2.731c0.093,0.107,0.27,0.066,0.335-0.041c0.297-0.519,0.688-0.989,1.132-1.406
		c0.079,0.7,0.282,1.413,0.673,2.16c0.66,1.313,1.654,2.288,2.746,3.251c1.682,1.494,3.108,3.748,3.902,5.848
		c0.553,1.447,1.966,2.604,2.559,4.125c0.47,1.197,0.915,2.632,1.614,3.688c0.673,1.05,1.075,2.242,1.709,3.324
		c0.874,1.48,0.404,2.437,0.404,4.025c0.013,2.664,0.673,1.339,2.745,3.095c1.736,1.461-0.768,5.378,2.449,6.063
		c1.307,0.276,4.011,0.653,4.899-0.768c0.996-1.587,1.293-3.282,2.947-4.434c1.521-1.064,3.029-1.117,4.765-1.407
		c1.898-0.31,3.42-1.306,5.438-1.419c0.808-0.048,1.347,0,1.979-0.614c0.646-0.645,1.36-1.277,1.615-2.199
		c0.282-1.029-0.175-2.167,1.266-1.884c1.574,0.309,2.517-2.773,2.854-3.715c0.78-2.207,0.43-3.998-1.791-5.136
		c-1.197-0.625-2.732,0.297-3.392,1.272c-1.587,2.369-5.505,3.109-8.129,3.828c-1.911,0.52-3.729,1.206-5.746,1.286
		c-1.334,0.053-2.572-0.282-3.622-1.131c-0.39-0.315-0.86-1.211-1.291-1.44c-2.773-1.499-5.209-4.905-6.056-7.886
		c-0.474-1.716-0.741-3.446-1.01-5.203c-0.19-1.251,0.12-3.116-0.513-4.278c-0.78-1.435-1.319-2.908-2.207-4.281
		c-0.026-0.047-0.067-0.094-0.095-0.142c1.333,0.262,2.275,1.051,2.814,2.376c0.04,0.27,0.456,0.195,0.456-0.06
		c0-0.202-0.013-0.397-0.013-0.6c0.067,0,0.081-0.034,0-0.135c-0.081-2.901-0.66-5.303-1.467-8.163
		c-0.404-1.399-1.644-2.073-2.705-2.894c-2.369-1.837-0.014-3.91-0.498-5.89c-0.27-1.089-1.145-1.87,0.026-2.784
		c0.618-0.484,1.062-1.206,0.835-2.02c-0.068-0.236-0.176-0.479-0.351-0.653c-1.022-1.144-0.484-2.926-0.337-4.253
		c0.175-1.433-0.27-2.295-1.211-3.304c-1.399-1.474-2.812-2.941-4.092-4.509c-1.319-1.616-3.189-2.651-4.509-4.32
		c-2.396-3.001-3.405-6.845-6.083-9.616c-1.521-1.589-3.446-2.794-5.074-4.267c-1.427-1.279-2.585-3.459-3.392-5.189
		c-0.633-1.353-1.427-2.698-2.288-3.95c0.054-0.094,0.108-0.181,0.161-0.275c0.538-0.801,1.467-1.185,1.938-2.012
		c0.136-0.209,0.189-0.593,0.108-0.808c-0.431-1.159-0.041-2.282-0.363-3.439c-0.188-0.714-1.145-1.904-1.05-2.537
		c0.134-0.76,0.295-1.722,0.041-2.477c-0.176-0.538-0.997-1.109-1.804-1.595c0.067-0.835-0.055-1.655-0.055-2.503
		c0-1.414,1.374-1.743,1.911-2.766c0.04-0.102,0.04-0.229-0.041-0.311c-0.456-0.444-1.345-0.014-2.004,0.391
		c0.201-0.431,0.362-0.848,0.376-1.373c0.175-0.121,0.377-0.181,0.471-0.391c0.027-0.08-0.014-0.154-0.094-0.168
		c-0.296-0.02-0.391-0.074-0.687,0.074c-0.35,0.189-0.592,0.491-0.888,0.74c-0.067,0.048-0.121,0.115-0.161,0.189
		c-0.419-0.876-0.903-1.724-1.226-2.626c-0.538-1.486,0.807-2.994,1.319-4.286c0.337-0.875,0.982-2.092,0.269-2.974
		c-0.941-1.172-0.781-2.78-1.184-4.233c0.754-0.257,1.548-0.304,2.207-0.808c1.104-0.849,2.504-1.197,3.514-2.228
		c1.184-1.198,2.166-2.551,3.217-3.863c1.843-2.335,3.539-4.569,4.872-7.24c0.147-0.276,0.242-0.693,0.294-1.158
		c0.218-0.208,0.419-0.457,0.634-0.619c0.566-0.41,1.116-0.936,1.507-1.514c0.391-0.6,0.781-1.205,1.266-1.723
		c0.162-0.175,0.336-0.351,0.472-0.552c0.86,0.315,1.816,0.155,2.745,0.322c1.387,0.256,2.68,0.484,4.105,0.498
		c0.525,0.007,1.506,0.216,1.966-0.188c1.507-1.34,3.741,0.013,5.127,0.699c0.161,0.087,0.403-0.013,0.39-0.229
		c-0.026-0.68-0.255-1.3-0.322-1.999c2.745,0.593,5.788,0.397,8.521,0.531c1.979,0.102,3.996-0.706,5.84-1.285
		c1.09-0.343,2.423-0.874,3.688-1.197c0.323,0.174,0.646,0.424,0.821,0.552c0.525,0.37,1.252,0.511,1.831,0.781
		c0.539,0.254,1.561,0.564,2.193,0.456c1.333-0.222,1.318-2.818,1.413-4.293c3.149-2.112,6.488-3.868,9.071-6.79
		c1.764-1.978,3.486-3.883,5.006-6.069c0.729-1.044,1.388-2.222,2.114-3.338c0.836-0.216,0.646-0.108,1.292-0.774
		c1.724-1.763,2.314-0.471,3.796-0.471c1.534,0,2.921,0.752,4.508,0.747c1.967,0,3.728-1.226,5.733-0.97
		c1.656,0.209,2.653,2.523,4.228,2.679c2.288,0.229,2.382-1.037,0.955-2.598c-1.05-1.145-2.287-2.188-3.835-2.288
		c-0.809-0.047-1.44-0.457-2.194-0.377c-0.849,0.088-1.023-1.373-1.036-2.005c0.969-0.62,1.992-1.03,3.055-1.555
		c4.454-2.194,3.714-0.835,5.706,0.275c1.413,0.787,1.872,2.012,3.379,2.254c0.969,0.155,1.036,0.727,1.776,0.849
		c0.201,0.033,0.43-0.168,0.297-0.37c-0.768-1.185-1.776-2.241-2.76-3.244c-0.512-0.538-1.764-2.994-2.744-3.162
		c-1.508-0.256-3.163-0.155-4.725,0.27c0.78-1.037,0.686-2.376,1.815-3.171c1.428-1.016,3.459,0.014,5.021,0.694
		c1.467,0.632,3.579,0.571,5.182-0.027c0.134-0.055,0.82,0.827,0.834,0.666C284.566,152.156,278.227,150.399,276.424,150.008z
		 M196.464,132.512c0.349,0.006,0.699,0.147,0.954,0.531c0.499,0.727,0,0.801-0.484,0.681
		C196.222,133.542,196.194,133.063,196.464,132.512z M149.949,240.063c0.025,0.27-0.392,0.425-0.512,0.176
		c-0.634-1.278-0.956-2.753-1.387-4.105c-0.444-1.372-0.997-2.72-1.28-4.132c-0.242-1.278-0.604-2.731-0.362-4.037
		c0.311-1.603,0.593-3.17,0.7-4.799c0.026-0.355,0.524-0.404,0.565-0.034c0,0.008,0,0.015,0,0.021
		c0.014,0.027,0.026,0.053,0.041,0.087c0.321,1.205,0.268,2.496,0.362,3.734c0.122,1.535,0.378,3.008,0.632,4.523
		C149.182,234.336,149.599,237.21,149.949,240.063z M175.251,261.679c0.027-0.176,0.041-0.343,0.067-0.498
		C175.4,261.363,175.359,261.524,175.251,261.679z"/>
</g>
<g>
</g>
<g>
</g>
<g>
</g>
<g>
</g>
<g>
</g>
<g>
</g>
<g>
</g>
<g>
</g>
<g>
</g>
<g>
</g>
<g>
</g>
<g>
</g>
<g>
</g>
<g>
</g>
<g>
</g>
</svg>
